<svg width="450" height="378" viewBox="0 0 450 378" fill="none" xmlns="http://www.w3.org/2000/svg">
<mask id="mask0_137_787" style="mask-type:luminance" maskUnits="userSpaceOnUse" x="0" y="0" width="450" height="378">
<path d="M450 0.930237H0V377.674H450V0.930237Z" fill="white"/>
</mask>
<g mask="url(#mask0_137_787)">
<path d="M247.109 295.355C249.531 293.634 252.174 292.248 254.967 291.234L256.04 283.068L269.61 281.834L272.188 289.68C275.118 290.175 277.968 291.058 280.663 292.308L287.189 287.299L297.65 296.008L293.949 303.336C295.67 305.762 297.056 308.41 298.07 311.207L306.236 312.28L307.47 325.85L299.649 328.391C299.15 331.319 298.267 334.169 297.021 336.866L302.017 343.404L293.32 353.865L285.98 350.164C283.557 351.886 280.914 353.276 278.122 354.297L277.049 362.451L263.479 363.685L260.888 355.802C257.958 355.304 255.108 354.416 252.414 353.162L245.875 358.17L235.414 349.461L239.115 342.133C237.39 339.712 236 337.068 234.983 334.275L226.828 333.202L225.595 319.632L233.416 317.079C233.915 314.149 234.803 311.299 236.056 308.604L231.047 302.078L239.757 291.617L247.084 295.318L247.109 295.355ZM255.683 312.909C253.836 315.13 252.69 317.849 252.388 320.721C252.086 323.594 252.643 326.491 253.988 329.047C255.333 331.604 257.405 333.704 259.944 335.082C262.482 336.46 265.372 337.055 268.248 336.791C271.125 336.528 273.858 335.417 276.103 333.6C278.348 331.783 280.004 329.341 280.862 326.582C281.719 323.824 281.74 320.874 280.92 318.104C280.101 315.334 278.479 312.87 276.259 311.021C274.784 309.794 273.08 308.869 271.247 308.3C269.413 307.732 267.486 307.53 265.574 307.708C263.663 307.886 261.805 308.439 260.108 309.335C258.41 310.232 256.907 311.455 255.683 312.934V312.909Z" fill="#EBEBEB"/>
<path d="M94.6365 33.5563C96.4003 32.303 98.3258 31.2946 100.361 30.5586L101.138 24.6125L111.007 23.712L112.857 29.4113C114.989 29.7705 117.064 30.4135 119.025 31.3234L123.775 27.6226L131.386 33.951L128.672 39.2926C129.924 41.0545 130.937 42.9753 131.682 45.0042L137.616 45.7937L138.516 55.6627L132.829 57.5131C132.467 59.646 131.82 61.7206 130.905 63.6812L134.606 68.4306L128.265 76.0544L122.923 73.3898C121.166 74.6491 119.244 75.6619 117.212 76.3998L116.422 82.3335L106.553 83.2464L104.703 77.5471C102.572 77.1827 100.498 76.5398 98.5347 75.635L93.7853 79.3358L86.1616 72.995L88.8879 67.6658C87.6354 65.8996 86.6232 63.9747 85.8778 61.9418L79.9441 61.1646L79.0312 51.2957L84.7306 49.4453C85.0949 47.3143 85.7378 45.2406 86.6427 43.2772L83.0035 38.5277L89.3443 30.9163L94.6735 33.6303L94.6365 33.5563ZM100.879 46.3365C99.5375 47.9564 98.7068 49.9375 98.4916 52.0294C98.2763 54.1213 98.6861 56.2301 99.6693 58.0891C100.652 59.9481 102.165 61.4738 104.015 62.4735C105.865 63.4731 107.97 63.9017 110.064 63.7051C112.157 63.5085 114.146 62.6955 115.778 61.3689C117.409 60.0423 118.611 58.2617 119.231 56.2521C119.851 54.2426 119.861 52.0944 119.26 50.0792C118.659 48.0639 117.474 46.2721 115.855 44.9302C114.78 44.0374 113.539 43.3654 112.204 42.9527C110.869 42.5401 109.466 42.3949 108.075 42.5256C106.684 42.6562 105.332 43.0601 104.097 43.7141C102.862 44.368 101.768 45.2592 100.879 46.3365Z" fill="#E0E0E0"/>
<path d="M41.5896 147.629C43.2162 146.48 44.9873 145.551 46.8571 144.866L47.5849 139.388L56.6891 138.549L58.3914 143.805C60.3573 144.136 62.27 144.73 64.0784 145.569L68.4701 142.213L75.4894 148.061L73.0222 152.995C74.1796 154.618 75.1132 156.39 75.7978 158.263L81.2751 158.99L82.1016 168.095L76.8464 169.797C76.5205 171.764 75.9269 173.678 75.0823 175.484L78.4377 179.863L72.6027 186.895L67.6683 184.428C66.0358 185.574 64.2609 186.503 62.3884 187.191L61.6729 192.668L52.5688 193.507L50.854 188.252C48.889 187.917 46.9768 187.324 45.1671 186.488L40.7877 189.843L33.7684 183.996L36.2357 179.061C35.0806 177.432 34.1472 175.657 33.46 173.782L27.9828 173.054L27.1562 163.962L32.3991 162.247C32.7368 160.281 33.3342 158.369 34.1755 156.56L30.8078 152.181L36.6551 145.149L41.5896 147.617V147.629ZM47.3382 159.41C46.0944 160.898 45.3197 162.722 45.1122 164.65C44.9046 166.579 45.2736 168.525 46.1724 170.244C47.0712 171.963 48.4594 173.376 50.1616 174.306C51.8638 175.236 53.8034 175.64 55.7353 175.468C57.6672 175.295 59.5046 174.554 61.0151 173.337C62.5256 172.121 63.6415 170.483 64.2215 168.633C64.8016 166.782 64.8198 164.8 64.274 162.939C63.7281 161.078 62.6426 159.421 61.1547 158.176C59.1526 156.523 56.5795 155.725 53.9932 155.956C51.4069 156.187 49.0158 157.428 47.3382 159.41Z" fill="#E0E0E0"/>
<path d="M66.8909 61.9789H410.823C413.997 61.9789 417.041 63.2396 419.285 65.4836C421.529 67.7277 422.79 70.7713 422.79 73.9449V298.969C422.79 303.016 421.182 306.898 418.32 309.759C415.458 312.621 411.577 314.229 407.53 314.229H66.2124C63.2187 314.229 60.3477 313.04 58.2309 310.923C56.114 308.806 54.9248 305.935 54.9248 302.941V73.9449C54.9248 70.7713 56.1855 67.7277 58.4296 65.4836C60.6737 63.2396 63.7173 61.9789 66.8909 61.9789Z" fill="#0C122B"/>
<path d="M127.843 98.1608H101.888V103.823H127.843V98.1608Z" fill="#455A64"/>
<path d="M114.865 123.512H101.888V129.174H114.865V123.512Z" fill="#FF725E"/>
<path d="M129.928 136.255H111.658V141.917H129.928V136.255Z" fill="#455A64"/>
<path d="M143.474 136.255H132.828V141.917H143.474V136.255Z" fill="#455A64"/>
<path d="M238.92 136.255H217.023V141.917H238.92V136.255Z" fill="#455A64"/>
<path d="M302.907 148.677H265.923V154.34H302.907V148.677Z" fill="#455A64"/>
<path d="M359.962 136.255H342.198V141.917H359.962V136.255Z" fill="#455A64"/>
<path d="M401.128 136.255H365.415V141.917H401.128V136.255Z" fill="#455A64"/>
<path d="M129.928 148.677H111.658V154.34H129.928V148.677Z" fill="#455A64"/>
<path d="M118.704 161.075H100.435V166.738H118.704V161.075Z" fill="#FF725E"/>
<path d="M118.705 173.473H110.168V179.135H118.705V173.473Z" fill="#455A64"/>
<path d="M150.038 199.576H141.501V205.239H150.038V199.576Z" fill="#455A64"/>
<path d="M275.594 246.75H258.915V252.412H275.594V246.75Z" fill="#455A64"/>
<path d="M368.77 246.75H327.912V252.412H368.77V246.75Z" fill="#455A64"/>
<path d="M212.803 234.365H196.125V240.027H212.803V234.365Z" fill="#FF725E"/>
<path d="M152.369 223.743H135.69V229.405H152.369V223.743Z" fill="#455A64"/>
<path d="M255.462 246.75H229.161V252.412H255.462V246.75Z" fill="#455A64"/>
<path d="M124.021 186.093H110.168V191.755H124.021V186.093Z" fill="#455A64"/>
<path d="M135.864 199.786H110.168V205.448H135.864V199.786Z" fill="#455A64"/>
<path d="M147.769 210.272H110.168V215.934H147.769V210.272Z" fill="#455A64"/>
<path d="M215.874 210.272H178.273V215.934H215.874V210.272Z" fill="#455A64"/>
<path d="M188.144 234.365H135.357V240.027H188.144V234.365Z" fill="#455A64"/>
<path d="M224.634 246.75H135.357V252.412H224.634V246.75Z" fill="#455A64"/>
<path d="M197.629 259.135H108.353V264.798H197.629V259.135Z" fill="#455A64"/>
<path d="M174.278 210.272H151.728V215.934H174.278V210.272Z" fill="#455A64"/>
<path d="M145.337 173.473H122.071V179.135H145.337V173.473Z" fill="#455A64"/>
<path d="M150.457 186.093H127.191V191.755H150.457V186.093Z" fill="#455A64"/>
<path d="M240.632 186.093H179.013V191.755H240.632V186.093Z" fill="#455A64"/>
<path d="M313.48 186.093H242.312V191.755H313.48V186.093Z" fill="#455A64"/>
<path d="M173.549 186.093H154.292V191.755H173.549V186.093Z" fill="#455A64"/>
<path d="M179.039 173.473H148.531V179.135H179.039V173.473Z" fill="#455A64"/>
<path d="M199.393 173.473H182.406V179.135H199.393V173.473Z" fill="#FF725E"/>
<path d="M151.875 148.677H132.828V154.34H151.875V148.677Z" fill="#455A64"/>
<path d="M258.867 148.677H164.816V154.34H258.867V148.677Z" fill="#455A64"/>
<path d="M364.441 186.093H319.969V191.755H364.441V186.093Z" fill="#455A64"/>
<path d="M324.397 246.75H279.925V252.412H324.397V246.75Z" fill="#455A64"/>
<path d="M335.289 136.255H242.645V141.917H335.289V136.255Z" fill="#455A64"/>
<path d="M211.274 136.255H146.805V141.917H211.274V136.255Z" fill="#455A64"/>
<path d="M145.299 110.164H101.888V115.826H145.299V110.164Z" fill="#455A64"/>
<path d="M209.066 110.164H149.63V115.826H209.066V110.164Z" fill="#455A64"/>
<path d="M151.001 98.1608H131.893V103.823H151.001V98.1608Z" fill="#FF725E"/>
<path d="M82.0769 98.1608H76.5996V103.823H82.0769V98.1608Z" fill="#455A64"/>
<path d="M82.0769 110.546H76.5996V116.209H82.0769V110.546Z" fill="#455A64"/>
<path d="M82.0769 122.932H76.5996V128.594H82.0769V122.932Z" fill="#455A64"/>
<path d="M82.0769 135.305H76.5996V140.967H82.0769V135.305Z" fill="#455A64"/>
<path d="M82.0769 147.691H76.5996V153.353H82.0769V147.691Z" fill="#455A64"/>
<path d="M82.0769 160.076H76.5996V165.738H82.0769V160.076Z" fill="#455A64"/>
<path d="M82.0769 172.461H76.5996V178.124H82.0769V172.461Z" fill="#455A64"/>
<path d="M82.0769 184.835H76.5996V190.497H82.0769V184.835Z" fill="#455A64"/>
<path d="M82.0769 197.22H76.5996V202.883H82.0769V197.22Z" fill="#455A64"/>
<path d="M147.941 285.88H139.404V291.543H147.941V285.88Z" fill="#FF725E"/>
<path d="M134.211 285.88H108.515V291.543H134.211V285.88Z" fill="#FF725E"/>
<path d="M82.0769 285.251H76.5996V290.914H82.0769V285.251Z" fill="#455A64"/>
<path d="M82.0769 209.606H76.5996V215.268H82.0769V209.606Z" fill="#455A64"/>
<path d="M82.0769 221.991H76.5996V227.654H82.0769V221.991Z" fill="#455A64"/>
<path d="M82.0769 234.365H76.5996V240.027H82.0769V234.365Z" fill="#455A64"/>
<path d="M82.0769 246.75H76.5996V252.412H82.0769V246.75Z" fill="#455A64"/>
<path d="M82.0769 259.135H76.5996V264.798H82.0769V259.135Z" fill="#455A64"/>
<path d="M134.382 272.162H108.353V277.825H134.382V272.162Z" fill="#455A64"/>
<path d="M198.285 272.162H139.404V277.825H198.285V272.162Z" fill="#455A64"/>
<path d="M82.0769 272.162H76.5996V277.825H82.0769V272.162Z" fill="#455A64"/>
<path d="M235.416 110.127H216.308V115.789H235.416V110.127Z" fill="#FF725E"/>
<path d="M75.4513 82.1855C77.5974 82.1855 79.3372 80.4457 79.3372 78.2996C79.3372 76.1534 77.5974 74.4137 75.4513 74.4137C73.3052 74.4137 71.5654 76.1534 71.5654 78.2996C71.5654 80.4457 73.3052 82.1855 75.4513 82.1855Z" fill="#455A64"/>
<path d="M86.2482 82.1855C88.3943 82.1855 90.1341 80.4457 90.1341 78.2996C90.1341 76.1534 88.3943 74.4137 86.2482 74.4137C84.1021 74.4137 82.3623 76.1534 82.3623 78.2996C82.3623 80.4457 84.1021 82.1855 86.2482 82.1855Z" fill="#455A64"/>
<path d="M97.0285 82.1855C99.1746 82.1855 100.914 80.4457 100.914 78.2996C100.914 76.1534 99.1746 74.4137 97.0285 74.4137C94.8824 74.4137 93.1426 76.1534 93.1426 78.2996C93.1426 80.4457 94.8824 82.1855 97.0285 82.1855Z" fill="#455A64"/>
<path d="M91.7626 96.5571C91.9106 96.5571 92.0217 145.26 92.0217 205.337C92.0217 265.415 91.9106 314.13 91.7626 314.13C91.6146 314.13 91.4912 265.427 91.4912 205.337C91.4912 145.248 91.6146 96.5571 91.7626 96.5571Z" fill="#455A64"/>
<path d="M236.747 14.941H165.95C160.241 14.941 155.612 19.5693 155.612 25.2787V65.0875C155.612 70.7969 160.241 75.4252 165.95 75.4252H236.747C242.457 75.4252 247.085 70.7969 247.085 65.0875V25.2787C247.085 19.5693 242.457 14.941 236.747 14.941Z" fill="#FF725E"/>
<g opacity="0.3">
<path d="M236.749 14.941H165.952C160.243 14.941 155.614 19.5693 155.614 25.2787V65.0875C155.614 70.7969 160.243 75.4252 165.952 75.4252H236.749C242.459 75.4252 247.087 70.7969 247.087 65.0875V25.2787C247.087 19.5693 242.459 14.941 236.749 14.941Z" fill="black"/>
</g>
<path d="M230.607 14.941H159.809C154.1 14.941 149.472 19.5693 149.472 25.2787V65.0875C149.472 70.7969 154.1 75.4252 159.809 75.4252H230.607C236.316 75.4252 240.944 70.7969 240.944 65.0875V25.2787C240.944 19.5693 236.316 14.941 230.607 14.941Z" fill="#FF725E"/>
<path d="M185.318 41.7845L172.859 46.1639L185.318 50.5802V56.2919L166.099 49.2109V43.2032L185.368 36.0852L185.318 41.7845Z" fill="white"/>
<path d="M199.035 26.9811H205.647L192.743 63.7922H186.144L199.035 26.9811Z" fill="white"/>
<path d="M225.312 43.2032V49.2109L206.056 56.3289V50.6172L218.515 46.2009L206.056 41.7845V36.0852L225.312 43.2032Z" fill="white"/>
<path d="M352.043 256.656C355.074 254.819 358.34 253.399 361.752 252.437L363.75 242.827L379.984 242.543L382.328 252.067C385.778 252.912 389.097 254.219 392.197 255.953L396.712 250.574H400.413L412.095 261.849L407.013 270.238C408.843 273.277 410.262 276.546 411.232 279.959L420.842 281.957L421.126 298.192L411.59 300.536C410.74 303.982 409.438 307.301 407.716 310.405L413.095 318.608L401.807 330.303H398.106L393.419 325.208C390.388 327.046 387.122 328.465 383.71 329.427L381.711 339.037L365.465 339.333L363.133 329.797C359.684 328.95 356.365 327.643 353.264 325.911L345.061 331.29H341.36L333.366 320.027L338.449 311.638C336.621 308.602 335.202 305.338 334.23 301.93L324.62 299.919L324.336 283.684L333.872 281.353C334.715 277.904 336.017 274.585 337.745 271.484L332.367 263.28L339.941 251.586H343.642L352.043 256.681V256.656ZM360.678 278.294C358.293 280.775 356.696 283.908 356.089 287.297C355.483 290.686 355.894 294.178 357.272 297.333C358.649 300.488 360.93 303.165 363.827 305.024C366.724 306.884 370.107 307.843 373.549 307.781C376.991 307.719 380.338 306.638 383.166 304.676C385.994 302.713 388.178 299.957 389.44 296.754C390.703 293.552 390.989 290.047 390.261 286.682C389.533 283.317 387.824 280.244 385.351 277.849C383.703 276.258 381.758 275.008 379.626 274.169C377.495 273.33 375.219 272.919 372.929 272.961C370.638 273.002 368.379 273.494 366.279 274.409C364.179 275.324 362.28 276.644 360.691 278.294H360.678Z" fill="#E0E0E0"/>
<g opacity="0.3">
<path d="M352.041 256.656C355.072 254.819 358.338 253.4 361.75 252.437L363.748 242.827L379.982 242.543L382.326 252.067C385.776 252.912 389.095 254.22 392.195 255.953L396.71 250.574H400.411L412.094 261.85L407.011 270.238C408.841 273.278 410.26 276.546 411.23 279.959L420.84 281.958L421.124 298.192L411.588 300.536C410.738 303.982 409.436 307.301 407.714 310.405L413.093 318.608L401.805 330.303H398.104L393.417 325.208C390.386 327.046 387.12 328.465 383.708 329.427L381.71 339.037L365.463 339.333L363.131 329.797C359.682 328.95 356.363 327.643 353.262 325.911L345.059 331.29H341.358L333.364 320.027L338.447 311.638C336.619 308.602 335.2 305.338 334.228 301.93L324.618 299.919L324.334 283.685L333.87 281.353C334.713 277.905 336.015 274.585 337.743 271.484L332.365 263.281L339.939 251.586H343.64L352.041 256.681V256.656ZM360.676 278.294C358.291 280.775 356.694 283.909 356.087 287.297C355.481 290.686 355.893 294.178 357.27 297.333C358.647 300.488 360.928 303.165 363.825 305.024C366.722 306.884 370.105 307.843 373.547 307.781C376.989 307.719 380.336 306.639 383.164 304.676C385.992 302.714 388.176 299.957 389.438 296.754C390.701 293.552 390.987 290.047 390.259 286.682C389.531 283.317 387.822 280.244 385.349 277.85C383.701 276.258 381.756 275.008 379.624 274.169C377.493 273.33 375.217 272.919 372.927 272.961C370.636 273.002 368.377 273.494 366.277 274.409C364.177 275.324 362.278 276.644 360.689 278.294H360.676Z" fill="black"/>
</g>
<path d="M348.342 256.656C351.373 254.819 354.639 253.399 358.05 252.437L360.049 242.827L376.283 242.543L378.627 252.067C382.076 252.915 385.395 254.222 388.496 255.953L396.712 250.574L408.394 261.849L403.299 270.238C405.14 273.272 406.559 276.542 407.518 279.959L417.141 281.957L417.424 298.192L407.889 300.536C407.039 303.982 405.737 307.301 404.015 310.405L409.394 318.608L398.106 330.303L389.717 325.208C386.686 327.046 383.421 328.465 380.009 329.427L378.01 339.037L361.764 339.333L359.432 329.797C355.983 328.95 352.664 327.643 349.563 325.911L341.36 331.29L329.665 320.027L334.747 311.638C332.92 308.602 331.501 305.338 330.528 301.93L320.919 299.919L320.635 283.684L330.171 281.353C331.013 277.904 332.316 274.585 334.044 271.484L328.666 263.28L339.941 251.586L348.342 256.681V256.656ZM356.977 278.294C354.591 280.775 352.995 283.908 352.388 287.297C351.782 290.686 352.193 294.178 353.57 297.333C354.948 300.488 357.229 303.165 360.126 305.024C363.023 306.884 366.406 307.843 369.848 307.781C373.29 307.719 376.636 306.638 379.465 304.676C382.293 302.713 384.477 299.957 385.739 296.754C387.002 293.552 387.287 290.047 386.559 286.682C385.832 283.317 384.123 280.244 381.65 277.849C380.003 276.257 378.058 275.005 375.926 274.165C373.794 273.325 371.518 272.914 369.227 272.955C366.937 272.997 364.677 273.489 362.577 274.405C360.477 275.321 358.578 276.643 356.989 278.294H356.977Z" fill="#E0E0E0"/>
</g>
</svg>
