<svg width="95" height="82" viewBox="0 0 95 82" fill="none" xmlns="http://www.w3.org/2000/svg">
<g clip-path="url(#clip0_45_3)">
<path d="M66.3885 22.0581C63.7666 21.0572 61.1256 22.1148 60.0921 24.5887C59.9582 24.9287 59.8433 25.2875 59.7859 25.6463C59.805 24.4943 59.805 23.4745 59.7859 22.6813V21.0383C59.7859 20.9439 59.7094 20.8495 59.6137 20.8306C51.5949 19.5841 43.4614 19.5841 35.4426 20.8306C35.347 20.8495 35.2704 20.925 35.2704 21.0194C35.2704 21.0383 35.1939 23.0779 35.2321 25.8918C35.1939 25.4575 35.079 25.0231 34.9068 24.5887C33.8733 22.1148 31.2323 21.0572 28.6104 22.0581C25.357 23.3045 26.046 27.7804 26.3331 29.1401C26.9263 31.9351 28.687 34.4658 31.8639 37.1286C32.1701 37.3741 32.4763 37.6196 32.8016 37.884C33.0504 38.0729 33.2992 38.2617 33.5671 38.4506C34.4858 39.1115 35.3661 39.7348 35.768 40.7168C36.0168 41.3022 35.9594 42.0199 35.634 42.6053C35.2513 43.3041 34.4858 43.6251 33.7777 43.3796C33.3375 43.2285 32.4571 42.6809 32.6677 42.0577C32.7251 41.8688 32.7251 41.6422 32.6294 41.4722C32.5337 41.2834 32.3615 41.1512 32.1701 41.0945C31.9787 41.0379 31.749 41.0378 31.5768 41.1323C31.3854 41.2267 31.2515 41.3967 31.1749 41.5855C30.6773 43.0775 31.883 44.3805 33.2609 44.8527C33.5863 44.966 33.9308 45.0226 34.2752 45.0226C35.4235 45.0226 36.4569 44.3994 37.0311 43.3419C37.5095 42.492 37.6243 41.4911 37.3947 40.5846C37.5095 40.849 37.6244 41.0945 37.7583 41.3211C39.653 44.7771 42.7724 47.3455 45.1455 48.9319C45.0115 49.0641 44.935 49.2341 44.935 49.4229V50.1595C44.935 50.556 45.2603 50.896 45.6814 50.896H45.9302V57.6191L44.7053 59.6965H43.3465C43.2891 59.6965 43.2317 59.7154 43.1934 59.7532L40.495 62.4538C40.4567 62.4916 40.4376 62.5482 40.4376 62.6049V66.7785H39.3276C39.2128 66.7785 39.1171 66.8729 39.1171 66.9863V68.025C39.1171 68.1383 39.2128 68.2327 39.3276 68.2327H55.6904C55.8053 68.2327 55.9009 68.1383 55.9009 68.025V66.9863C55.9009 66.8729 55.8053 66.7785 55.6904 66.7785H54.5804V62.5671C54.5804 62.5104 54.5613 62.4538 54.523 62.416L51.7289 59.7721C51.6906 59.7343 51.6332 59.7154 51.5758 59.7154H50.3127L49.0879 57.638V50.9338H49.1453C49.5472 50.9338 49.8917 50.6127 49.8917 50.1972V49.4607C49.8917 49.3096 49.8534 49.1585 49.7577 49.0452C51.7863 47.7044 55.2694 45.0226 57.2789 41.34C57.3745 41.1512 57.4702 40.9434 57.5659 40.7357C57.3745 41.6044 57.5085 42.5487 57.9487 43.3607C58.5228 44.4183 59.5563 45.0415 60.7045 45.0415C61.049 45.0415 61.3935 44.9849 61.7188 44.8716C63.0968 44.3994 64.2833 43.0775 63.8048 41.6044C63.7474 41.4156 63.5943 41.2456 63.403 41.1512C63.2116 41.0567 63.0011 41.0378 62.8097 41.1134C62.5992 41.17 62.4461 41.3211 62.3504 41.4911C62.2547 41.6799 62.2356 41.8877 62.3121 42.0765C62.5226 42.6998 61.6423 43.2474 61.2021 43.3985C60.494 43.644 59.7285 43.323 59.3457 42.6242C59.0204 42.0199 58.963 41.3211 59.2118 40.7357C59.6137 39.7536 60.494 39.1304 61.4126 38.4694C61.6997 38.2617 61.9485 38.0917 62.1781 37.9029C62.5226 37.6385 62.8288 37.393 63.1159 37.1475C66.2928 34.5035 68.0534 31.9729 68.6467 29.159C68.9529 27.7993 69.6419 23.3045 66.3885 22.0581ZM34.5049 37.1852C34.2561 37.0153 34.0264 36.8453 33.7968 36.6565C33.4715 36.3921 33.1652 36.1654 32.8973 35.9388C30.8878 34.258 29.5099 32.6528 28.6679 31.0286C28.2277 29.5556 28.1703 28.007 28.5339 26.6661C28.7636 25.8163 29.3951 24.381 31.0027 24.3432C32.0744 24.3055 33.0887 25.0231 33.3758 26.0051C33.414 26.1562 33.4332 26.3073 33.4523 26.515C33.4714 26.9116 33.4523 27.2516 33.3375 27.6293C33.0696 28.0825 32.6294 28.4036 32.0744 28.5924C31.6534 28.7246 31.4428 29.1779 31.5768 29.5745C31.6534 29.7633 31.7873 29.9333 31.9787 30.0277C32.1701 30.1221 32.3806 30.141 32.5911 30.0655C33.6437 29.7256 34.4858 29.0079 34.9259 28.0448C35.1364 27.6104 35.2513 27.1194 35.2704 26.6284C35.2895 27.3838 35.3278 28.1958 35.3661 29.0268C35.6149 33.6915 36.189 37.2797 37.0885 39.7348C36.4569 38.5828 35.4235 37.8462 34.5049 37.1852ZM59.7668 26.855C59.8242 27.2705 59.9199 27.6671 60.0921 28.0259C60.5323 28.9701 61.3552 29.6878 62.4269 30.0466C62.6183 30.1221 62.848 30.1033 63.0393 30.0088C63.2307 29.9144 63.3647 29.7633 63.4412 29.5556C63.5752 29.1401 63.3647 28.7057 62.9436 28.5735C62.3887 28.3847 61.9485 28.0636 61.6806 27.6104C61.5849 27.2516 61.5466 26.9116 61.5657 26.4962C61.5849 26.3073 61.604 26.1373 61.6423 25.9863C61.9293 25.0231 62.9436 24.3055 64.0154 24.3244C65.6038 24.3621 66.2353 25.7974 66.4841 26.6472C66.8478 27.9881 66.8095 29.5178 66.3502 31.0098C65.5273 32.6339 64.1493 34.2391 62.1207 35.9199C61.8528 36.1466 61.5466 36.3921 61.2212 36.6376C60.9916 36.8264 60.7428 36.9964 60.494 37.1664C59.6137 37.7896 58.6376 38.5072 58.0061 39.5837C59.2501 36.071 59.6519 30.8776 59.7668 26.855Z" fill="#FFB526"/>
<path d="M74.3895 2.05857C76.5138 3.96599 76.8965 6.96875 76.8965 6.96875C76.8965 6.96875 73.8345 6.87432 71.7102 4.94802C69.5859 3.02172 69.2031 0.0378418 69.2031 0.0378418C69.2031 0.0378418 72.2652 0.151154 74.3895 2.05857Z" fill="#FFB526"/>
<path d="M59.442 72.5573C57.6048 74.8802 57.5091 77.6186 57.5282 77.6186C57.5282 77.6563 61.3749 76.5988 63.0973 74.0304C64.8197 71.4997 63.9777 68.8936 64.0159 68.8936C63.9777 68.9313 61.2601 70.2533 59.442 72.5573Z" fill="#FFB526"/>
<path d="M62.1216 80.5834C58.7533 80.0169 57.4902 77.5051 57.4902 77.524C57.5285 77.5429 61.1456 76.5042 64.265 76.863C67.4227 77.2407 69.26 79.167 69.26 79.1859C69.3174 79.2048 65.5472 81.1689 62.1216 80.5834Z" fill="#FFB526"/>
<path d="M66.1023 69.6677C64.8392 72.2172 65.2985 74.8611 65.3176 74.8611C65.3176 74.8989 68.705 73.237 69.8341 70.4797C70.9824 67.7603 69.681 65.3618 69.7002 65.3618C69.7002 65.3996 67.3654 67.137 66.1023 69.6677Z" fill="#FFB526"/>
<path d="M70.236 76.9574C66.9443 76.9763 65.2793 74.7478 65.2793 74.7667C65.3176 74.7667 68.4944 73.1803 71.5182 73.0104C74.5803 72.8593 76.7237 74.4079 76.7237 74.4268C76.762 74.4457 73.5468 76.9574 70.236 76.9574Z" fill="#FFB526"/>
<path d="M71.8809 65.7585C71.1728 68.4213 72.1106 70.9141 72.1488 70.9141C72.1488 70.9519 75.0387 68.7801 75.6319 65.9095C76.2252 63.0767 74.5219 60.9805 74.5411 60.9805C74.5219 60.9994 72.589 63.0956 71.8809 65.7585Z" fill="#FFB526"/>
<path d="M77.2213 72.1228C74.0827 72.6894 72.0732 70.8008 72.0732 70.8386C72.1115 70.8386 74.8099 68.7801 77.6998 68.1002C80.6087 67.4204 82.9626 68.5724 82.9818 68.5913C83.0009 68.5724 80.379 71.5562 77.2213 72.1228Z" fill="#FFB526"/>
<path d="M76.6852 60.9805C76.4938 63.7 77.8718 65.9474 77.8909 65.9474C77.8909 65.9851 80.2831 63.379 80.3405 60.5084C80.398 57.6567 78.3885 55.9004 78.4076 55.9004C78.4076 55.9004 76.8957 58.2799 76.6852 60.9805Z" fill="#FFB526"/>
<path d="M83.0199 66.2496C80.0918 67.3261 77.8145 65.853 77.8145 65.8719C77.8527 65.8719 80.0727 63.398 82.752 62.2459C85.4504 61.0939 87.9575 61.7927 87.9766 61.8116C87.9958 61.8116 85.9671 65.1732 83.0199 66.2496Z" fill="#FFB526"/>
<path d="M80.4942 55.5039C80.7813 58.1856 82.5228 60.1308 82.542 60.1308C82.5611 60.1685 84.4175 57.2224 83.9582 54.4085C83.518 51.6135 81.2406 50.2537 81.2597 50.2349C81.298 50.2726 80.2263 52.841 80.4942 55.5039Z" fill="#FFB526"/>
<path d="M87.6134 59.5453C84.9533 61.0939 82.4653 60.0552 82.4845 60.0741C82.5036 60.0552 84.2452 57.2791 86.6565 55.6927C89.1062 54.1063 91.6706 54.3518 91.6898 54.3707C91.7089 54.3518 90.2927 57.9778 87.6134 59.5453Z" fill="#FFB526"/>
<path d="M83.2885 49.4982C84.0158 52.0666 86.0827 53.6718 86.0827 53.6529C86.1018 53.6907 87.4223 50.4991 86.5037 47.7985C85.6042 45.1357 83.1546 44.1914 83.1737 44.1914C83.1737 44.2292 82.5613 46.9487 83.2885 49.4982Z" fill="#FFB526"/>
<path d="M90.9249 52.1987C88.59 54.1817 85.9873 53.5962 85.9873 53.6151C86.0064 53.5962 87.2313 50.5746 89.3173 48.5916C91.4416 46.6087 94.006 46.382 94.006 46.4009C94.0635 46.4009 93.2979 50.1969 90.9249 52.1987Z" fill="#FFB526"/>
<path d="M84.991 43.1148C86.1392 45.5133 88.4166 46.7031 88.4358 46.7031C88.4549 46.7219 89.2013 43.3604 87.8616 40.8864C86.522 38.4313 83.9575 37.9403 83.9767 37.9214C83.9958 37.9403 83.8618 40.7353 84.991 43.1148Z" fill="#FFB526"/>
<path d="M92.934 44.4369C90.9819 46.7976 88.3218 46.6842 88.3409 46.7031C88.3601 46.6842 89.049 43.5115 90.7714 41.1886C92.513 38.8468 94.9817 38.1859 95.0009 38.2047C95.02 38.167 94.9243 42.0573 92.934 44.4369Z" fill="#FFB526"/>
<path d="M85.5846 36.543C87.1156 38.6959 89.5653 39.4891 89.5653 39.4702C89.5844 39.4891 89.7566 36.052 88.0151 33.8235C86.2927 31.6139 83.69 31.5951 83.7091 31.5762C83.7282 31.5951 84.0727 34.3901 85.5846 36.543Z" fill="#FFB526"/>
<path d="M93.5835 36.4108C92.0716 39.0925 89.4497 39.4325 89.4689 39.4513C89.488 39.4325 89.622 36.1842 90.9042 33.578C92.2056 30.953 94.5021 29.8576 94.5212 29.8765C94.5404 29.8387 95.1336 33.7102 93.5835 36.4108Z" fill="#FFB526"/>
<path d="M85.0298 29.9141C86.9244 31.7838 89.4315 32.1237 89.4506 32.1048C89.4697 32.1237 89.0487 28.6866 86.9244 26.7792C84.8384 24.8906 82.2739 25.3061 82.2931 25.3061C82.3122 25.3061 83.1734 28.0445 85.0298 29.9141Z" fill="#FFB526"/>
<path d="M92.8381 28.3656C91.8238 31.2929 89.3358 32.1049 89.355 32.1049C89.3741 32.0861 88.9339 28.8378 89.7186 26.0239C90.5224 23.1911 92.5701 21.6802 92.5893 21.6802C92.5893 21.6614 93.8715 25.4195 92.8381 28.3656Z" fill="#FFB526"/>
<path d="M83.2688 23.3988C85.4697 24.9474 87.9958 24.8341 87.9958 24.8152C88.0341 24.8341 86.9624 21.4725 84.5128 19.9428C82.1014 18.4131 79.6709 19.2818 79.6709 19.2629C79.7092 19.2629 81.1062 21.8691 83.2688 23.3988Z" fill="#FFB526"/>
<path d="M90.6366 20.4905C90.1964 23.5877 87.8999 24.8341 87.919 24.853C87.9381 24.8341 86.9047 21.6803 87.1152 18.6964C87.3449 15.7125 89.0481 13.8428 89.0673 13.8428C89.0864 13.824 91.0959 17.3555 90.6366 20.4905Z" fill="#FFB526"/>
<path d="M80.2836 17.1665C82.7524 18.3374 85.2021 17.7898 85.2021 17.7709C85.2403 17.7898 83.5371 14.5981 80.8004 13.465C78.1019 12.3508 75.8628 13.6161 75.882 13.5972C75.9202 13.6161 77.834 16.0145 80.2836 17.1665Z" fill="#FFB526"/>
<path d="M86.925 12.9741C87.1164 16.1657 85.0878 17.8087 85.1261 17.8276C85.1261 17.8087 83.4994 14.8059 83.0975 11.7843C82.6956 8.72487 83.9778 6.55306 83.9969 6.55306C83.9969 6.51529 86.7528 9.74468 86.925 12.9741Z" fill="#FFB526"/>
<path d="M76.0164 11.4066C78.7149 12.1809 81.0114 11.1989 81.0305 11.18C81.0688 11.18 78.6957 8.25276 75.7102 7.57289C72.763 6.89302 70.8301 8.55493 70.8301 8.53604C70.8492 8.51715 73.3371 10.6323 76.0164 11.4066Z" fill="#FFB526"/>
<path d="M81.6623 6.0243C82.5618 9.21591 80.8968 11.2366 80.935 11.2366C80.935 11.2178 78.6959 8.47939 77.5859 5.45774C76.4951 2.43609 77.2414 -0.000114837 77.2797 -0.000114837C77.2797 -0.0378854 80.7819 2.79491 81.6623 6.0243Z" fill="#FFB526"/>
<path d="M46.6963 78.4683L46.7537 77.8828C51.6721 78.3172 56.5714 77.7884 61.3367 76.2776C65.968 74.8045 70.2549 72.5005 74.0825 69.3844C82.0247 62.9445 87.1344 53.7663 88.4932 43.5116C89.6032 35.1265 89.0291 27.6479 86.79 21.3024C84.3977 14.4848 80.1109 9.14029 74.0825 5.43877L74.3887 4.94775C80.5319 8.72482 84.8953 14.1638 87.345 21.1136C89.6032 27.5535 90.1965 35.1265 89.0674 43.606C87.6894 53.9929 82.5031 63.3222 74.4461 69.8566C70.5611 73.0104 66.2168 75.3522 61.5089 76.8441C56.6862 78.3549 51.6913 78.9026 46.6963 78.4683Z" fill="#FFB526"/>
<path d="M20.6115 2.05833C18.4872 3.96574 18.1045 6.9685 18.1045 6.9685C18.1045 6.9685 21.1665 6.87408 23.2908 4.94778C25.4151 3.04036 25.7979 0.0375977 25.7979 0.0375977C25.7979 0.0375977 22.7358 0.150909 20.6115 2.05833Z" fill="#FFB526"/>
<path d="M35.558 72.5573C37.3953 74.8802 37.4909 77.6186 37.4718 77.6186C37.4718 77.6563 33.6251 76.5988 31.9027 74.0304C30.1803 71.4997 31.0224 68.8936 30.9841 68.8936C31.0224 68.9313 33.7399 70.2533 35.558 72.5573Z" fill="#FFB526"/>
<path d="M32.8783 80.5834C36.2466 80.0169 37.5096 77.5051 37.5096 77.524C37.4714 77.5429 33.8543 76.5042 30.7349 76.863C27.5771 77.2407 25.7399 79.167 25.7399 79.1859C25.6825 79.2048 29.4526 81.1689 32.8783 80.5834Z" fill="#FFB526"/>
<path d="M28.8973 69.6679C30.1604 72.2174 29.7011 74.8614 29.6819 74.8614C29.6819 74.8991 26.2945 73.2372 25.1654 70.48C24.0172 67.7605 25.3185 65.3621 25.2994 65.3621C25.2994 65.3998 27.6342 67.1373 28.8973 69.6679Z" fill="#FFB526"/>
<path d="M24.7644 76.9576C28.0561 76.9765 29.7211 74.7481 29.7211 74.767C29.6828 74.767 26.506 73.1806 23.4822 73.0106C20.4201 72.8595 18.2767 74.4081 18.2767 74.427C18.2384 74.4459 21.4536 76.9576 24.7644 76.9576Z" fill="#FFB526"/>
<path d="M23.1187 65.7585C23.8268 68.4213 22.8891 70.9141 22.8508 70.9141C22.8508 70.9519 19.961 68.7801 19.3677 65.9095C18.7744 63.0767 20.4777 60.9805 20.4586 60.9805C20.4777 60.9994 22.4106 63.0956 23.1187 65.7585Z" fill="#FFB526"/>
<path d="M17.7791 72.1228C20.9177 72.6894 22.9272 70.8008 22.9272 70.8386C22.8889 70.8386 20.1905 68.7801 17.3007 68.1002C14.3917 67.4204 12.0378 68.5724 12.0187 68.5913C11.9995 68.5724 14.6214 71.5562 17.7791 72.1228Z" fill="#FFB526"/>
<path d="M18.3147 60.9808C18.5061 63.7003 17.1282 65.9476 17.109 65.9476C17.109 65.9854 14.7168 63.3792 14.6594 60.5086C14.602 57.657 16.6115 55.9006 16.5923 55.9006C16.5923 55.9006 18.1042 58.2802 18.3147 60.9808Z" fill="#FFB526"/>
<path d="M11.9803 66.2499C14.9083 67.3263 17.1857 65.8533 17.1857 65.8722C17.1475 65.8722 14.9275 63.3982 12.2482 62.2462C9.54976 61.0942 7.04271 61.7929 7.02357 61.8118C7.00444 61.8118 9.0139 65.1734 11.9803 66.2499Z" fill="#FFB526"/>
<path d="M14.5067 55.5039C14.2196 58.1856 12.4781 60.1308 12.459 60.1308C12.4398 60.1685 10.5835 57.2224 11.0428 54.4085C11.4829 51.6135 13.7603 50.2537 13.7412 50.2349C13.7029 50.2726 14.7746 52.841 14.5067 55.5039Z" fill="#FFB526"/>
<path d="M7.38709 59.5453C10.0472 61.0939 12.5352 60.0552 12.516 60.0741C12.4969 60.0552 10.7553 57.2791 8.34398 55.6927C5.89434 54.1063 3.32988 54.3518 3.31074 54.3707C3.2916 54.3518 4.7078 57.9778 7.38709 59.5453Z" fill="#FFB526"/>
<path d="M11.7127 49.4982C10.9854 52.0666 8.91856 53.6718 8.91856 53.6529C8.89942 53.6907 7.57891 50.4991 8.49753 47.7985C9.397 45.1357 11.8466 44.1914 11.8275 44.1914C11.8275 44.2292 12.4399 46.9487 11.7127 49.4982Z" fill="#FFB526"/>
<path d="M4.07732 52.1987C6.41213 54.1817 9.01487 53.5962 9.01487 53.6151C8.99573 53.5962 7.77092 50.5746 5.6849 48.5916C3.5606 46.6087 0.996136 46.382 0.996136 46.4009C0.938722 46.4009 1.70423 50.1969 4.07732 52.1987Z" fill="#FFB526"/>
<path d="M10.0091 43.1151C8.86082 45.5135 6.58342 46.7033 6.56429 46.7033C6.54515 46.7222 5.79877 43.3606 7.13842 40.8866C8.47807 38.4315 11.0425 37.9405 11.0234 37.9216C11.0043 37.9405 11.1382 40.7355 10.0091 43.1151Z" fill="#FFB526"/>
<path d="M2.06675 44.437C4.01881 46.7976 6.67896 46.6843 6.65982 46.7032C6.64068 46.6843 5.95172 43.5116 4.22932 41.1887C2.48778 38.828 0.0190086 38.1671 -0.000129146 38.1859C-0.0192669 38.1671 0.0764222 42.0574 2.06675 44.437Z" fill="#FFB526"/>
<path d="M9.41587 36.543C7.88485 38.6959 5.43521 39.4891 5.43521 39.4702C5.41607 39.4891 5.24383 36.052 6.98537 33.8235C8.70777 31.6139 11.3105 31.5951 11.2914 31.5762C11.2722 31.5951 10.9278 34.3901 9.41587 36.543Z" fill="#FFB526"/>
<path d="M1.41654 36.4108C2.92843 39.0925 5.55031 39.4325 5.53117 39.4513C5.51203 39.4325 5.37807 36.1842 4.09583 33.578C2.79446 30.953 0.49793 29.8576 0.478792 29.8765C0.459654 29.8387 -0.133618 33.7102 1.41654 36.4108Z" fill="#FFB526"/>
<path d="M9.97027 29.9141C8.07563 31.7838 5.56858 32.1237 5.54944 32.1048C5.5303 32.1237 5.95133 28.6866 8.07563 26.7792C10.1616 24.8906 12.7261 25.3061 12.707 25.3061C12.6878 25.3061 11.8266 28.0445 9.97027 29.9141Z" fill="#FFB526"/>
<path d="M2.16239 28.3656C3.1767 31.2929 5.66461 32.1049 5.64547 32.1049C5.62633 32.0861 6.0665 28.8378 5.28185 26.0239C4.47807 23.1911 2.43032 21.6802 2.41118 21.6802C2.41118 21.6614 1.12895 25.4195 2.16239 28.3656Z" fill="#FFB526"/>
<path d="M11.731 23.3989C9.53011 24.9475 7.00392 24.8342 7.00392 24.8153C6.96564 24.8342 8.03736 21.4726 10.487 19.9429C12.8984 18.4132 15.3289 19.263 15.3097 19.263C15.2906 19.263 13.8935 21.8692 11.731 23.3989Z" fill="#FFB526"/>
<path d="M4.36315 20.4905C4.80332 23.5877 7.09985 24.8341 7.08071 24.853C7.06158 24.8341 8.09502 21.6802 7.8845 18.6964C7.65485 15.7125 5.95158 13.8428 5.93245 13.8428C5.91331 13.824 3.90384 17.3555 4.36315 20.4905Z" fill="#FFB526"/>
<path d="M14.7169 17.1665C12.2481 18.3374 9.79848 17.7898 9.79848 17.7709C9.76021 17.7898 11.4635 14.5981 14.2002 13.465C16.8986 12.3508 19.1377 13.6161 19.1186 13.5972C19.0803 13.6161 17.1665 16.0145 14.7169 17.1665Z" fill="#FFB526"/>
<path d="M8.07622 12.9741C7.88484 16.1657 9.91344 17.8087 9.87517 17.8276C9.87517 17.8087 11.5019 14.8059 11.9038 11.7843C12.3057 8.72487 11.0234 6.55306 11.0043 6.55306C11.0043 6.51529 8.24846 9.74468 8.07622 12.9741Z" fill="#FFB526"/>
<path d="M18.9853 11.4066C16.2868 12.1809 13.9903 11.1989 13.9712 11.18C13.9329 11.18 16.306 8.25276 19.2915 7.57289C22.2387 6.89302 24.1716 8.55493 24.1716 8.53604C24.1525 8.51715 21.6646 10.6323 18.9853 11.4066Z" fill="#FFB526"/>
<path d="M13.3207 6.0243C12.4212 9.21591 14.0862 11.2366 14.0479 11.2366C14.0479 11.2178 16.287 8.47939 17.397 5.45774C18.507 2.43609 17.7606 -0.000114837 17.7224 -0.000114837C17.7224 -0.0378854 14.2202 2.79491 13.3207 6.0243Z" fill="#FFB526"/>
<path d="M48.3042 78.4683L48.2468 77.8828C43.3284 78.3172 38.4291 77.7884 33.6638 76.2776C29.0325 74.8045 24.7456 72.5005 20.9181 69.3844C12.9759 62.9445 7.86609 53.7663 6.5073 43.5116C5.39731 35.1265 5.97145 27.6479 8.21057 21.3024C10.6028 14.4848 14.8897 9.14029 20.9181 5.43877L20.6119 4.94775C14.4686 8.72482 10.1052 14.1638 7.65557 21.1136C5.39731 27.5535 4.80404 35.1265 5.93317 43.606C7.31109 53.9929 12.4974 63.3222 20.5544 69.8566C24.4394 73.0104 28.7837 75.3522 33.4916 76.8441C38.3143 78.3549 43.3093 78.9026 48.3042 78.4683Z" fill="#FFB526"/>
<path d="M47.328 75.4656L42.8115 78.7327L47.328 81.9999L51.8254 78.7327L47.328 75.4656Z" fill="#FFB526"/>
</g>
<defs>
<clipPath id="clip0_45_3">
<rect width="95" height="82" fill="white"/>
</clipPath>
</defs>
</svg>
