<svg width="42" height="42" viewBox="0 0 42 42" fill="none" xmlns="http://www.w3.org/2000/svg">
<mask id="mask0_94_7" style="mask-type:alpha" maskUnits="userSpaceOnUse" x="0" y="0" width="42" height="42">
<rect width="42" height="42" fill="#D9D9D9"/>
</mask>
<g mask="url(#mask0_94_7)">
</g>
<g clip-path="url(#clip0_94_7)">
<path d="M26.3349 9.80913C24.9503 9.80913 23.5968 10.2068 22.4456 10.952C21.2944 11.6971 20.3971 12.7562 19.8673 13.9953C19.3374 15.2344 19.1988 16.5978 19.4689 17.9132C19.739 19.2287 20.4057 20.4369 21.3848 21.3853C22.3638 22.3337 23.6112 22.9795 24.9691 23.2412C26.3271 23.5028 27.7346 23.3685 29.0138 22.8553C30.293 22.342 31.3863 21.4729 32.1555 20.3577C32.9247 19.2426 33.3353 17.9315 33.3353 16.5903C33.3333 14.7924 32.5952 13.0687 31.2827 11.7974C29.9703 10.5261 28.1909 9.81105 26.3349 9.80913ZM26.1757 16.0008L26.8123 16.1931C27.1386 16.2903 27.424 16.4866 27.6263 16.753C27.8286 17.0193 27.9371 17.3416 27.9359 17.6723V17.8809C27.9355 18.2358 27.8095 18.5799 27.579 18.8558C27.3485 19.1317 27.0274 19.3228 26.6691 19.3973V19.5605C26.6633 19.6938 26.6046 19.8197 26.5053 19.912C26.4059 20.0043 26.2736 20.0558 26.1359 20.0558C25.9982 20.0558 25.8659 20.0043 25.7665 19.912C25.6672 19.8197 25.6085 19.6938 25.6027 19.5605V19.2585C25.3417 19.1281 25.1228 18.9307 24.9699 18.6879C24.817 18.4451 24.736 18.1662 24.7357 17.8818C24.7327 17.8121 24.7443 17.7426 24.7697 17.6774C24.7951 17.6122 24.8339 17.5526 24.8837 17.5023C24.9335 17.452 24.9933 17.412 25.0595 17.3846C25.1257 17.3573 25.1969 17.3432 25.2689 17.3432C25.3409 17.3432 25.4121 17.3573 25.4783 17.3846C25.5445 17.412 25.6043 17.452 25.6541 17.5023C25.7039 17.5526 25.7427 17.6122 25.7681 17.6774C25.7936 17.7426 25.8051 17.8121 25.8021 17.8818C25.8079 18.015 25.8666 18.1409 25.9659 18.2332C26.0653 18.3255 26.1976 18.3771 26.3353 18.3771C26.473 18.3771 26.6053 18.3255 26.7047 18.2332C26.8041 18.1409 26.8628 18.015 26.8685 17.8818V17.6723C26.869 17.562 26.8328 17.4545 26.7654 17.3657C26.6979 17.2769 26.6028 17.2114 26.494 17.1789L25.8574 16.9866C25.5311 16.8894 25.2457 16.6931 25.0434 16.4267C24.8411 16.1604 24.7326 15.8381 24.7338 15.5074V15.2979C24.735 14.9773 24.8386 14.6649 25.0304 14.4037C25.2221 14.1424 25.4927 13.945 25.8049 13.8387V13.6183C25.8019 13.5486 25.8135 13.4791 25.8389 13.4139C25.8643 13.3487 25.9031 13.2891 25.9529 13.2388C26.0028 13.1885 26.0626 13.1485 26.1287 13.1211C26.1949 13.0938 26.2662 13.0797 26.3381 13.0797C26.4101 13.0797 26.4813 13.0938 26.5475 13.1211C26.6137 13.1485 26.6735 13.1885 26.7233 13.2388C26.7731 13.2891 26.8119 13.3487 26.8373 13.4139C26.8628 13.4791 26.8743 13.5486 26.8713 13.6183V13.8359C27.183 13.9432 27.4527 14.1411 27.6437 14.4027C27.8346 14.6643 27.9373 14.9767 27.9377 15.297C27.932 15.4302 27.8733 15.5562 27.7739 15.6485C27.6745 15.7408 27.5422 15.7923 27.4045 15.7923C27.2669 15.7923 27.1345 15.7408 27.0352 15.6485C26.9358 15.5562 26.8771 15.4302 26.8713 15.297C26.8743 15.2274 26.8628 15.1578 26.8373 15.0926C26.8119 15.0274 26.7731 14.9679 26.7233 14.9176C26.6735 14.8672 26.6137 14.8272 26.5475 14.7999C26.4813 14.7725 26.4101 14.7584 26.3381 14.7584C26.2662 14.7584 26.1949 14.7725 26.1287 14.7999C26.0626 14.8272 26.0028 14.8672 25.9529 14.9176C25.9031 14.9679 25.8643 15.0274 25.8389 15.0926C25.8135 15.1578 25.8019 15.2274 25.8049 15.297V15.5065C25.8039 15.6172 25.8398 15.7253 25.9073 15.8147C25.9747 15.9041 26.0702 15.97 26.1794 16.0026L26.1757 16.0008ZM31.2503 35.9652C30.5464 35.9599 29.8731 35.6856 29.3771 35.2018C28.881 34.7181 28.6023 34.0641 28.6016 33.3822V24.7527C28.6016 24.6761 28.5841 24.6005 28.5503 24.5313C28.5164 24.4621 28.4671 24.4011 28.4059 24.3526C28.3446 24.3042 28.2731 24.2695 28.1963 24.2512C28.1195 24.2329 28.0395 24.2313 27.9621 24.2467C26.7891 24.4806 25.577 24.4586 24.4138 24.1824C23.2507 23.9061 22.1656 23.3825 21.2373 22.6495C20.309 21.9166 19.5607 20.9926 19.0469 19.9447C18.533 18.8969 18.2664 17.7513 18.2664 16.5912C18.2664 15.4311 18.533 14.2856 19.0469 13.2377C19.5607 12.1898 20.309 11.2658 21.2373 10.5329C22.1656 9.7999 23.2507 9.2763 24.4138 9.00005C25.577 8.72381 26.7891 8.70184 27.9621 8.93575C28.0395 8.9511 28.1195 8.94955 28.1963 8.93122C28.2731 8.9129 28.3446 8.87825 28.4059 8.8298C28.4671 8.78135 28.5164 8.72031 28.5503 8.6511C28.5841 8.5819 28.6016 8.50626 28.6016 8.42968V8.06691C28.6016 7.51873 28.3767 6.993 27.9766 6.60538C27.5764 6.21776 27.0337 6 26.4678 6H9.13375C8.56785 6 8.02512 6.21776 7.62496 6.60538C7.22481 6.993 7 7.51873 7 8.06691V33.3831C7 34.3419 7.393 35.2615 8.09262 35.9397C8.79224 36.6179 9.74124 36.9993 10.731 37H31.269C31.3426 37 31.4154 36.9852 31.4828 36.9566C31.5503 36.928 31.6109 36.8862 31.6608 36.8338C31.7108 36.7814 31.749 36.7196 31.7731 36.6522C31.7972 36.5848 31.8066 36.5133 31.8008 36.4422C31.7868 36.3108 31.7225 36.1891 31.6207 36.1012C31.5188 36.0133 31.3867 35.9654 31.2503 35.967V35.9652ZM12.2 13.5566H16.7334C16.871 13.5622 17.001 13.619 17.0963 13.7153C17.1916 13.8115 17.2448 13.9397 17.2448 14.0731C17.2448 14.2065 17.1916 14.3347 17.0963 14.4309C17.001 14.5272 16.871 14.584 16.7334 14.5896H12.2C12.1281 14.5925 12.0564 14.5813 11.989 14.5567C11.9217 14.532 11.8602 14.4945 11.8083 14.4462C11.7564 14.398 11.715 14.34 11.6868 14.2759C11.6586 14.2118 11.644 14.1428 11.644 14.0731C11.644 14.0034 11.6586 13.9344 11.6868 13.8703C11.715 13.8062 11.7564 13.7482 11.8083 13.7C11.8602 13.6517 11.9217 13.6142 11.989 13.5895C12.0564 13.5649 12.1281 13.5537 12.2 13.5566ZM12.2 19.3692H16.7334C16.871 19.3747 17.001 19.4316 17.0963 19.5278C17.1916 19.6241 17.2448 19.7523 17.2448 19.8857C17.2448 20.019 17.1916 20.1472 17.0963 20.2435C17.001 20.3397 16.871 20.3966 16.7334 20.4022H12.2C12.1281 20.4051 12.0564 20.3939 11.989 20.3692C11.9217 20.3446 11.8602 20.307 11.8083 20.2588C11.7564 20.2105 11.715 20.1526 11.6868 20.0885C11.6586 20.0244 11.644 19.9554 11.644 19.8857C11.644 19.8159 11.6586 19.747 11.6868 19.6828C11.715 19.6187 11.7564 19.5608 11.8083 19.5125C11.8602 19.4643 11.9217 19.4267 11.989 19.4021C12.0564 19.3774 12.1281 19.3662 12.2 19.3692ZM23.4006 31.64H12.2C12.1281 31.6429 12.0564 31.6317 11.989 31.6071C11.9217 31.5824 11.8602 31.5449 11.8083 31.4966C11.7564 31.4484 11.715 31.3904 11.6868 31.3263C11.6586 31.2622 11.644 31.1932 11.644 31.1235C11.644 31.0538 11.6586 30.9848 11.6868 30.9207C11.715 30.8566 11.7564 30.7986 11.8083 30.7504C11.8602 30.7021 11.9217 30.6646 11.989 30.6399C12.0564 30.6153 12.1281 30.6041 12.2 30.607H23.4015C23.4734 30.6041 23.5452 30.6153 23.6125 30.6399C23.6798 30.6646 23.7413 30.7021 23.7933 30.7504C23.8452 30.7986 23.8865 30.8566 23.9148 30.9207C23.943 30.9848 23.9575 31.0538 23.9575 31.1235C23.9575 31.1932 23.943 31.2622 23.9148 31.3263C23.8865 31.3904 23.8452 31.4484 23.7933 31.4966C23.7413 31.5449 23.6798 31.5824 23.6125 31.6071C23.5452 31.6317 23.4725 31.6429 23.4006 31.64ZM23.4006 26.2147H12.2C12.1281 26.2176 12.0564 26.2064 11.989 26.1818C11.9217 26.1572 11.8602 26.1196 11.8083 26.0713C11.7564 26.0231 11.715 25.9652 11.6868 25.901C11.6586 25.8369 11.644 25.7679 11.644 25.6982C11.644 25.6285 11.6586 25.5595 11.6868 25.4954C11.715 25.4313 11.7564 25.3733 11.8083 25.3251C11.8602 25.2768 11.9217 25.2393 11.989 25.2146C12.0564 25.19 12.1281 25.1788 12.2 25.1817H23.4015C23.4734 25.1788 23.5452 25.19 23.6125 25.2146C23.6798 25.2393 23.7413 25.2768 23.7933 25.3251C23.8452 25.3733 23.8865 25.4313 23.9148 25.4954C23.943 25.5595 23.9575 25.6285 23.9575 25.6982C23.9575 25.7679 23.943 25.8369 23.9148 25.901C23.8865 25.9652 23.8452 26.0231 23.7933 26.0713C23.7413 26.1196 23.6798 26.1572 23.6125 26.1818C23.5452 26.2064 23.4725 26.2176 23.4006 26.2147ZM34.9991 32.6068C34.9991 33.2915 34.7183 33.9481 34.2185 34.4323C33.7187 34.9164 33.0408 35.1884 32.334 35.1884C31.6272 35.1884 30.9493 34.9164 30.4495 34.4323C29.9497 33.9481 29.6689 33.2915 29.6689 32.6068C29.6689 27.8345 29.6689 25.9753 29.6689 25.2388C29.6694 25.1021 29.7259 24.9712 29.8259 24.8748C29.926 24.7784 30.0614 24.7244 30.2026 24.7246H32.8681C33.3976 24.7244 33.9083 24.915 34.3008 25.2593C34.6933 25.6036 34.9395 26.077 34.9916 26.5875L34.9991 32.6068Z" fill="#06033E"/>
</g>
<defs>
<clipPath id="clip0_94_7">
<rect width="28" height="31" fill="white" transform="translate(7 6)"/>
</clipPath>
</defs>
</svg>
