<svg width="42" height="42" viewBox="0 0 42 42" fill="none" xmlns="http://www.w3.org/2000/svg">
<mask id="mask0_94_9" style="mask-type:alpha" maskUnits="userSpaceOnUse" x="0" y="0" width="42" height="42">
<rect width="42" height="42" fill="#D9D9D9"/>
</mask>
<g mask="url(#mask0_94_9)">
</g>
<g clip-path="url(#clip0_94_9)">
<path d="M29.8058 12.7522C31.753 12.7522 33.3314 11.1882 33.3314 9.25879C33.3314 7.32944 31.753 5.76538 29.8058 5.76538C27.8587 5.76538 26.2803 7.32944 26.2803 9.25879C26.2803 11.1882 27.8587 12.7522 29.8058 12.7522Z" fill="#06033E"/>
<path d="M38.7893 23.336L33.3614 14.1121C33.2381 13.9025 33.0664 13.7249 32.8605 13.5938C32.6545 13.4627 32.4202 13.3818 32.1766 13.3577H27.5586C27.315 13.3818 27.0806 13.4627 26.8747 13.5938C26.6687 13.7249 26.497 13.9025 26.3737 14.1121L22.2856 21.0647L17.7478 13.3466C17.6108 13.1138 17.4143 12.9207 17.1782 12.7868C16.9421 12.6529 16.6745 12.583 16.4025 12.584H16.3726H12.0121H11.9822C11.7102 12.583 11.4426 12.6529 11.2065 12.7868C10.9704 12.9207 10.7739 13.1138 10.6369 13.3466L5.21095 22.5706C5.10094 22.7453 5.02745 22.9401 4.99483 23.1434C4.96221 23.3468 4.97113 23.5546 5.02105 23.7545C5.07098 23.9543 5.1609 24.1423 5.28548 24.3071C5.41006 24.4719 5.56676 24.6102 5.7463 24.7139C5.92584 24.8176 6.12457 24.8845 6.33069 24.9107C6.53681 24.9368 6.74614 24.9217 6.94626 24.8663C7.14638 24.8108 7.33323 24.7161 7.49572 24.5877C7.65821 24.4593 7.79304 24.3 7.89221 24.119L10.2852 20.0515V21.7941L9.21512 29.4391C9.19363 29.5909 9.20526 29.7455 9.24924 29.8925C9.29321 30.0394 9.36851 30.1753 9.47003 30.291C9.57155 30.4067 9.69694 30.4994 9.83773 30.563C9.97852 30.6265 10.1314 30.6594 10.2861 30.6593V35.3397C10.2815 35.7654 10.4432 36.1763 10.7374 36.4865C11.0317 36.7966 11.4356 36.982 11.8647 37.0037C12.0853 37.0117 12.3053 36.9754 12.5115 36.8969C12.7176 36.8185 12.9056 36.6997 13.0642 36.5474C13.2228 36.3952 13.3487 36.2128 13.4344 36.0111C13.52 35.8095 13.5636 35.5927 13.5626 35.3739V30.6593H14.8566V35.3397C14.8519 35.7654 15.0137 36.1763 15.3079 36.4865C15.6021 36.7966 16.0061 36.982 16.4351 37.0037C16.6557 37.0115 16.8756 36.9751 17.0816 36.8967C17.2877 36.8182 17.4756 36.6993 17.6341 36.5471C17.7926 36.3949 17.9184 36.2125 18.004 36.0109C18.0896 35.8093 18.1332 35.5926 18.1321 35.3739V30.6593C18.2867 30.6593 18.4394 30.6265 18.58 30.5631C18.7207 30.4996 18.846 30.4071 18.9475 30.2916C19.0489 30.1762 19.1243 30.0405 19.1684 29.8938C19.2125 29.747 19.2244 29.5926 19.2032 29.4409L18.1321 21.7941V20.1079L20.4925 24.1218C20.7537 24.6156 21.0976 25.0619 21.5094 25.4419C21.6855 25.5436 21.8801 25.61 22.0821 25.6372C22.2841 25.6644 22.4895 25.6519 22.6866 25.6004C22.8837 25.5488 23.0686 25.4593 23.2308 25.337C23.393 25.2146 23.5293 25.0618 23.6318 24.8872L25.9576 20.9316L25.9352 34.5419C25.9352 34.9725 26.1078 35.3853 26.4151 35.6898C26.7223 35.9942 27.139 36.1652 27.5735 36.1652H27.5959C28.0304 36.1652 28.4471 35.9942 28.7543 35.6898C29.0615 35.3853 29.2341 34.9725 29.2341 34.5419L29.2117 26.3275C29.2094 26.162 29.2704 26.0018 29.3823 25.8791C29.4943 25.7563 29.649 25.68 29.8153 25.6656C29.9037 25.6598 29.9924 25.672 30.0759 25.7015C30.1593 25.731 30.2358 25.7772 30.3005 25.8371C30.3652 25.8971 30.4168 25.9696 30.4521 26.0501C30.4874 26.1306 30.5056 26.2175 30.5057 26.3053V34.5022C30.501 34.9278 30.6628 35.3388 30.957 35.649C31.2513 35.9591 31.6552 36.1444 32.0842 36.1661C32.3043 36.1741 32.5237 36.138 32.7293 36.0601C32.9349 35.9821 33.1226 35.8639 33.2811 35.7125C33.4396 35.561 33.5657 35.3795 33.6517 35.1787C33.7378 34.9779 33.7822 34.762 33.7822 34.5438V20.9297L36.108 24.8854C36.3195 25.2292 36.6586 25.4772 37.0526 25.576C37.4466 25.6749 37.864 25.6167 38.2151 25.414C38.5663 25.2113 38.8232 24.8802 38.9307 24.4918C39.0382 24.1035 38.9878 23.6888 38.7902 23.3369L38.7893 23.336Z" fill="#06033E"/>
<path d="M8.6842 11.9165L9.5565 11.8397C9.67496 11.8295 9.78992 11.7947 9.89389 11.7375C9.99787 11.6803 10.0885 11.6021 10.16 11.5079C10.2314 11.4138 10.2821 11.3057 10.3086 11.1909C10.3352 11.076 10.337 10.9569 10.314 10.8413C10.1896 10.4315 10.1633 9.99855 10.2371 9.57685C10.311 9.15516 10.483 8.75631 10.7395 8.41195C10.7395 8.43876 10.7395 8.46556 10.7395 8.4933C10.7319 8.95678 10.8174 9.41713 10.9912 9.84752C11.1649 10.2779 11.4233 10.6697 11.7514 11.0002C12.0795 11.3306 12.4707 11.593 12.9022 11.7722C13.3336 11.9513 13.7968 12.0435 14.2646 12.0435C14.7324 12.0435 15.1955 11.9513 15.627 11.7722C16.0585 11.593 16.4496 11.3306 16.7777 11.0002C17.1058 10.6697 17.3643 10.2779 17.538 9.84752C17.7117 9.41713 17.7973 8.95678 17.7897 8.4933C17.7897 8.46649 17.7897 8.43968 17.7897 8.41195C18.0462 8.75628 18.2183 9.15513 18.2921 9.57683C18.366 9.99854 18.3396 10.4315 18.2151 10.8413C18.1921 10.9569 18.194 11.076 18.2205 11.1909C18.2471 11.3057 18.2977 11.4138 18.3692 11.5079C18.4406 11.6021 18.5313 11.6803 18.6353 11.7375C18.7392 11.7947 18.8542 11.8295 18.9726 11.8397L19.8449 11.9165C20.0666 11.9361 20.2872 11.8688 20.4592 11.7289C20.6313 11.5891 20.741 11.3878 20.7648 11.1686C20.8852 10.0593 20.8637 8.39531 20.2321 7.73896C19.873 7.36857 19.4237 7.0959 18.9275 6.94712C18.4314 6.79835 17.9049 6.77848 17.3988 6.88942C17.102 6.32015 16.6528 5.84277 16.1005 5.50952C15.5482 5.17627 14.914 5 14.2674 5C13.6207 5 12.9865 5.17627 12.4342 5.50952C11.8819 5.84277 11.4328 6.32015 11.136 6.88942C10.6298 6.77848 10.1034 6.79835 9.6072 6.94712C9.11103 7.0959 8.66179 7.36857 8.30263 7.73896C7.6701 8.39901 7.64958 10.0611 7.76899 11.1686C7.79281 11.387 7.90189 11.5874 8.07291 11.7272C8.24392 11.8669 8.46332 11.9349 8.6842 11.9165Z" fill="#06033E"/>
</g>
<defs>
<clipPath id="clip0_94_9">
<rect width="34" height="32" fill="white" transform="translate(5 5)"/>
</clipPath>
</defs>
</svg>
