<svg width="39" height="39" viewBox="0 0 39 39" fill="none" xmlns="http://www.w3.org/2000/svg">
<circle cx="19.5" cy="19.5" r="19.5" fill="#E9EDF5"/>
<mask id="mask0_107_44" style="mask-type:alpha" maskUnits="userSpaceOnUse" x="10" y="10" width="20" height="20">
<rect x="10" y="10" width="20" height="20" fill="#D9D9D9"/>
</mask>
<g mask="url(#mask0_107_44)">
<path d="M13.3337 26.6668C12.8753 26.6668 12.483 26.5036 12.1566 26.1772C11.8302 25.8509 11.667 25.4585 11.667 25.0002V15.0002C11.667 14.5418 11.8302 14.1495 12.1566 13.8231C12.483 13.4967 12.8753 13.3335 13.3337 13.3335H26.667C27.1253 13.3335 27.5177 13.4967 27.8441 13.8231C28.1705 14.1495 28.3337 14.5418 28.3337 15.0002V25.0002C28.3337 25.4585 28.1705 25.8509 27.8441 26.1772C27.5177 26.5036 27.1253 26.6668 26.667 26.6668H13.3337ZM20.0003 20.8335L13.3337 16.6668V25.0002H26.667V16.6668L20.0003 20.8335ZM20.0003 19.1668L26.667 15.0002H13.3337L20.0003 19.1668ZM13.3337 16.6668V15.0002V25.0002V16.6668Z" fill="#0A175C"/>
</g>
</svg>
