<svg width="40" height="40" viewBox="0 0 40 40" fill="none" xmlns="http://www.w3.org/2000/svg">
<path d="M19.9997 3.3335C10.7947 3.3335 3.33301 10.7952 3.33301 20.0002C3.33301 29.2052 10.7947 36.6668 19.9997 36.6668C29.2047 36.6668 36.6663 29.2052 36.6663 20.0002C36.6663 10.7952 29.2047 3.3335 19.9997 3.3335Z" fill="url(#paint0_linear_38_156)"/>
<path d="M22.2563 24.4176H26.5696L27.2471 20.0359H22.2563V17.6409C22.2563 15.8209 22.8513 14.2068 24.5538 14.2068H27.2896V10.3834C26.8088 10.3184 25.7921 10.1768 23.8713 10.1768C19.8596 10.1768 17.508 12.2951 17.508 17.1218V20.0368H13.3838V24.4184H17.5071V36.4618C18.3238 36.5834 19.1513 36.6668 20.0005 36.6668C20.768 36.6668 21.5171 36.5968 22.2563 36.4968V24.4176Z" fill="white"/>
<defs>
<linearGradient id="paint0_linear_38_156" x1="8.32717" y1="8.32766" x2="33.8455" y2="33.846" gradientUnits="userSpaceOnUse">
<stop stop-color="#2AA4F4"/>
<stop offset="1" stop-color="#007AD9"/>
</linearGradient>
</defs>
</svg>
