<svg width="40" height="40" viewBox="0 0 40 40" fill="none" xmlns="http://www.w3.org/2000/svg">
<path d="M35 30.8333C35 33.135 33.135 35 30.8333 35H9.16667C6.86583 35 5 33.135 5 30.8333V9.16667C5 6.865 6.86583 5 9.16667 5H30.8333C33.135 5 35 6.865 35 9.16667V30.8333Z" fill="#0288D1"/>
<path d="M10 15.8333H14.1667V30H10V15.8333ZM12.0708 14.1667H12.0475C10.8042 14.1667 10 13.24 10 12.0825C10 10.9 10.8292 10 12.095 10C13.3625 10 14.1433 10.9 14.1667 12.0825C14.1667 13.2392 13.3625 14.1667 12.0708 14.1667ZM30 30H25.8333V22.4175C25.8333 20.5858 24.8125 19.3358 23.1733 19.3358C21.9225 19.3358 21.2458 20.1792 20.9175 20.9942C20.7975 21.2858 20.8333 22.0925 20.8333 22.5V30H16.6667V15.8333H20.8333V18.0133C21.4342 17.0833 22.375 15.8333 24.7817 15.8333C27.7633 15.8333 29.9992 17.7083 29.9992 21.895L30 30Z" fill="white"/>
</svg>
