<svg width="101" height="38" viewBox="0 0 101 38" fill="none" xmlns="http://www.w3.org/2000/svg">
<g clip-path="url(#clip0_38_16)">
<path d="M29.4994 23.2382C31.0766 23.2382 32.4201 23.8149 33.5884 24.9105C34.6983 26.0061 35.2825 27.39 35.2825 28.9469C35.2825 30.5614 34.6983 31.8877 33.5884 32.9833C32.4201 34.0789 31.0766 34.6555 29.441 34.6555C27.8053 34.6555 26.4618 34.0789 25.2935 32.9833C24.1252 31.8877 23.541 30.5038 23.541 28.9469C23.541 27.3323 24.1252 25.9484 25.2935 24.8528C26.4034 23.8149 27.8053 23.2382 29.4994 23.2382ZM29.3825 27.3323C28.9152 27.3323 28.5647 27.5053 28.2142 27.7936C27.9222 28.1396 27.7469 28.4856 27.7469 28.9469C27.7469 29.4082 27.9222 29.8118 28.2142 30.1001C28.5063 30.4461 28.9152 30.5614 29.3241 30.5614C29.7915 30.5614 30.1419 30.3884 30.4924 30.1001C30.7845 29.7542 30.9598 29.4082 30.9598 28.9469C30.9598 28.4856 30.7845 28.0819 30.4924 27.7936C30.2004 27.5053 29.8499 27.3323 29.3825 27.3323Z" fill="#FF3300"/>
<path d="M43.8702 21.0471V34.4249H37.5029V23.0653L43.8702 21.0471ZM52.5157 19.8938L49.3612 26.2367L55.2028 34.4249H48.1345L43.8702 28.255L45.2722 22.8923L52.5157 19.8938Z" fill="#FF3300"/>
<path d="M62.7384 14.0698V34.4249H56.3711V17.9909L62.7384 14.0698ZM72.6105 16.3187L68.4631 24.7952L74.0125 34.3672H66.9443L62.7384 26.5827L64.5492 20.1245L72.6105 16.3187Z" fill="#FF3300"/>
<path d="M81.5481 3.51746V18.4522C82.5996 17.7026 83.7095 17.2989 84.7609 17.2989C86.3966 17.2989 87.6817 17.8756 88.6748 19.0288C89.6094 20.1821 90.1352 21.7967 90.1352 23.7572V34.4249H83.7679V25.5448C83.7679 24.8528 83.7095 24.3338 83.5342 24.1032C83.359 23.8725 83.0669 23.7572 82.658 23.7572C81.957 23.7572 81.6065 24.2762 81.6065 25.3141V34.4249H75.2393V9.28377L81.5481 3.51746Z" fill="#FF3300"/>
<path d="M100.24 34.2519H93.873V17.4142H100.24V34.2519ZM97.0859 9.91803C97.9621 9.91803 98.7215 10.2063 99.3057 10.8406C99.9482 11.4173 100.24 12.1669 100.24 12.9742C100.24 13.8391 99.9482 14.5887 99.3641 15.1077C98.7799 15.6843 98.0205 15.9727 97.0859 15.9727C96.1512 15.9727 95.3918 15.6843 94.8077 15.1077C94.2235 14.5311 93.9315 13.8391 93.9315 12.9742C93.9315 12.1669 94.2235 11.4173 94.8661 10.8406C95.4503 10.264 96.2097 9.91803 97.0859 9.91803Z" fill="#FF3300"/>
<path d="M80.9638 0C80.9638 0.0576631 80.9054 0.0576631 80.9054 0.115326C77.7509 4.8437 68.5213 10.7253 56.6046 15.1077C43.5196 19.8938 31.0187 21.5083 25.002 19.6055C32.2454 20.0668 43.9869 17.8179 56.3125 13.2625C67.0609 9.28376 75.8816 4.44006 80.8469 0.115326L80.9638 0Z" fill="#A4B2B2"/>
<path d="M0 9.39908C0 8.30348 0.876229 7.43854 1.98612 7.43854H9.40486C13.2019 7.43854 16.2394 8.18816 18.4592 9.62974C20.679 11.129 21.7889 13.0895 21.7889 15.6267C21.7889 16.953 21.38 18.1639 20.5038 19.3748C19.6859 20.5857 18.4592 21.5083 16.8236 22.1426L22.4315 32.5797L15.4216 37.481L9.5801 25.0258C9.46327 24.7375 9.1712 24.5645 8.82071 24.5645H8.76229C8.35338 24.5645 8.06131 24.9105 8.06131 25.2564V38L0 33.1563V9.39908ZM8.11972 12.6282V18.9712C11.6831 18.9135 13.4939 17.9909 13.4939 16.1457C13.4939 14.8771 13.085 14.0121 12.2672 13.4932C11.4494 12.9165 10.0474 12.6282 8.11972 12.6282Z" fill="#FF3300"/>
</g>
<defs>
<clipPath id="clip0_38_16">
<rect width="101" height="38" fill="white"/>
</clipPath>
</defs>
</svg>
