<svg width="95" height="95" viewBox="0 0 95 95" fill="none" xmlns="http://www.w3.org/2000/svg">
<circle cx="47.5" cy="47.5" r="47.5" fill="url(#paint0_linear_104_2)"/>
<mask id="mask0_104_2" style="mask-type:alpha" maskUnits="userSpaceOnUse" x="0" y="0" width="95" height="95">
<circle cx="47.5" cy="47.5" r="47.5" fill="#D9D9D9"/>
</mask>
<g mask="url(#mask0_104_2)">
<path d="M80.1294 40.4785H75.1729V95.0003H80.1294C81.955 95.0003 83.4337 93.3737 83.4337 91.3655V44.1133C83.4337 42.1051 81.955 40.4785 80.1294 40.4785Z" fill="#FF3300"/>
<path d="M76.7428 91.3555V36.688C76.7428 34.6744 75.2271 33.0435 73.3558 33.0435H15.7776C13.9063 33.0435 12.3906 34.6744 12.3906 36.688V91.3555C12.3906 93.3691 13.9063 95 15.7776 95H80.1298C78.2585 95 76.7428 93.3691 76.7428 91.3555Z" fill="#FF9B82"/>
<path d="M69.9738 50.0511H18.9508C18.0119 50.0511 17.25 49.2892 17.25 48.3503V44.9488C17.25 44.01 18.0119 43.248 18.9508 43.248H69.9738C70.9126 43.248 71.6746 44.01 71.6746 44.9488V48.3503C71.6746 49.2892 70.9126 50.0511 69.9738 50.0511Z" fill="white"/>
<path d="M39.36 82.366H18.9508C18.0119 82.366 17.25 81.6041 17.25 80.6652V58.5553C17.25 57.6164 18.0119 56.8545 18.9508 56.8545H39.36C40.2988 56.8545 41.0607 57.6164 41.0607 58.5553V80.6652C41.0607 81.6041 40.2988 82.366 39.36 82.366Z" fill="white"/>
<path d="M71.675 61.9568H47.8643V58.5553C47.8643 57.6164 48.6262 56.8545 49.565 56.8545H69.9742C70.9131 56.8545 71.675 57.6164 71.675 58.5553V61.9568Z" fill="white"/>
<path d="M71.675 61.9565H47.8643V67.0588H71.675V61.9565Z" fill="#FDE5DF"/>
<path d="M71.675 67.0586H47.8643V72.1609H71.675V67.0586Z" fill="#F9C9BD"/>
<path d="M71.675 72.1611H47.8643V77.2634H71.675V72.1611Z" fill="#F1AA98"/>
<path d="M69.9742 82.366H49.565C48.6262 82.366 47.8643 81.604 47.8643 80.6652V77.2637H71.675V80.6652C71.675 81.604 70.9131 82.366 69.9742 82.366Z" fill="#EC8066"/>
</g>
<defs>
<linearGradient id="paint0_linear_104_2" x1="47.5" y1="0" x2="47.5" y2="187.522" gradientUnits="userSpaceOnUse">
<stop stop-color="#F8F6F1"/>
<stop offset="1" stop-color="#EC8066"/>
</linearGradient>
</defs>
</svg>
