<svg width="25" height="23" viewBox="0 0 25 23" fill="none" xmlns="http://www.w3.org/2000/svg">
<path d="M4.97297 0C4.64544 0.0105676 4.359 0.341606 4.35135 0.621622V7.45946H0.621622C0.285355 7.46754 0.00764594 7.80107 0 8.08108V20.2027C0 21.7417 1.25835 23 2.7973 23H22.0676C23.6065 23 24.8649 21.7417 24.8649 20.2027V0.621622C24.8648 0.29615 24.5687 3.10811e-05 24.2432 0H4.97297ZM5.59459 1.24324H23.6216V20.2027C23.6216 21.0744 22.9393 21.7568 22.0676 21.7568H5.05067C5.36509 21.3045 5.59459 20.7923 5.59459 20.2027V1.24324ZM8.08108 3.10811C7.75199 3.10904 7.4671 3.44971 7.45946 3.72973V8.08108C7.45949 8.40656 7.7556 8.70267 8.08108 8.7027H14.2973C14.6228 8.70267 14.9189 8.40656 14.9189 8.08108V3.72973C14.9189 3.40426 14.6228 3.10814 14.2973 3.10811H8.08108ZM16.7838 3.72973C16.4405 3.72973 16.1622 4.00803 16.1622 4.35135C16.1622 4.69467 16.4405 4.97297 16.7838 4.97297H21.1351C21.4785 4.97297 21.7568 4.69467 21.7568 4.35135C21.7568 4.00803 21.4785 3.72973 21.1351 3.72973H16.7838ZM8.7027 4.35135H13.6757V7.45946H8.7027V4.35135ZM16.7838 6.83784C16.4405 6.83784 16.1622 7.11614 16.1622 7.45946C16.1622 7.80278 16.4405 8.08108 16.7838 8.08108H21.1351C21.4785 8.08108 21.7568 7.80278 21.7568 7.45946C21.7568 7.11614 21.4785 6.83784 21.1351 6.83784H16.7838ZM1.24324 8.7027H4.35135V20.2027C4.35135 21.0744 3.669 21.7568 2.7973 21.7568C1.9256 21.7568 1.24324 21.0744 1.24324 20.2027V8.7027ZM8.08108 10.5676C7.73776 10.5676 7.45946 10.8459 7.45946 11.1892C7.45946 11.5325 7.73776 11.8108 8.08108 11.8108H21.1351C21.4785 11.8108 21.7568 11.5325 21.7568 11.1892C21.7568 10.8459 21.4785 10.5676 21.1351 10.5676H8.08108ZM8.08108 13.9865C7.73776 13.9865 7.45946 14.2648 7.45946 14.6081C7.45946 14.9514 7.73776 15.2297 8.08108 15.2297H21.1351C21.4785 15.2297 21.7568 14.9514 21.7568 14.6081C21.7568 14.2648 21.4785 13.9865 21.1351 13.9865H8.08108ZM8.08108 17.4054C7.73776 17.4054 7.45946 17.6837 7.45946 18.027C7.45946 18.3703 7.73776 18.6486 8.08108 18.6486H21.1351C21.4785 18.6486 21.7568 18.3703 21.7568 18.027C21.7568 17.6837 21.4785 17.4054 21.1351 17.4054H8.08108Z" fill="#0A175C"/>
</svg>
