<svg width="42" height="42" viewBox="0 0 42 42" fill="none" xmlns="http://www.w3.org/2000/svg">
<mask id="mask0_94_18" style="mask-type:alpha" maskUnits="userSpaceOnUse" x="0" y="0" width="42" height="42">
<rect width="42" height="42" fill="#D9D9D9"/>
</mask>
<g mask="url(#mask0_94_18)">
</g>
<g clip-path="url(#clip0_94_18)">
<path d="M4.00019 18.6935C3.99326 19.3453 4.17978 19.9834 4.53436 20.521C4.88895 21.0586 5.39436 21.4697 5.9818 21.6981V15.9706C5.9818 15.888 6.02155 15.765 6.02155 15.6824C5.42883 15.9094 4.9173 16.3198 4.55589 16.8582C4.19448 17.3966 4.00053 18.0371 4.00019 18.6935Z" fill="#06033E"/>
<path d="M14.8191 25.7769H9.62793L11.5698 33.1062C11.7097 33.6501 12.0186 34.1306 12.4486 34.4732C12.8785 34.8157 13.4054 35.0009 13.9472 35C14.3384 35.0045 14.7252 34.9134 15.0763 34.734C15.4274 34.5546 15.7331 34.2919 15.9685 33.9672C16.2063 33.6595 16.367 33.2954 16.4362 32.9074C16.5055 32.5194 16.4811 32.1196 16.3652 31.7438L14.8191 25.7769Z" fill="#06033E"/>
<path d="M6.02246 15.6478H6.06222V15.6064C6.06222 15.6478 6.06222 15.6478 6.02246 15.6478Z" fill="#06033E"/>
<path d="M34.4344 15.072H34.1172V22.484H34.4344C35.3803 22.484 36.2874 22.0935 36.9563 21.3985C37.6251 20.7035 38.0009 19.7609 38.0009 18.778C38.0009 17.7951 37.6251 16.8525 36.9563 16.1575C36.2874 15.4625 35.3803 15.072 34.4344 15.072Z" fill="#06033E"/>
<path d="M7.17188 15.9762V21.823C7.19256 22.5512 7.48556 23.2423 7.98867 23.7496C8.49177 24.257 9.16536 24.5406 9.86643 24.5403H17.079V13.4233H9.86553C9.52731 13.407 9.18932 13.4601 8.87087 13.5796C8.55242 13.6992 8.25976 13.8827 8.00961 14.1198C7.75945 14.3569 7.55671 14.6429 7.41297 14.9614C7.26923 15.2799 7.1873 15.6248 7.17188 15.9762Z" fill="#06033E"/>
<path d="M18.2666 24.7056L32.9285 30.7993V7.00195L18.2666 13.0966V24.7056Z" fill="#06033E"/>
</g>
<defs>
<clipPath id="clip0_94_18">
<rect width="34" height="28" fill="white" transform="translate(4 7)"/>
</clipPath>
</defs>
</svg>
