<svg width="41" height="46" viewBox="0 0 41 46" fill="none" xmlns="http://www.w3.org/2000/svg">
<path d="M38.5433 0.500665C38.7483 0.506424 38.9488 0.561678 39.1277 0.661485C39.3069 0.761473 39.4593 0.903317 39.5718 1.07498C39.6844 1.24659 39.7538 1.44288 39.774 1.64715C39.7943 1.85139 39.7649 2.05751 39.6883 2.24792L39.6883 2.24792L39.6878 2.24921L26.788 34.0558C26.7878 34.0562 26.7877 34.0566 26.7875 34.057C26.7108 34.2484 26.5886 34.4183 26.4316 34.552C26.2743 34.6861 26.0867 34.7798 25.8851 34.8251C25.6833 34.8703 25.4737 34.8658 25.2743 34.8119L25.4047 34.3292L25.2742 34.8119C25.075 34.758 24.8917 34.6565 24.7403 34.5159C24.7402 34.5158 24.7401 34.5157 24.74 34.5156L20.0662 30.2057L14.6771 35.9682L14.6751 35.9703C14.5 36.1554 14.2734 36.2836 14.0247 36.3385L13.917 35.8502L14.0247 36.3385C13.7758 36.3933 13.5164 36.3722 13.2798 36.278C13.043 36.1838 12.8401 36.0206 12.6972 35.8098C12.5543 35.599 12.4779 35.3502 12.4779 35.0955C12.4779 35.0955 12.4779 35.0954 12.4779 35.0954V23.2061L4.47654 15.8261L4.47462 15.8243C4.31771 15.678 4.20039 15.4945 4.13343 15.2909C4.06645 15.0873 4.05198 14.87 4.09141 14.6593C4.13084 14.4485 4.22286 14.2512 4.35894 14.0855C4.49494 13.9199 4.67063 13.7912 4.86983 13.7115L4.87154 13.7109L38.043 0.586851L38.043 0.586833L38.0471 0.585278C38.2054 0.524216 38.3741 0.495571 38.5433 0.500665ZM38.5433 0.500665C38.5436 0.500673 38.5439 0.500682 38.5441 0.50069L38.5288 1.00045L38.5425 0.500642C38.5428 0.50065 38.543 0.500657 38.5433 0.500665ZM25.8306 11.4229C26.0944 11.4211 26.3523 11.5013 26.5686 11.6525C26.7852 11.804 26.9493 12.0191 27.0381 12.268C27.1269 12.5169 27.136 12.7872 27.0641 13.0415C26.9926 13.2948 26.8444 13.5196 26.6398 13.6851L15.6925 22.708L18.526 25.3222L18.5261 25.3223L25.1163 31.3985L36.2121 4.05178L7.69691 15.3348L13.8036 20.9657L25.0168 11.7213C25.2448 11.5297 25.5328 11.4241 25.8306 11.4229ZM25.8306 11.4229C25.8302 11.423 25.8298 11.423 25.8294 11.423L25.8333 11.9229L25.8318 11.4229C25.8314 11.4229 25.831 11.4229 25.8306 11.4229ZM8.96116 24.3992L8.96325 24.3992C9.2166 24.4081 9.46155 24.4924 9.66667 24.6414C9.87188 24.7905 10.0278 24.9974 10.1145 25.2355C10.2013 25.4737 10.215 25.7324 10.1538 25.9784C10.0929 26.223 9.96088 26.4439 9.77439 26.6133L2.69376 33.2091C2.57777 33.3307 2.43874 33.4283 2.28464 33.4961C2.12405 33.5667 1.95058 33.6033 1.77513 33.6037C1.59961 33.604 1.426 33.568 1.2652 33.4981L1.4645 33.0396L1.26517 33.4981C1.10429 33.4282 0.959591 33.3258 0.840179 33.1972C0.720757 33.0687 0.629208 32.9169 0.571259 32.7513C0.513309 32.5857 0.490227 32.4099 0.503445 32.235C0.51667 32.06 0.565922 31.8897 0.648102 31.7347C0.726818 31.5863 0.834118 31.4549 0.963715 31.3483L8.04244 24.7514C8.16385 24.6353 8.30717 24.5443 8.46419 24.4837L8.64403 24.9503L8.4642 24.4837C8.62259 24.4227 8.79156 24.3939 8.96116 24.3992ZM21.6012 34.5958L21.6014 34.5958C21.8547 34.6047 22.0997 34.689 22.3048 34.838C22.5099 34.987 22.6658 35.1938 22.7526 35.432L22.2828 35.6032L22.7526 35.432C22.8394 35.6702 22.8531 35.9289 22.7919 36.1749C22.7311 36.4194 22.599 36.6404 22.4125 36.8098L15.3234 43.415C15.2026 43.5317 15.0599 43.6232 14.9038 43.6845C14.7454 43.7466 14.5763 43.7763 14.4062 43.772C14.2364 43.7676 14.0689 43.7293 13.9138 43.6591C13.7589 43.5889 13.6196 43.4884 13.5042 43.3635C13.3887 43.2386 13.2995 43.0918 13.2417 42.9318C13.184 42.7719 13.1589 42.6019 13.1679 42.4321C13.1769 42.2623 13.2198 42.0959 13.2942 41.943C13.3673 41.7926 13.4693 41.6582 13.5943 41.5473L20.6816 34.9439C20.6821 34.9434 20.6827 34.9428 20.6832 34.9423C20.8054 34.827 20.9492 34.7369 21.1064 34.6773C21.2647 34.6174 21.433 34.5899 21.6012 34.5958ZM9.5759 35.6565L9.57895 35.6566C9.83229 35.6655 10.0772 35.7498 10.2823 35.8988C10.4874 36.0478 10.6434 36.2546 10.7302 36.4928C10.817 36.731 10.8306 36.9898 10.7695 37.2358C10.7086 37.4804 10.5765 37.7014 10.39 37.8708L3.29906 44.4776C3.29876 44.4779 3.29846 44.4782 3.29816 44.4785C3.17628 44.5929 3.03305 44.6822 2.87666 44.7413L2.69992 44.2736L2.87664 44.7414C2.71976 44.8006 2.55281 44.8283 2.38539 44.8228C2.21796 44.8174 2.05315 44.779 1.90046 44.7097L2.10714 44.2544L1.90044 44.7096C1.74781 44.6404 1.61039 44.5416 1.49604 44.4191L1.86157 44.0779L1.49603 44.4191C1.38162 44.2965 1.29261 44.1525 1.23404 43.9955C1.17543 43.8385 1.14842 43.6714 1.15455 43.5039C1.16068 43.3364 1.19982 43.1718 1.26973 43.0195C1.33949 42.8675 1.43847 42.7309 1.56092 42.6173C1.56127 42.6169 1.56161 42.6166 1.56196 42.6163L8.6578 36.0106C8.77885 35.8944 8.92184 35.8031 9.07864 35.7422L9.25954 36.2084L9.07866 35.7422C9.23694 35.6808 9.406 35.6516 9.5759 35.6565ZM18.1899 28.4881C17.5382 27.8837 16.3083 26.7466 15.0231 25.5639V31.8734L18.1899 28.4881Z" fill="#FF3300" stroke="#FF3300"/>
</svg>
