<svg width="42" height="42" viewBox="0 0 42 42" fill="none" xmlns="http://www.w3.org/2000/svg">
<mask id="mask0_94_14" style="mask-type:alpha" maskUnits="userSpaceOnUse" x="0" y="0" width="42" height="42">
<rect width="42" height="42" fill="#D9D9D9"/>
</mask>
<g mask="url(#mask0_94_14)">
</g>
<g clip-path="url(#clip0_94_14)">
<path d="M26.4937 7.57121L11.9721 15.0108L6.2002 12.1659L20.4658 5.12112C20.6274 5.04097 20.8053 4.99927 20.9856 4.99927C21.1659 4.99927 21.3438 5.04097 21.5054 5.12112L26.4937 7.57121Z" fill="#06033E"/>
<path d="M35.7827 12.1658L21.0032 19.4863L15.4743 16.7595L14.6738 16.3528L29.2113 8.91919L30.0117 9.32489L35.7827 12.1658Z" fill="#06033E"/>
<path d="M19.8241 21.5962L19.8082 37L5.65565 29.615C5.45811 29.51 5.29279 29.3533 5.17732 29.1616C5.06185 28.97 5.00056 28.7506 5 28.5268V14.2756L10.9971 17.2306V22.4254C10.9971 22.7437 11.1235 23.049 11.3486 23.2741C11.5737 23.4992 11.879 23.6257 12.1973 23.6257C12.5156 23.6257 12.8209 23.4992 13.046 23.2741C13.2711 23.049 13.3975 22.7437 13.3975 22.4254V18.4319L14.198 18.8217L19.8241 21.5962Z" fill="#06033E"/>
<path d="M36.9806 14.2915L22.2209 21.5793L22.2051 36.9831L36.9974 29.2589L36.9806 14.2915Z" fill="#06033E"/>
</g>
<defs>
<clipPath id="clip0_94_14">
<rect width="32" height="32" fill="white" transform="translate(5 5)"/>
</clipPath>
</defs>
</svg>
