<svg width="600" height="450" viewBox="0 0 600 450" fill="none" xmlns="http://www.w3.org/2000/svg">
<path d="M600 0H0V450H600V0Z" fill="url(#paint0_radial_127_770)"/>
<g opacity="0.4">
<path d="M486.871 371.066C485.716 371.066 484.56 370.768 483.53 370.173L471.793 363.397C471.2 363.055 470.847 362.442 470.847 361.758C470.847 361.073 471.201 360.46 471.793 360.118L483.529 353.342C485.59 352.151 488.152 352.151 490.212 353.342L501.949 360.118C502.542 360.46 502.895 361.073 502.895 361.758C502.895 362.442 502.541 363.055 501.949 363.397L490.213 370.173C489.182 370.768 488.027 371.066 486.871 371.066ZM484.18 369.048C485.84 370.005 487.902 370.006 489.562 369.048L501.298 362.272C501.567 362.117 501.595 361.861 501.595 361.758C501.595 361.655 501.567 361.399 501.298 361.243L489.561 354.467C487.902 353.509 485.84 353.508 484.179 354.467L472.443 361.243C472.174 361.398 472.146 361.654 472.146 361.758C472.146 361.861 472.174 362.116 472.443 362.272L484.18 369.048Z" fill="url(#paint1_linear_127_770)"/>
<path d="M286.898 206.464C284.991 206.464 283.084 205.973 281.382 204.99L261.183 193.329C260.31 192.825 259.789 191.923 259.789 190.914C259.789 189.905 260.31 189.003 261.183 188.499L281.381 176.837C284.783 174.872 289.01 174.872 292.412 176.837L312.61 188.499C313.483 189.003 314.005 189.905 314.005 190.914C314.005 191.923 313.484 192.825 312.61 193.33L292.413 204.99C290.713 205.973 288.805 206.464 286.898 206.464ZM286.897 176.663C285.214 176.663 283.532 177.097 282.032 177.963L261.834 189.624C261.368 189.894 261.089 190.376 261.089 190.914C261.089 191.452 261.367 191.935 261.834 192.204L282.033 203.865C285.033 205.597 288.763 205.597 291.763 203.865L311.96 192.204C312.427 191.934 312.705 191.452 312.705 190.914C312.705 190.376 312.427 189.893 311.96 189.625L291.762 177.962C290.262 177.097 288.58 176.663 286.897 176.663Z" fill="url(#paint2_linear_127_770)"/>
<path opacity="0.3" d="M390.88 359.017L246.45 275.63C244.345 274.415 244.609 272.292 247.04 270.888L339.737 217.37C342.168 215.967 345.845 215.814 347.95 217.03L492.38 300.417C494.485 301.632 494.221 303.755 491.79 305.159L399.093 358.677C396.662 360.079 392.985 360.232 390.88 359.017Z" fill="#000028"/>
<path d="M394.189 373.794C392.551 373.794 390.982 373.454 389.784 372.764V372.763L224.947 277.594C223.692 276.869 223 275.834 223 274.68C223.001 273.338 223.956 272.018 225.62 271.057L337.986 205.224C340.987 203.491 345.39 203.322 348.013 204.832L512.85 300.002C514.106 300.727 514.797 301.762 514.797 302.915C514.797 304.258 513.842 305.578 512.177 306.539L399.811 372.372C398.181 373.314 396.136 373.794 394.189 373.794ZM390.434 371.637C392.655 372.92 396.569 372.744 399.158 371.249L511.524 305.416C512.779 304.69 513.498 303.78 513.498 302.915C513.498 302.057 512.792 301.469 512.2 301.127L347.363 205.958C345.144 204.678 341.228 204.853 338.639 206.347L226.273 272.18C225.018 272.905 224.299 273.816 224.299 274.681C224.299 275.539 225.004 276.127 225.596 276.469L390.433 371.638V371.637H390.434Z" fill="url(#paint3_linear_127_770)"/>
<path d="M530.749 160.617L386.887 77.5582C385.898 76.9872 384.866 76.8692 383.951 77.1362L383.95 77.1372C383.946 77.1382 383.941 77.1402 383.937 77.1412L381.273 78.0692L382.211 78.2912C381.835 78.7362 381.532 79.2882 381.333 79.9362L348.799 185.567C347.993 188.187 349.174 191.369 351.436 192.675L495.298 275.734C495.648 275.936 496.003 276.075 496.356 276.166L496 276.942L498.545 276.048L498.539 276.046C499.581 275.631 500.44 274.7 500.854 273.355L533.388 167.724C534.192 165.105 533.011 161.923 530.749 160.617Z" fill="url(#paint4_radial_127_770)"/>
<path d="M490.148 279.678L490.199 279.739L348.101 197.699C346.011 196.492 342.359 196.644 339.946 198.037L248.137 251.043L245.075 249.874L245.935 254.169L245.939 254.167C246.053 254.813 246.505 255.418 247.317 255.887L390.729 338.686C392.819 339.893 396.471 339.742 398.884 338.348L490.927 285.207C492.063 284.551 492.716 283.738 492.878 282.934L492.883 282.94L493.761 278.76L490.148 279.678Z" fill="url(#paint5_radial_127_770)"/>
<path d="M390.88 334.906L246.45 251.519C244.345 250.304 244.609 248.18 247.04 246.777L339.737 193.259C342.168 191.856 345.845 191.703 347.95 192.919L492.38 276.306C494.485 277.521 494.221 279.644 491.79 281.048L399.093 334.566C396.662 335.969 392.985 336.122 390.88 334.906Z" fill="url(#paint6_radial_127_770)"/>
<path d="M491.79 279.923L399.093 333.441C396.662 334.845 392.985 334.997 390.88 333.782L246.45 250.395C245.733 249.981 245.312 249.458 245.137 248.897C244.858 249.865 245.266 250.836 246.45 251.519L390.881 334.906C392.986 336.122 396.663 335.969 399.094 334.566L491.791 281.048C493.394 280.123 494.033 278.888 493.694 277.804C493.476 278.557 492.854 279.309 491.79 279.923Z" fill="white"/>
<g opacity="0.4">
<path d="M315.341 237.987L310.465 235.172C310.073 234.946 310.123 234.551 310.575 234.29L316.331 230.967C316.783 230.706 317.467 230.678 317.858 230.904L322.734 233.719C323.126 233.945 323.076 234.34 322.624 234.601L316.868 237.924C316.416 238.185 315.733 238.213 315.341 237.987Z" fill="#06033E"/>
<path d="M322.871 242.335L317.995 239.52C317.603 239.294 317.653 238.899 318.105 238.638L323.86 235.315C324.312 235.054 324.996 235.026 325.387 235.252L330.263 238.067C330.655 238.293 330.605 238.688 330.153 238.949L324.397 242.272C323.947 242.532 323.263 242.561 322.871 242.335Z" fill="#06033E"/>
<path d="M330.401 246.682L325.525 243.867C325.133 243.641 325.183 243.246 325.635 242.985L331.391 239.662C331.843 239.401 332.527 239.373 332.918 239.599L337.794 242.414C338.186 242.64 338.136 243.035 337.684 243.296L331.929 246.619C331.476 246.88 330.792 246.908 330.401 246.682Z" fill="#06033E"/>
<path d="M340.815 243.092L335.939 240.277C335.547 240.051 335.597 239.656 336.049 239.395L340.881 236.606C341.333 236.345 342.017 236.317 342.408 236.543L347.284 239.358C347.676 239.584 347.626 239.979 347.174 240.24L342.343 243.029C341.891 243.29 341.207 243.318 340.815 243.092Z" fill="#06033E"/>
<path d="M348.346 247.44L343.47 244.625C343.078 244.399 343.128 244.004 343.58 243.743L348.411 240.954C348.863 240.693 349.547 240.665 349.938 240.891L354.814 243.706C355.206 243.932 355.156 244.327 354.704 244.588L349.873 247.378C349.421 247.637 348.737 247.665 348.346 247.44Z" fill="#06033E"/>
<path d="M355.877 251.787L351.001 248.972C350.609 248.746 350.659 248.351 351.111 248.09L355.942 245.301C356.394 245.04 357.078 245.012 357.47 245.238L362.346 248.053C362.737 248.279 362.688 248.674 362.236 248.935L357.405 251.725C356.952 251.985 356.268 252.013 355.877 251.787Z" fill="#06033E"/>
<path d="M363.407 256.135L358.531 253.32C358.139 253.094 358.189 252.699 358.641 252.438L363.472 249.649C363.924 249.388 364.608 249.36 364.999 249.586L369.875 252.401C370.267 252.627 370.217 253.022 369.765 253.283L364.933 256.072C364.483 256.332 363.799 256.361 363.407 256.135Z" fill="#06033E"/>
<path d="M370.936 260.482L366.06 257.667C365.668 257.441 365.718 257.046 366.17 256.785L371.001 253.996C371.453 253.735 372.137 253.707 372.528 253.933L377.404 256.748C377.796 256.974 377.746 257.369 377.294 257.63L372.462 260.419C372.012 260.68 371.328 260.708 370.936 260.482Z" fill="#06033E"/>
<path d="M378.468 264.83L373.591 262.015C373.199 261.789 373.249 261.394 373.701 261.133L378.533 258.343C378.985 258.082 379.669 258.054 380.06 258.28L384.936 261.095C385.328 261.321 385.278 261.716 384.826 261.977L379.994 264.766C379.542 265.028 378.859 265.056 378.468 264.83Z" fill="#06033E"/>
<path d="M385.997 269.178L381.121 266.363C380.73 266.137 380.779 265.742 381.231 265.481L386.063 262.692C386.515 262.431 387.199 262.403 387.59 262.629L392.466 265.444C392.857 265.67 392.808 266.065 392.356 266.326L387.525 269.115C387.072 269.375 386.388 269.403 385.997 269.178Z" fill="#06033E"/>
<path d="M393.528 273.525L388.652 270.71C388.261 270.484 388.31 270.089 388.762 269.828L393.593 267.039C394.045 266.778 394.729 266.75 395.12 266.976L399.996 269.791C400.387 270.017 400.338 270.412 399.886 270.673L395.054 273.462C394.604 273.723 393.92 273.751 393.528 273.525Z" fill="#06033E"/>
<path d="M401.057 277.873L396.181 275.058C395.789 274.832 395.839 274.437 396.291 274.176L401.123 271.387C401.575 271.126 402.259 271.098 402.65 271.324L407.526 274.139C407.918 274.365 407.868 274.76 407.416 275.021L402.584 277.811C402.133 278.07 401.449 278.099 401.057 277.873Z" fill="#06033E"/>
<path d="M408.589 282.22L403.713 279.405C403.321 279.179 403.371 278.784 403.823 278.523L408.655 275.734C409.107 275.473 409.791 275.445 410.182 275.671L415.058 278.486C415.45 278.712 415.4 279.107 414.948 279.368L410.117 282.158C409.664 282.418 408.98 282.446 408.589 282.22Z" fill="#06033E"/>
<path d="M351.912 241.034L347.036 238.219C346.644 237.993 346.694 237.598 347.146 237.337L351.977 234.548C352.429 234.287 353.113 234.259 353.504 234.485L358.38 237.3C358.772 237.526 358.722 237.921 358.27 238.182L353.438 240.971C352.987 241.231 352.303 241.26 351.912 241.034Z" fill="#06033E"/>
<path d="M344.268 236.621L339.392 233.806C339 233.58 339.05 233.185 339.502 232.924L344.334 230.135C344.786 229.874 345.47 229.846 345.861 230.072L350.737 232.887C351.129 233.113 351.079 233.508 350.627 233.769L345.796 236.558C345.344 236.819 344.66 236.847 344.268 236.621Z" fill="#06033E"/>
<path d="M336.614 232.201L326.112 226.138C325.72 225.912 325.77 225.517 326.222 225.256L331.053 222.467C331.505 222.206 332.189 222.178 332.58 222.404L343.082 228.467C343.474 228.693 343.424 229.088 342.972 229.349L338.141 232.138C337.689 232.399 337.005 232.427 336.614 232.201Z" fill="#06033E"/>
<path d="M341.965 226.827L333.442 221.906C333.051 221.68 333.1 221.285 333.552 221.024L338.383 218.235C338.835 217.974 339.519 217.946 339.91 218.172L348.433 223.093C348.825 223.319 348.775 223.714 348.323 223.975L343.491 226.764C343.04 227.024 342.356 227.052 341.965 226.827Z" fill="#06033E"/>
<path d="M359.441 245.381L354.565 242.566C354.173 242.34 354.223 241.945 354.675 241.684L359.507 238.895C359.959 238.634 360.643 238.606 361.034 238.832L365.91 241.647C366.301 241.873 366.252 242.268 365.8 242.529L360.969 245.318C360.516 245.579 359.832 245.607 359.441 245.381Z" fill="#06033E"/>
<path d="M366.972 249.729L362.096 246.914C361.705 246.688 361.754 246.293 362.206 246.032L367.037 243.243C367.489 242.982 368.173 242.954 368.564 243.18L373.44 245.995C373.831 246.221 373.782 246.616 373.33 246.877L368.499 249.666C368.048 249.927 367.364 249.955 366.972 249.729Z" fill="#06033E"/>
<path d="M374.503 254.076L369.627 251.261C369.235 251.035 369.285 250.64 369.737 250.379L374.568 247.59C375.02 247.329 375.704 247.301 376.095 247.527L380.971 250.342C381.362 250.568 381.313 250.963 380.861 251.224L376.029 254.013C375.578 254.274 374.894 254.302 374.503 254.076Z" fill="#06033E"/>
<path d="M382.033 258.424L377.157 255.609C376.765 255.383 376.815 254.988 377.267 254.727L382.099 251.938C382.551 251.677 383.235 251.649 383.626 251.875L388.502 254.69C388.894 254.916 388.844 255.311 388.392 255.572L383.56 258.361C383.108 258.622 382.424 258.65 382.033 258.424Z" fill="#06033E"/>
<path d="M389.562 262.772L384.686 259.957C384.294 259.731 384.344 259.336 384.796 259.075L389.628 256.286C390.08 256.025 390.764 255.997 391.155 256.223L396.031 259.038C396.423 259.264 396.373 259.659 395.921 259.92L391.09 262.71C390.638 262.969 389.954 262.998 389.562 262.772Z" fill="#06033E"/>
<path d="M397.092 267.119L392.216 264.304C391.825 264.078 391.874 263.683 392.326 263.422L397.158 260.633C397.61 260.372 398.294 260.344 398.685 260.57L403.561 263.385C403.953 263.611 403.903 264.006 403.451 264.267L398.62 267.056C398.168 267.317 397.484 267.345 397.092 267.119Z" fill="#06033E"/>
<path d="M404.623 271.467L399.747 268.652C399.356 268.426 399.405 268.031 399.857 267.77L404.688 264.981C405.14 264.72 405.824 264.692 406.215 264.918L411.091 267.733C411.483 267.959 411.433 268.354 410.981 268.615L406.149 271.404C405.698 271.665 405.014 271.693 404.623 271.467Z" fill="#06033E"/>
<path d="M412.154 275.814L407.278 272.999C406.886 272.773 406.936 272.378 407.388 272.117L412.219 269.328C412.671 269.067 413.355 269.039 413.746 269.265L418.622 272.08C419.014 272.306 418.964 272.701 418.512 272.962L413.681 275.751C413.229 276.012 412.545 276.04 412.154 275.814Z" fill="#06033E"/>
<path d="M419.683 280.162L414.807 277.347C414.415 277.121 414.465 276.726 414.917 276.465L419.749 273.676C420.201 273.415 420.885 273.387 421.276 273.613L426.152 276.428C426.544 276.654 426.494 277.049 426.042 277.31L421.21 280.099C420.759 280.36 420.075 280.388 419.683 280.162Z" fill="#06033E"/>
<path d="M433.07 287.891L422.431 281.748C422.039 281.522 422.089 281.127 422.541 280.866L427.373 278.077C427.825 277.816 428.509 277.788 428.9 278.014L439.539 284.157C439.93 284.383 439.881 284.778 439.429 285.039L434.598 287.828C434.146 288.089 433.462 288.117 433.07 287.891Z" fill="#06033E"/>
<path d="M447.731 279.427L438.751 274.242C438.36 274.016 438.409 273.621 438.861 273.36L443.692 270.571C444.144 270.31 444.828 270.282 445.219 270.508L454.199 275.693C454.591 275.919 454.541 276.314 454.089 276.575L449.257 279.364C448.806 279.625 448.122 279.653 447.731 279.427Z" fill="#06033E"/>
<path d="M372.629 244.531L367.753 241.716C367.361 241.49 367.411 241.095 367.863 240.834L372.694 238.045C373.146 237.784 373.83 237.756 374.221 237.982L379.097 240.797C379.489 241.023 379.439 241.418 378.987 241.679L374.156 244.468C373.704 244.728 373.021 244.756 372.629 244.531Z" fill="#06033E"/>
<path d="M364.911 240.075L360.035 237.26C359.644 237.034 359.693 236.639 360.145 236.378L364.976 233.589C365.428 233.328 366.112 233.3 366.503 233.526L371.379 236.341C371.77 236.567 371.721 236.962 371.269 237.223L366.437 240.012C365.986 240.272 365.302 240.301 364.911 240.075Z" fill="#06033E"/>
<path d="M357.193 235.619L352.317 232.804C351.925 232.578 351.975 232.183 352.427 231.922L357.258 229.132C357.71 228.871 358.394 228.843 358.785 229.069L363.661 231.884C364.053 232.11 364.003 232.505 363.551 232.766L358.719 235.555C358.268 235.817 357.585 235.845 357.193 235.619Z" fill="#06033E"/>
<path d="M349.475 231.163L344.599 228.348C344.207 228.122 344.257 227.727 344.709 227.466L349.541 224.677C349.993 224.416 350.677 224.388 351.068 224.614L355.944 227.429C356.336 227.655 356.286 228.05 355.834 228.311L351.003 231.1C350.551 231.361 349.867 231.389 349.475 231.163Z" fill="#06033E"/>
<path d="M380.159 248.878L375.283 246.063C374.891 245.837 374.941 245.442 375.393 245.181L380.224 242.392C380.676 242.131 381.36 242.103 381.751 242.329L386.627 245.144C387.018 245.37 386.969 245.765 386.517 246.026L381.686 248.816C381.235 249.076 380.551 249.104 380.159 248.878Z" fill="#06033E"/>
<path d="M387.689 253.226L382.813 250.411C382.421 250.185 382.471 249.79 382.923 249.529L387.754 246.74C388.206 246.479 388.89 246.451 389.281 246.677L394.157 249.492C394.549 249.718 394.499 250.113 394.047 250.374L389.215 253.164C388.764 253.423 388.08 253.452 387.689 253.226Z" fill="#06033E"/>
<path d="M395.219 257.573L390.343 254.758C389.951 254.532 390.001 254.137 390.453 253.876L395.284 251.086C395.736 250.825 396.42 250.797 396.811 251.023L401.687 253.838C402.079 254.064 402.029 254.459 401.577 254.72L396.745 257.509C396.294 257.771 395.611 257.799 395.219 257.573Z" fill="#06033E"/>
<path d="M402.75 261.921L397.874 259.106C397.482 258.88 397.532 258.485 397.984 258.224L402.816 255.434C403.268 255.173 403.952 255.145 404.343 255.371L409.219 258.186C409.611 258.412 409.561 258.807 409.109 259.068L404.277 261.857C403.826 262.119 403.142 262.147 402.75 261.921Z" fill="#06033E"/>
<path d="M410.281 266.268L405.405 263.453C405.014 263.227 405.063 262.832 405.515 262.571L410.347 259.782C410.799 259.521 411.483 259.493 411.874 259.719L416.75 262.534C417.141 262.76 417.092 263.155 416.64 263.416L411.809 266.205C411.356 266.466 410.672 266.495 410.281 266.268Z" fill="#06033E"/>
<path d="M417.811 270.616L412.935 267.801C412.544 267.575 412.593 267.18 413.045 266.919L417.876 264.13C418.328 263.869 419.012 263.841 419.403 264.067L424.279 266.882C424.67 267.108 424.621 267.503 424.169 267.764L419.337 270.553C418.886 270.814 418.202 270.842 417.811 270.616Z" fill="#06033E"/>
<path d="M425.341 274.964L420.465 272.149C420.073 271.923 420.123 271.528 420.575 271.267L425.407 268.478C425.859 268.217 426.543 268.189 426.934 268.415L431.81 271.23C432.202 271.456 432.152 271.851 431.7 272.112L426.868 274.901C426.416 275.161 425.733 275.19 425.341 274.964Z" fill="#06033E"/>
<path d="M432.871 279.311L427.995 276.496C427.603 276.27 427.653 275.875 428.105 275.614L432.937 272.825C433.389 272.564 434.073 272.536 434.464 272.762L439.34 275.577C439.732 275.803 439.682 276.198 439.23 276.459L434.399 279.248C433.947 279.509 433.263 279.537 432.871 279.311Z" fill="#06033E"/>
<path d="M440.401 283.659L435.525 280.844C435.133 280.618 435.183 280.223 435.635 279.962L440.467 277.173C440.919 276.912 441.603 276.884 441.994 277.11L446.87 279.925C447.262 280.151 447.212 280.546 446.76 280.807L441.929 283.596C441.476 283.857 440.792 283.885 440.401 283.659Z" fill="#06033E"/>
<path d="M368.664 233.777L363.788 230.962C363.396 230.736 363.446 230.341 363.898 230.08L368.729 227.291C369.181 227.03 369.865 227.002 370.256 227.228L375.132 230.043C375.524 230.269 375.474 230.664 375.022 230.925L370.191 233.715C369.739 233.975 369.056 234.003 368.664 233.777Z" fill="#06033E"/>
<path d="M361.171 229.451L356.295 226.636C355.903 226.41 355.953 226.015 356.405 225.754L361.237 222.964C361.689 222.703 362.373 222.675 362.764 222.901L367.64 225.716C368.032 225.942 367.982 226.337 367.53 226.598L362.698 229.388C362.247 229.649 361.563 229.677 361.171 229.451Z" fill="#06033E"/>
<path d="M353.677 225.125L348.801 222.31C348.409 222.084 348.459 221.689 348.911 221.428L353.743 218.639C354.195 218.378 354.879 218.35 355.27 218.576L360.146 221.391C360.538 221.617 360.488 222.012 360.036 222.273L355.205 225.062C354.753 225.323 354.069 225.351 353.677 225.125Z" fill="#06033E"/>
<path d="M346.185 220.799L341.309 217.984C340.917 217.758 340.967 217.363 341.419 217.102L346.251 214.313C346.703 214.052 347.387 214.024 347.778 214.25L352.654 217.065C353.046 217.291 352.996 217.686 352.544 217.947L347.713 220.736C347.26 220.997 346.576 221.025 346.185 220.799Z" fill="#06033E"/>
<path d="M353.889 216.351L349.013 213.536C348.621 213.31 348.671 212.915 349.123 212.654L350.72 211.732C351.172 211.471 351.856 211.443 352.247 211.669L357.123 214.484C357.514 214.71 357.465 215.105 357.013 215.366L355.416 216.288C354.965 216.548 354.281 216.577 353.889 216.351Z" fill="#06033E"/>
<path d="M363.669 221.996L358.793 219.181C358.401 218.955 358.451 218.56 358.903 218.299L360.5 217.377C360.952 217.116 361.636 217.088 362.027 217.314L366.903 220.129C367.295 220.355 367.245 220.75 366.793 221.011L365.196 221.933C364.744 222.194 364.06 222.222 363.669 221.996Z" fill="#06033E"/>
<path d="M371.129 226.304L366.253 223.489C365.862 223.263 365.911 222.868 366.363 222.607L367.96 221.685C368.412 221.424 369.096 221.396 369.487 221.622L374.363 224.437C374.755 224.663 374.705 225.058 374.253 225.319L372.656 226.241C372.204 226.502 371.521 226.53 371.129 226.304Z" fill="#06033E"/>
<path d="M378.592 230.612L373.716 227.797C373.324 227.571 373.374 227.176 373.826 226.915L375.423 225.993C375.875 225.732 376.559 225.704 376.951 225.93L381.826 228.745C382.217 228.971 382.169 229.366 381.717 229.627L380.119 230.549C379.666 230.81 378.983 230.838 378.592 230.612Z" fill="#06033E"/>
<path d="M386.052 234.92L381.176 232.105C380.784 231.879 380.834 231.484 381.286 231.223L382.883 230.301C383.335 230.04 384.019 230.012 384.41 230.238L389.286 233.053C389.678 233.279 389.628 233.674 389.176 233.935L387.579 234.857C387.128 235.118 386.444 235.146 386.052 234.92Z" fill="#06033E"/>
<path d="M427.71 258.971L422.834 256.156C422.442 255.93 422.492 255.535 422.944 255.274L424.541 254.352C424.993 254.091 425.677 254.063 426.068 254.289L430.944 257.104C431.335 257.33 431.286 257.725 430.834 257.986L429.237 258.908C428.786 259.168 428.102 259.196 427.71 258.971Z" fill="#06033E"/>
<path d="M435.171 263.278L430.295 260.463C429.904 260.237 429.953 259.842 430.405 259.581L432.002 258.659C432.454 258.398 433.138 258.37 433.529 258.596L438.405 261.411C438.797 261.637 438.747 262.032 438.295 262.293L436.698 263.215C436.246 263.476 435.562 263.505 435.171 263.278Z" fill="#06033E"/>
<path d="M442.633 267.586L437.757 264.771C437.365 264.545 437.415 264.15 437.867 263.889L439.464 262.967C439.916 262.706 440.6 262.678 440.991 262.904L445.867 265.719C446.259 265.945 446.209 266.34 445.757 266.601L444.16 267.523C443.709 267.784 443.025 267.812 442.633 267.586Z" fill="#06033E"/>
<path d="M450.094 271.894L445.218 269.079C444.826 268.853 444.876 268.458 445.328 268.197L446.925 267.275C447.377 267.014 448.061 266.986 448.452 267.212L453.328 270.027C453.72 270.253 453.671 270.648 453.218 270.909L451.621 271.831C451.169 272.092 450.486 272.12 450.094 271.894Z" fill="#06033E"/>
<path d="M376.193 238.125L371.317 235.31C370.925 235.084 370.975 234.689 371.427 234.428L376.258 231.638C376.71 231.377 377.394 231.349 377.785 231.575L382.661 234.39C383.053 234.616 383.003 235.011 382.551 235.272L377.72 238.061C377.269 238.322 376.585 238.351 376.193 238.125Z" fill="#06033E"/>
<path d="M383.724 242.472L378.848 239.657C378.456 239.431 378.506 239.036 378.958 238.775L383.79 235.985C384.242 235.724 384.926 235.696 385.317 235.922L390.193 238.737C390.584 238.963 390.535 239.358 390.083 239.619L385.252 242.408C384.799 242.67 384.115 242.698 383.724 242.472Z" fill="#06033E"/>
<path d="M391.254 246.82L386.378 244.005C385.987 243.779 386.036 243.384 386.488 243.123L391.319 240.334C391.771 240.073 392.455 240.045 392.846 240.271L397.722 243.086C398.113 243.312 398.064 243.707 397.612 243.968L392.781 246.757C392.329 247.018 391.645 247.046 391.254 246.82Z" fill="#06033E"/>
<path d="M398.785 251.167L393.909 248.352C393.517 248.126 393.567 247.731 394.019 247.47L398.85 244.681C399.302 244.42 399.986 244.392 400.377 244.618L405.253 247.433C405.645 247.659 405.595 248.054 405.143 248.315L400.311 251.104C399.86 251.365 399.177 251.393 398.785 251.167Z" fill="#06033E"/>
<path d="M406.314 255.515L401.438 252.7C401.046 252.474 401.096 252.079 401.548 251.818L406.38 249.029C406.832 248.768 407.516 248.74 407.907 248.966L412.783 251.781C413.175 252.007 413.125 252.402 412.673 252.663L407.841 255.453C407.39 255.713 406.706 255.741 406.314 255.515Z" fill="#06033E"/>
<path d="M413.845 259.863L408.969 257.048C408.577 256.822 408.627 256.427 409.079 256.166L413.911 253.377C414.363 253.116 415.047 253.088 415.438 253.314L420.314 256.129C420.706 256.355 420.656 256.75 420.204 257.011L415.373 259.801C414.92 260.06 414.236 260.089 413.845 259.863Z" fill="#06033E"/>
<path d="M421.375 264.21L416.499 261.395C416.108 261.169 416.157 260.774 416.609 260.513L421.441 257.724C421.893 257.463 422.577 257.435 422.968 257.661L427.844 260.476C428.235 260.702 428.186 261.097 427.734 261.358L422.903 264.147C422.45 264.408 421.766 264.436 421.375 264.21Z" fill="#06033E"/>
<path d="M428.906 268.558L424.03 265.743C423.639 265.517 423.688 265.122 424.14 264.861L428.971 262.071C429.423 261.81 430.107 261.782 430.498 262.008L435.374 264.823C435.766 265.049 435.716 265.444 435.264 265.705L430.432 268.494C429.981 268.755 429.298 268.784 428.906 268.558Z" fill="#06033E"/>
<path d="M436.435 272.905L431.559 270.09C431.167 269.864 431.217 269.469 431.669 269.208L436.5 266.418C436.952 266.157 437.636 266.129 438.027 266.355L442.903 269.17C443.295 269.396 443.245 269.791 442.793 270.052L437.962 272.841C437.511 273.103 436.827 273.131 436.435 272.905Z" fill="#06033E"/>
<path d="M333.143 238.661L318.782 230.37C318.39 230.144 318.44 229.749 318.892 229.488L323.723 226.698C324.175 226.437 324.859 226.409 325.25 226.635L339.611 234.926C340.002 235.152 339.953 235.547 339.501 235.808L334.67 238.597C334.218 238.859 333.534 238.887 333.143 238.661Z" fill="#06033E"/>
<path d="M425.654 292.073L411.293 283.782C410.901 283.556 410.951 283.161 411.403 282.9L416.235 280.111C416.687 279.85 417.371 279.822 417.762 280.048L432.123 288.339C432.514 288.565 432.465 288.96 432.013 289.221L427.182 292.01C426.729 292.27 426.045 292.299 425.654 292.073Z" fill="#06033E"/>
<path d="M395.539 284.289L390.663 281.474C390.271 281.248 390.321 280.853 390.773 280.592L396.528 277.269C396.98 277.008 397.664 276.98 398.055 277.206L402.931 280.021C403.323 280.247 403.273 280.642 402.821 280.903L397.065 284.226C396.614 284.487 395.931 284.515 395.539 284.289Z" fill="#06033E"/>
<path d="M340.854 252.717L333.056 248.215C332.665 247.989 332.714 247.594 333.166 247.333L338.922 244.01C339.374 243.749 340.058 243.721 340.449 243.947L348.247 248.449C348.639 248.675 348.589 249.07 348.137 249.331L342.381 252.654C341.929 252.915 341.246 252.943 340.854 252.717Z" fill="#06033E"/>
<path d="M388.284 280.1L380.486 275.598C380.095 275.372 380.144 274.977 380.596 274.716L386.351 271.393C386.803 271.132 387.487 271.104 387.878 271.33L395.676 275.832C396.068 276.058 396.018 276.453 395.566 276.714L389.81 280.037C389.359 280.298 388.675 280.327 388.284 280.1Z" fill="#06033E"/>
<path d="M351.719 258.99L343.921 254.488C343.529 254.262 343.579 253.867 344.031 253.606L349.787 250.283C350.239 250.022 350.923 249.994 351.314 250.22L359.112 254.722C359.504 254.948 359.454 255.343 359.002 255.604L353.246 258.927C352.794 259.187 352.11 259.216 351.719 258.99Z" fill="#06033E"/>
<path d="M351.366 250.25L385.271 269.825C385.692 270.068 385.692 270.462 385.271 270.705L379.402 274.094C378.981 274.337 378.299 274.337 377.879 274.094L343.974 254.519L351.366 250.25Z" fill="#06033E"/>
<path d="M416.585 292.172L422.016 295.308C422.337 295.493 422.297 295.817 421.926 296.031L419.572 297.39C419.201 297.604 418.641 297.627 418.32 297.442L412.888 294.306C412.567 294.121 412.607 293.797 412.978 293.583L415.332 292.224C415.704 292.01 416.264 291.987 416.585 292.172Z" fill="#06033E"/>
<path d="M408.992 287.788L414.424 290.924C414.745 291.109 414.705 291.433 414.334 291.647L411.98 293.006C411.609 293.22 411.049 293.243 410.728 293.058L405.296 289.922C404.975 289.737 405.015 289.413 405.386 289.199L407.74 287.84C408.111 287.626 408.671 287.603 408.992 287.788Z" fill="#06033E"/>
<path d="M401.462 283.441L406.893 286.577C407.214 286.762 407.174 287.086 406.803 287.3L404.449 288.659C404.078 288.873 403.518 288.896 403.197 288.711L397.765 285.575C397.444 285.39 397.484 285.066 397.855 284.852L400.21 283.493C400.58 283.279 401.141 283.256 401.462 283.441Z" fill="#06033E"/>
<path d="M413.15 285.388L418.582 288.524C418.903 288.709 418.863 289.033 418.492 289.247L416.138 290.606C415.767 290.82 415.207 290.843 414.886 290.658L409.455 287.522C409.134 287.337 409.174 287.013 409.545 286.799L411.899 285.44C412.268 285.225 412.829 285.202 413.15 285.388Z" fill="#06033E"/>
</g>
<g opacity="0.4">
<path d="M315.341 237.987L310.465 235.172C310.073 234.946 310.123 234.551 310.575 234.29L316.331 230.967C316.783 230.706 317.467 230.678 317.858 230.904L322.734 233.719C323.126 233.945 323.076 234.34 322.624 234.601L316.868 237.924C316.416 238.185 315.733 238.213 315.341 237.987Z" fill="#06033E"/>
<path d="M322.871 242.335L317.995 239.52C317.603 239.294 317.653 238.899 318.105 238.638L323.86 235.315C324.312 235.054 324.996 235.026 325.387 235.252L330.263 238.067C330.655 238.293 330.605 238.688 330.153 238.949L324.397 242.272C323.947 242.532 323.263 242.561 322.871 242.335Z" fill="#06033E"/>
<path d="M330.401 246.682L325.525 243.867C325.133 243.641 325.183 243.246 325.635 242.985L331.391 239.662C331.843 239.401 332.527 239.373 332.918 239.599L337.794 242.414C338.186 242.64 338.136 243.035 337.684 243.296L331.929 246.619C331.476 246.88 330.792 246.908 330.401 246.682Z" fill="#06033E"/>
<path d="M340.815 243.092L335.939 240.277C335.547 240.051 335.597 239.656 336.049 239.395L340.881 236.606C341.333 236.345 342.017 236.317 342.408 236.543L347.284 239.358C347.676 239.584 347.626 239.979 347.174 240.24L342.343 243.029C341.891 243.29 341.207 243.318 340.815 243.092Z" fill="#06033E"/>
<path d="M348.346 247.44L343.47 244.625C343.078 244.399 343.128 244.004 343.58 243.743L348.411 240.954C348.863 240.693 349.547 240.665 349.938 240.891L354.814 243.706C355.206 243.932 355.156 244.327 354.704 244.588L349.873 247.378C349.421 247.637 348.737 247.665 348.346 247.44Z" fill="#06033E"/>
<path d="M355.877 251.787L351.001 248.972C350.609 248.746 350.659 248.351 351.111 248.09L355.942 245.301C356.394 245.04 357.078 245.012 357.47 245.238L362.346 248.053C362.737 248.279 362.688 248.674 362.236 248.935L357.405 251.725C356.952 251.985 356.268 252.013 355.877 251.787Z" fill="#06033E"/>
<path d="M363.407 256.135L358.531 253.32C358.139 253.094 358.189 252.699 358.641 252.438L363.472 249.649C363.924 249.388 364.608 249.36 364.999 249.586L369.875 252.401C370.267 252.627 370.217 253.022 369.765 253.283L364.933 256.072C364.483 256.332 363.799 256.361 363.407 256.135Z" fill="#06033E"/>
<path d="M370.936 260.482L366.06 257.667C365.668 257.441 365.718 257.046 366.17 256.785L371.001 253.996C371.453 253.735 372.137 253.707 372.528 253.933L377.404 256.748C377.796 256.974 377.746 257.369 377.294 257.63L372.462 260.419C372.012 260.68 371.328 260.708 370.936 260.482Z" fill="#06033E"/>
<path d="M378.468 264.83L373.591 262.015C373.199 261.789 373.249 261.394 373.701 261.133L378.533 258.343C378.985 258.082 379.669 258.054 380.06 258.28L384.936 261.095C385.328 261.321 385.278 261.716 384.826 261.977L379.994 264.766C379.542 265.028 378.859 265.056 378.468 264.83Z" fill="#06033E"/>
<path d="M385.997 269.178L381.121 266.363C380.73 266.137 380.779 265.742 381.231 265.481L386.063 262.692C386.515 262.431 387.199 262.403 387.59 262.629L392.466 265.444C392.857 265.67 392.808 266.065 392.356 266.326L387.525 269.115C387.072 269.375 386.388 269.403 385.997 269.178Z" fill="#06033E"/>
<path d="M393.528 273.525L388.652 270.71C388.261 270.484 388.31 270.089 388.762 269.828L393.593 267.039C394.045 266.778 394.729 266.75 395.12 266.976L399.996 269.791C400.387 270.017 400.338 270.412 399.886 270.673L395.054 273.462C394.604 273.723 393.92 273.751 393.528 273.525Z" fill="#06033E"/>
<path d="M401.057 277.873L396.181 275.058C395.789 274.832 395.839 274.437 396.291 274.176L401.123 271.387C401.575 271.126 402.259 271.098 402.65 271.324L407.526 274.139C407.918 274.365 407.868 274.76 407.416 275.021L402.584 277.811C402.133 278.07 401.449 278.099 401.057 277.873Z" fill="#06033E"/>
<path d="M408.589 282.22L403.713 279.405C403.321 279.179 403.371 278.784 403.823 278.523L408.655 275.734C409.107 275.473 409.791 275.445 410.182 275.671L415.058 278.486C415.45 278.712 415.4 279.107 414.948 279.368L410.117 282.158C409.664 282.418 408.98 282.446 408.589 282.22Z" fill="#06033E"/>
<path d="M351.912 241.034L347.036 238.219C346.644 237.993 346.694 237.598 347.146 237.337L351.977 234.548C352.429 234.287 353.113 234.259 353.504 234.485L358.38 237.3C358.772 237.526 358.722 237.921 358.27 238.182L353.438 240.971C352.987 241.231 352.303 241.26 351.912 241.034Z" fill="#06033E"/>
<path d="M344.268 236.621L339.392 233.806C339 233.58 339.05 233.185 339.502 232.924L344.334 230.135C344.786 229.874 345.47 229.846 345.861 230.072L350.737 232.887C351.129 233.113 351.079 233.508 350.627 233.769L345.796 236.558C345.344 236.819 344.66 236.847 344.268 236.621Z" fill="#06033E"/>
<path d="M336.614 232.201L326.112 226.138C325.72 225.912 325.77 225.517 326.222 225.256L331.053 222.467C331.505 222.206 332.189 222.178 332.58 222.404L343.082 228.467C343.474 228.693 343.424 229.088 342.972 229.349L338.141 232.138C337.689 232.399 337.005 232.427 336.614 232.201Z" fill="#06033E"/>
<path d="M341.965 226.827L333.442 221.906C333.051 221.68 333.1 221.285 333.552 221.024L338.383 218.235C338.835 217.974 339.519 217.946 339.91 218.172L348.433 223.093C348.825 223.319 348.775 223.714 348.323 223.975L343.491 226.764C343.04 227.024 342.356 227.052 341.965 226.827Z" fill="#06033E"/>
<path d="M359.441 245.381L354.565 242.566C354.173 242.34 354.223 241.945 354.675 241.684L359.507 238.895C359.959 238.634 360.643 238.606 361.034 238.832L365.91 241.647C366.301 241.873 366.252 242.268 365.8 242.529L360.969 245.318C360.516 245.579 359.832 245.607 359.441 245.381Z" fill="#06033E"/>
<path d="M366.972 249.729L362.096 246.914C361.705 246.688 361.754 246.293 362.206 246.032L367.037 243.243C367.489 242.982 368.173 242.954 368.564 243.18L373.44 245.995C373.831 246.221 373.782 246.616 373.33 246.877L368.499 249.666C368.048 249.927 367.364 249.955 366.972 249.729Z" fill="#06033E"/>
<path d="M374.503 254.076L369.627 251.261C369.235 251.035 369.285 250.64 369.737 250.379L374.568 247.59C375.02 247.329 375.704 247.301 376.095 247.527L380.971 250.342C381.362 250.568 381.313 250.963 380.861 251.224L376.029 254.013C375.578 254.274 374.894 254.302 374.503 254.076Z" fill="#06033E"/>
<path d="M382.033 258.424L377.157 255.609C376.765 255.383 376.815 254.988 377.267 254.727L382.099 251.938C382.551 251.677 383.235 251.649 383.626 251.875L388.502 254.69C388.894 254.916 388.844 255.311 388.392 255.572L383.56 258.361C383.108 258.622 382.424 258.65 382.033 258.424Z" fill="#06033E"/>
<path d="M389.562 262.772L384.686 259.957C384.294 259.731 384.344 259.336 384.796 259.075L389.628 256.286C390.08 256.025 390.764 255.997 391.155 256.223L396.031 259.038C396.423 259.264 396.373 259.659 395.921 259.92L391.09 262.71C390.638 262.969 389.954 262.998 389.562 262.772Z" fill="#06033E"/>
<path d="M397.092 267.119L392.216 264.304C391.825 264.078 391.874 263.683 392.326 263.422L397.158 260.633C397.61 260.372 398.294 260.344 398.685 260.57L403.561 263.385C403.953 263.611 403.903 264.006 403.451 264.267L398.62 267.056C398.168 267.317 397.484 267.345 397.092 267.119Z" fill="#06033E"/>
<path d="M404.623 271.467L399.747 268.652C399.356 268.426 399.405 268.031 399.857 267.77L404.688 264.981C405.14 264.72 405.824 264.692 406.215 264.918L411.091 267.733C411.483 267.959 411.433 268.354 410.981 268.615L406.149 271.404C405.698 271.665 405.014 271.693 404.623 271.467Z" fill="#06033E"/>
<path d="M412.154 275.814L407.278 272.999C406.886 272.773 406.936 272.378 407.388 272.117L412.219 269.328C412.671 269.067 413.355 269.039 413.746 269.265L418.622 272.08C419.014 272.306 418.964 272.701 418.512 272.962L413.681 275.751C413.229 276.012 412.545 276.04 412.154 275.814Z" fill="#06033E"/>
<path d="M419.683 280.162L414.807 277.347C414.415 277.121 414.465 276.726 414.917 276.465L419.749 273.676C420.201 273.415 420.885 273.387 421.276 273.613L426.152 276.428C426.544 276.654 426.494 277.049 426.042 277.31L421.21 280.099C420.759 280.36 420.075 280.388 419.683 280.162Z" fill="#06033E"/>
<path d="M433.07 287.891L422.431 281.748C422.039 281.522 422.089 281.127 422.541 280.866L427.373 278.077C427.825 277.816 428.509 277.788 428.9 278.014L439.539 284.157C439.93 284.383 439.881 284.778 439.429 285.039L434.598 287.828C434.146 288.089 433.462 288.117 433.07 287.891Z" fill="#06033E"/>
<path d="M447.731 279.427L438.751 274.242C438.36 274.016 438.409 273.621 438.861 273.36L443.692 270.571C444.144 270.31 444.828 270.282 445.219 270.508L454.199 275.693C454.591 275.919 454.541 276.314 454.089 276.575L449.257 279.364C448.806 279.625 448.122 279.653 447.731 279.427Z" fill="#06033E"/>
<path d="M372.629 244.531L367.753 241.716C367.361 241.49 367.411 241.095 367.863 240.834L372.694 238.045C373.146 237.784 373.83 237.756 374.221 237.982L379.097 240.797C379.489 241.023 379.439 241.418 378.987 241.679L374.156 244.468C373.704 244.728 373.021 244.756 372.629 244.531Z" fill="#06033E"/>
<path d="M364.911 240.075L360.035 237.26C359.644 237.034 359.693 236.639 360.145 236.378L364.976 233.589C365.428 233.328 366.112 233.3 366.503 233.526L371.379 236.341C371.77 236.567 371.721 236.962 371.269 237.223L366.437 240.012C365.986 240.272 365.302 240.301 364.911 240.075Z" fill="#06033E"/>
<path d="M357.193 235.619L352.317 232.804C351.925 232.578 351.975 232.183 352.427 231.922L357.258 229.132C357.71 228.871 358.394 228.843 358.785 229.069L363.661 231.884C364.053 232.11 364.003 232.505 363.551 232.766L358.719 235.555C358.268 235.817 357.585 235.845 357.193 235.619Z" fill="#06033E"/>
<path d="M349.475 231.163L344.599 228.348C344.207 228.122 344.257 227.727 344.709 227.466L349.541 224.677C349.993 224.416 350.677 224.388 351.068 224.614L355.944 227.429C356.336 227.655 356.286 228.05 355.834 228.311L351.003 231.1C350.551 231.361 349.867 231.389 349.475 231.163Z" fill="#06033E"/>
<path d="M380.159 248.878L375.283 246.063C374.891 245.837 374.941 245.442 375.393 245.181L380.224 242.392C380.676 242.131 381.36 242.103 381.751 242.329L386.627 245.144C387.018 245.37 386.969 245.765 386.517 246.026L381.686 248.816C381.235 249.076 380.551 249.104 380.159 248.878Z" fill="#06033E"/>
<path d="M387.689 253.226L382.813 250.411C382.421 250.185 382.471 249.79 382.923 249.529L387.754 246.74C388.206 246.479 388.89 246.451 389.281 246.677L394.157 249.492C394.549 249.718 394.499 250.113 394.047 250.374L389.215 253.164C388.764 253.423 388.08 253.452 387.689 253.226Z" fill="#06033E"/>
<path d="M395.219 257.573L390.343 254.758C389.951 254.532 390.001 254.137 390.453 253.876L395.284 251.086C395.736 250.825 396.42 250.797 396.811 251.023L401.687 253.838C402.079 254.064 402.029 254.459 401.577 254.72L396.745 257.509C396.294 257.771 395.611 257.799 395.219 257.573Z" fill="#06033E"/>
<path d="M402.75 261.921L397.874 259.106C397.482 258.88 397.532 258.485 397.984 258.224L402.816 255.434C403.268 255.173 403.952 255.145 404.343 255.371L409.219 258.186C409.611 258.412 409.561 258.807 409.109 259.068L404.277 261.857C403.826 262.119 403.142 262.147 402.75 261.921Z" fill="#06033E"/>
<path d="M410.281 266.268L405.405 263.453C405.014 263.227 405.063 262.832 405.515 262.571L410.347 259.782C410.799 259.521 411.483 259.493 411.874 259.719L416.75 262.534C417.141 262.76 417.092 263.155 416.64 263.416L411.809 266.205C411.356 266.466 410.672 266.495 410.281 266.268Z" fill="#06033E"/>
<path d="M417.811 270.616L412.935 267.801C412.544 267.575 412.593 267.18 413.045 266.919L417.876 264.13C418.328 263.869 419.012 263.841 419.403 264.067L424.279 266.882C424.67 267.108 424.621 267.503 424.169 267.764L419.337 270.553C418.886 270.814 418.202 270.842 417.811 270.616Z" fill="#06033E"/>
<path d="M425.341 274.964L420.465 272.149C420.073 271.923 420.123 271.528 420.575 271.267L425.407 268.478C425.859 268.217 426.543 268.189 426.934 268.415L431.81 271.23C432.202 271.456 432.152 271.851 431.7 272.112L426.868 274.901C426.416 275.161 425.733 275.19 425.341 274.964Z" fill="#06033E"/>
<path d="M432.871 279.311L427.995 276.496C427.603 276.27 427.653 275.875 428.105 275.614L432.937 272.825C433.389 272.564 434.073 272.536 434.464 272.762L439.34 275.577C439.732 275.803 439.682 276.198 439.23 276.459L434.399 279.248C433.947 279.509 433.263 279.537 432.871 279.311Z" fill="#06033E"/>
<path d="M440.401 283.659L435.525 280.844C435.133 280.618 435.183 280.223 435.635 279.962L440.467 277.173C440.919 276.912 441.603 276.884 441.994 277.11L446.87 279.925C447.262 280.151 447.212 280.546 446.76 280.807L441.929 283.596C441.476 283.857 440.792 283.885 440.401 283.659Z" fill="#06033E"/>
<path d="M368.664 233.777L363.788 230.962C363.396 230.736 363.446 230.341 363.898 230.08L368.729 227.291C369.181 227.03 369.865 227.002 370.256 227.228L375.132 230.043C375.524 230.269 375.474 230.664 375.022 230.925L370.191 233.715C369.739 233.975 369.056 234.003 368.664 233.777Z" fill="#06033E"/>
<path d="M361.171 229.451L356.295 226.636C355.903 226.41 355.953 226.015 356.405 225.754L361.237 222.964C361.689 222.703 362.373 222.675 362.764 222.901L367.64 225.716C368.032 225.942 367.982 226.337 367.53 226.598L362.698 229.388C362.247 229.649 361.563 229.677 361.171 229.451Z" fill="#06033E"/>
<path d="M353.677 225.125L348.801 222.31C348.409 222.084 348.459 221.689 348.911 221.428L353.743 218.639C354.195 218.378 354.879 218.35 355.27 218.576L360.146 221.391C360.538 221.617 360.488 222.012 360.036 222.273L355.205 225.062C354.753 225.323 354.069 225.351 353.677 225.125Z" fill="#06033E"/>
<path d="M346.185 220.799L341.309 217.984C340.917 217.758 340.967 217.363 341.419 217.102L346.251 214.313C346.703 214.052 347.387 214.024 347.778 214.25L352.654 217.065C353.046 217.291 352.996 217.686 352.544 217.947L347.713 220.736C347.26 220.997 346.576 221.025 346.185 220.799Z" fill="#06033E"/>
<path d="M353.889 216.351L349.013 213.536C348.621 213.31 348.671 212.915 349.123 212.654L350.72 211.732C351.172 211.471 351.856 211.443 352.247 211.669L357.123 214.484C357.514 214.71 357.465 215.105 357.013 215.366L355.416 216.288C354.965 216.548 354.281 216.577 353.889 216.351Z" fill="#06033E"/>
<path d="M363.669 221.996L358.793 219.181C358.401 218.955 358.451 218.56 358.903 218.299L360.5 217.377C360.952 217.116 361.636 217.088 362.027 217.314L366.903 220.129C367.295 220.355 367.245 220.75 366.793 221.011L365.196 221.933C364.744 222.194 364.06 222.222 363.669 221.996Z" fill="#06033E"/>
<path d="M371.129 226.304L366.253 223.489C365.862 223.263 365.911 222.868 366.363 222.607L367.96 221.685C368.412 221.424 369.096 221.396 369.487 221.622L374.363 224.437C374.755 224.663 374.705 225.058 374.253 225.319L372.656 226.241C372.204 226.502 371.521 226.53 371.129 226.304Z" fill="#06033E"/>
<path d="M378.592 230.612L373.716 227.797C373.324 227.571 373.374 227.176 373.826 226.915L375.423 225.993C375.875 225.732 376.559 225.704 376.951 225.93L381.826 228.745C382.217 228.971 382.169 229.366 381.717 229.627L380.119 230.549C379.666 230.81 378.983 230.838 378.592 230.612Z" fill="#06033E"/>
<path d="M386.052 234.92L381.176 232.105C380.784 231.879 380.834 231.484 381.286 231.223L382.883 230.301C383.335 230.04 384.019 230.012 384.41 230.238L389.286 233.053C389.678 233.279 389.628 233.674 389.176 233.935L387.579 234.857C387.128 235.118 386.444 235.146 386.052 234.92Z" fill="#06033E"/>
<path d="M427.71 258.971L422.834 256.156C422.442 255.93 422.492 255.535 422.944 255.274L424.541 254.352C424.993 254.091 425.677 254.063 426.068 254.289L430.944 257.104C431.335 257.33 431.286 257.725 430.834 257.986L429.237 258.908C428.786 259.168 428.102 259.196 427.71 258.971Z" fill="#06033E"/>
<path d="M435.171 263.278L430.295 260.463C429.904 260.237 429.953 259.842 430.405 259.581L432.002 258.659C432.454 258.398 433.138 258.37 433.529 258.596L438.405 261.411C438.797 261.637 438.747 262.032 438.295 262.293L436.698 263.215C436.246 263.476 435.562 263.505 435.171 263.278Z" fill="#06033E"/>
<path d="M442.633 267.586L437.757 264.771C437.365 264.545 437.415 264.15 437.867 263.889L439.464 262.967C439.916 262.706 440.6 262.678 440.991 262.904L445.867 265.719C446.259 265.945 446.209 266.34 445.757 266.601L444.16 267.523C443.709 267.784 443.025 267.812 442.633 267.586Z" fill="#06033E"/>
<path d="M450.094 271.894L445.218 269.079C444.826 268.853 444.876 268.458 445.328 268.197L446.925 267.275C447.377 267.014 448.061 266.986 448.452 267.212L453.328 270.027C453.72 270.253 453.671 270.648 453.218 270.909L451.621 271.831C451.169 272.092 450.486 272.12 450.094 271.894Z" fill="#06033E"/>
<path d="M376.193 238.125L371.317 235.31C370.925 235.084 370.975 234.689 371.427 234.428L376.258 231.638C376.71 231.377 377.394 231.349 377.785 231.575L382.661 234.39C383.053 234.616 383.003 235.011 382.551 235.272L377.72 238.061C377.269 238.322 376.585 238.351 376.193 238.125Z" fill="#06033E"/>
<path d="M383.724 242.472L378.848 239.657C378.456 239.431 378.506 239.036 378.958 238.775L383.79 235.985C384.242 235.724 384.926 235.696 385.317 235.922L390.193 238.737C390.584 238.963 390.535 239.358 390.083 239.619L385.252 242.408C384.799 242.67 384.115 242.698 383.724 242.472Z" fill="#06033E"/>
<path d="M391.254 246.82L386.378 244.005C385.987 243.779 386.036 243.384 386.488 243.123L391.319 240.334C391.771 240.073 392.455 240.045 392.846 240.271L397.722 243.086C398.113 243.312 398.064 243.707 397.612 243.968L392.781 246.757C392.329 247.018 391.645 247.046 391.254 246.82Z" fill="#06033E"/>
<path d="M398.785 251.167L393.909 248.352C393.517 248.126 393.567 247.731 394.019 247.47L398.85 244.681C399.302 244.42 399.986 244.392 400.377 244.618L405.253 247.433C405.645 247.659 405.595 248.054 405.143 248.315L400.311 251.104C399.86 251.365 399.177 251.393 398.785 251.167Z" fill="#06033E"/>
<path d="M406.314 255.515L401.438 252.7C401.046 252.474 401.096 252.079 401.548 251.818L406.38 249.029C406.832 248.768 407.516 248.74 407.907 248.966L412.783 251.781C413.175 252.007 413.125 252.402 412.673 252.663L407.841 255.453C407.39 255.713 406.706 255.741 406.314 255.515Z" fill="#06033E"/>
<path d="M413.845 259.863L408.969 257.048C408.577 256.822 408.627 256.427 409.079 256.166L413.911 253.377C414.363 253.116 415.047 253.088 415.438 253.314L420.314 256.129C420.706 256.355 420.656 256.75 420.204 257.011L415.373 259.801C414.92 260.06 414.236 260.089 413.845 259.863Z" fill="#06033E"/>
<path d="M421.375 264.21L416.499 261.395C416.108 261.169 416.157 260.774 416.609 260.513L421.441 257.724C421.893 257.463 422.577 257.435 422.968 257.661L427.844 260.476C428.235 260.702 428.186 261.097 427.734 261.358L422.903 264.147C422.45 264.408 421.766 264.436 421.375 264.21Z" fill="#06033E"/>
<path d="M428.906 268.558L424.03 265.743C423.639 265.517 423.688 265.122 424.14 264.861L428.971 262.071C429.423 261.81 430.107 261.782 430.498 262.008L435.374 264.823C435.766 265.049 435.716 265.444 435.264 265.705L430.432 268.494C429.981 268.755 429.298 268.784 428.906 268.558Z" fill="#06033E"/>
<path d="M436.435 272.905L431.559 270.09C431.167 269.864 431.217 269.469 431.669 269.208L436.5 266.418C436.952 266.157 437.636 266.129 438.027 266.355L442.903 269.17C443.295 269.396 443.245 269.791 442.793 270.052L437.962 272.841C437.511 273.103 436.827 273.131 436.435 272.905Z" fill="#06033E"/>
<path d="M333.143 238.661L318.782 230.37C318.39 230.144 318.44 229.749 318.892 229.488L323.723 226.698C324.175 226.437 324.859 226.409 325.25 226.635L339.611 234.926C340.002 235.152 339.953 235.547 339.501 235.808L334.67 238.597C334.218 238.859 333.534 238.887 333.143 238.661Z" fill="#06033E"/>
<path d="M425.654 292.073L411.293 283.782C410.901 283.556 410.951 283.161 411.403 282.9L416.235 280.111C416.687 279.85 417.371 279.822 417.762 280.048L432.123 288.339C432.514 288.565 432.465 288.96 432.013 289.221L427.182 292.01C426.729 292.27 426.045 292.299 425.654 292.073Z" fill="#06033E"/>
<path d="M395.539 284.289L390.663 281.474C390.271 281.248 390.321 280.853 390.773 280.592L396.528 277.269C396.98 277.008 397.664 276.98 398.055 277.206L402.931 280.021C403.323 280.247 403.273 280.642 402.821 280.903L397.065 284.226C396.614 284.487 395.931 284.515 395.539 284.289Z" fill="#06033E"/>
<path d="M340.854 252.717L333.056 248.215C332.665 247.989 332.714 247.594 333.166 247.333L338.922 244.01C339.374 243.749 340.058 243.721 340.449 243.947L348.247 248.449C348.639 248.675 348.589 249.07 348.137 249.331L342.381 252.654C341.929 252.915 341.246 252.943 340.854 252.717Z" fill="#06033E"/>
<path d="M388.284 280.1L380.486 275.598C380.095 275.372 380.144 274.977 380.596 274.716L386.351 271.393C386.803 271.132 387.487 271.104 387.878 271.33L395.676 275.832C396.068 276.058 396.018 276.453 395.566 276.714L389.81 280.037C389.359 280.298 388.675 280.327 388.284 280.1Z" fill="#06033E"/>
<path d="M351.719 258.99L343.921 254.488C343.529 254.262 343.579 253.867 344.031 253.606L349.787 250.283C350.239 250.022 350.923 249.994 351.314 250.22L359.112 254.722C359.504 254.948 359.454 255.343 359.002 255.604L353.246 258.927C352.794 259.187 352.11 259.216 351.719 258.99Z" fill="#06033E"/>
<path d="M351.366 250.25L385.271 269.825C385.692 270.068 385.692 270.462 385.271 270.705L379.402 274.094C378.981 274.337 378.299 274.337 377.879 274.094L343.974 254.519L351.366 250.25Z" fill="#06033E"/>
<path d="M416.585 292.172L422.016 295.308C422.337 295.493 422.297 295.817 421.926 296.031L419.572 297.39C419.201 297.604 418.641 297.627 418.32 297.442L412.888 294.306C412.567 294.121 412.607 293.797 412.978 293.583L415.332 292.224C415.704 292.01 416.264 291.987 416.585 292.172Z" fill="#06033E"/>
<path d="M408.992 287.788L414.424 290.924C414.745 291.109 414.705 291.433 414.334 291.647L411.98 293.006C411.609 293.22 411.049 293.243 410.728 293.058L405.296 289.922C404.975 289.737 405.015 289.413 405.386 289.199L407.74 287.84C408.111 287.626 408.671 287.603 408.992 287.788Z" fill="#06033E"/>
<path d="M401.462 283.441L406.893 286.577C407.214 286.762 407.174 287.086 406.803 287.3L404.449 288.659C404.078 288.873 403.518 288.896 403.197 288.711L397.765 285.575C397.444 285.39 397.484 285.066 397.855 284.852L400.21 283.493C400.58 283.279 401.141 283.256 401.462 283.441Z" fill="#06033E"/>
<path d="M413.15 285.388L418.582 288.524C418.903 288.709 418.863 289.033 418.492 289.247L416.138 290.606C415.767 290.82 415.207 290.843 414.886 290.658L409.455 287.522C409.134 287.337 409.174 287.013 409.545 286.799L411.899 285.44C412.268 285.225 412.829 285.202 413.15 285.388Z" fill="#06033E"/>
</g>
<path d="M492.846 276.592L348.984 193.533C346.722 192.227 345.541 189.045 346.347 186.425L378.881 80.7941C379.687 78.1751 382.174 77.1101 384.436 78.4161L528.298 161.475C530.56 162.781 531.741 165.963 530.935 168.583L498.401 274.214C497.595 276.833 495.108 277.898 492.846 276.592Z" fill="url(#paint7_radial_127_770)"/>
<path d="M491.49 272.893L351.952 192.264C349.787 191.014 348.657 187.969 349.428 185.462L380.532 84.4793C381.303 81.9723 383.683 80.9533 385.848 82.2033L525.386 162.832C527.551 164.082 528.681 167.127 527.91 169.634L496.806 270.617C496.034 273.124 493.654 274.143 491.49 272.893Z" fill="url(#paint8_linear_127_770)"/>
<path opacity="0.4" d="M491.49 272.893L351.952 192.264C349.787 191.014 348.657 187.969 349.428 185.462L380.532 84.4793C381.303 81.9723 383.683 80.9533 385.848 82.2033L525.386 162.832C527.551 164.082 528.681 167.127 527.91 169.634L496.806 270.617C496.034 273.124 493.654 274.143 491.49 272.893Z" fill="#06033E"/>
<path opacity="0.4" d="M491.49 272.893L351.952 192.264C349.787 191.014 348.657 187.969 349.428 185.462L380.532 84.4793C381.303 81.9723 383.683 80.9533 385.848 82.2033L525.386 162.832C527.551 164.082 528.681 167.127 527.91 169.634L496.806 270.617C496.034 273.124 493.654 274.143 491.49 272.893Z" fill="#06033E"/>
<path opacity="0.5" d="M483.993 242.033L389.533 187.497C388.048 186.639 387.272 184.55 387.801 182.83L409.163 113.472C409.692 111.752 411.325 111.053 412.81 111.911L507.27 166.447C508.755 167.304 509.531 169.394 509.002 171.114L487.64 240.472C487.111 242.191 485.478 242.89 483.993 242.033Z" fill="#06033E"/>
<path d="M471.23 243.707L376.77 189.171C375.285 188.314 374.509 186.224 375.038 184.504L396.4 115.146C396.929 113.426 398.562 112.727 400.047 113.584L494.507 168.12C495.992 168.978 496.768 171.067 496.238 172.787L474.876 242.145C474.349 243.865 472.716 244.565 471.23 243.707Z" fill="url(#paint9_radial_127_770)"/>
<g opacity="0.5">
<path d="M471.23 243.707L376.77 189.171C375.285 188.314 374.509 186.224 375.038 184.504L396.4 115.146C396.929 113.426 398.562 112.727 400.047 113.584L494.507 168.12C495.992 168.978 496.768 171.067 496.238 172.787L474.876 242.145C474.349 243.865 472.716 244.565 471.23 243.707Z" fill="#06033E"/>
</g>
<path d="M494.508 168.121L400.048 113.585C399.117 113.047 398.129 113.122 397.39 113.675C397.836 113.662 398.3 113.762 398.754 114.025L493.214 168.561C494.699 169.418 495.474 171.508 494.945 173.228L473.583 242.586C473.385 243.228 473.033 243.727 472.593 244.057C473.606 244.027 474.509 243.341 474.877 242.146L496.239 172.788C496.769 171.068 495.993 168.978 494.508 168.121Z" fill="white"/>
<path opacity="0.4" d="M352.093 300.345C350.792 300.345 349.545 300.074 348.593 299.526L310.748 277.676C309.745 277.096 309.193 276.269 309.193 275.344C309.192 274.272 309.954 273.217 311.28 272.451L330.76 261.203C333.14 259.83 336.634 259.694 338.717 260.896L376.562 282.746C377.565 283.325 378.117 284.152 378.117 285.077C378.118 286.15 377.356 287.205 376.03 287.971L356.55 299.218C355.259 299.964 353.637 300.345 352.093 300.345ZM335.237 261.182C333.868 261.182 332.415 261.511 331.308 262.15L311.828 273.398C310.848 273.963 310.286 274.673 310.286 275.344C310.286 276.007 310.835 276.463 311.296 276.729L349.141 298.579C350.856 299.57 353.999 299.431 356.004 298.272L375.484 287.025C376.463 286.46 377.026 285.75 377.026 285.078C377.026 284.415 376.477 283.959 376.016 283.694L338.171 261.843C337.403 261.398 336.348 261.182 335.237 261.182Z" fill="#06033E"/>
<path d="M423.055 149.972L417.215 146.6C416.673 146.287 416.383 145.535 416.566 144.921C416.749 144.306 417.337 144.062 417.879 144.375L423.719 147.747C424.261 148.06 424.551 148.812 424.368 149.426C424.185 150.04 423.597 150.284 423.055 149.972Z" fill="white"/>
<path d="M436.966 158.003L428.355 153.032C427.813 152.719 427.523 151.967 427.706 151.353C427.889 150.738 428.477 150.494 429.019 150.807L437.63 155.779C438.172 156.092 438.462 156.844 438.279 157.458C438.096 158.071 437.508 158.316 436.966 158.003Z" fill="white"/>
<path d="M411.278 175.971L405.438 172.599C404.896 172.286 404.606 171.534 404.789 170.92C404.972 170.305 405.56 170.061 406.102 170.374L411.942 173.746C412.484 174.059 412.774 174.811 412.591 175.425C412.408 176.039 411.82 176.284 411.278 175.971Z" fill="white"/>
<path d="M423.678 183.131L415.067 178.159C414.525 177.846 414.235 177.094 414.418 176.48C414.601 175.865 415.189 175.621 415.731 175.934L424.342 180.906C424.884 181.219 425.174 181.971 424.991 182.585C424.808 183.199 424.22 183.443 423.678 183.131Z" fill="white"/>
<path d="M405.562 145.338L401.914 143.232C401.372 142.919 401.082 142.167 401.265 141.553C401.448 140.938 402.036 140.694 402.578 141.007L406.226 143.113C406.768 143.426 407.058 144.178 406.875 144.792C406.691 145.406 406.104 145.651 405.562 145.338Z" fill="white"/>
<path d="M416.539 157.142L405.393 150.707C404.851 150.394 404.561 149.642 404.744 149.028C404.927 148.413 405.515 148.169 406.057 148.482L417.203 154.917C417.745 155.23 418.035 155.982 417.852 156.596C417.669 157.211 417.081 157.455 416.539 157.142Z" fill="white"/>
<path d="M406.259 162.14L402.611 160.034C402.069 159.721 401.779 158.969 401.962 158.355C402.145 157.74 402.733 157.496 403.275 157.809L406.923 159.915C407.465 160.228 407.755 160.98 407.572 161.594C407.388 162.208 406.8 162.453 406.259 162.14Z" fill="white"/>
<path d="M425.023 194.84L415.279 189.214C414.737 188.901 414.447 188.149 414.63 187.535C414.813 186.92 415.401 186.676 415.943 186.989L425.687 192.615C426.229 192.928 426.519 193.68 426.336 194.294C426.152 194.908 425.565 195.153 425.023 194.84Z" fill="white"/>
<path d="M402.17 170.713L399.828 169.361C399.286 169.048 398.996 168.296 399.179 167.682C399.362 167.067 399.95 166.823 400.492 167.136L402.834 168.488C403.376 168.801 403.666 169.553 403.483 170.167C403.299 170.781 402.712 171.025 402.17 170.713Z" fill="white"/>
<path d="M399.954 180.366L397.046 178.687C396.504 178.374 396.214 177.622 396.397 177.008C396.58 176.393 397.168 176.149 397.71 176.461L400.618 178.14C401.16 178.453 401.45 179.205 401.267 179.819C401.083 180.434 400.496 180.679 399.954 180.366Z" fill="white"/>
<path d="M411.267 186.898L403.6 182.471C403.058 182.158 402.768 181.406 402.951 180.792C403.134 180.177 403.722 179.933 404.264 180.245L411.931 184.672C412.473 184.985 412.763 185.737 412.58 186.351C412.397 186.966 411.809 187.211 411.267 186.898Z" fill="white"/>
<path d="M401.167 186.533L395.655 183.35C395.113 183.037 394.823 182.285 395.006 181.671C395.189 181.056 395.777 180.812 396.319 181.125L401.831 184.308C402.373 184.621 402.663 185.373 402.48 185.987C402.297 186.601 401.709 186.846 401.167 186.533Z" fill="white"/>
<path d="M433.382 199.69L429.842 197.646C429.3 197.333 429.01 196.581 429.193 195.967C429.376 195.352 429.964 195.108 430.506 195.421L434.046 197.465C434.588 197.778 434.878 198.53 434.695 199.144C434.512 199.758 433.924 200.002 433.382 199.69Z" fill="white"/>
<path d="M419.829 169.975L410.085 164.349C409.543 164.036 409.253 163.284 409.436 162.67C409.619 162.055 410.207 161.811 410.749 162.124L420.493 167.75C421.035 168.063 421.325 168.815 421.142 169.429C420.958 170.043 420.371 170.288 419.829 169.975Z" fill="white"/>
<path d="M420.985 165.175L404.003 155.37C403.461 155.057 403.171 154.305 403.354 153.691C403.537 153.076 404.125 152.832 404.667 153.145L421.649 162.95C422.191 163.263 422.481 164.015 422.298 164.629C422.114 165.243 421.527 165.488 420.985 165.175Z" fill="#E8975B"/>
<path d="M410.963 170.323L401.219 164.697C400.677 164.384 400.387 163.632 400.57 163.018C400.753 162.403 401.341 162.159 401.883 162.471L411.627 168.097C412.169 168.41 412.459 169.162 412.276 169.776C412.093 170.391 411.505 170.636 410.963 170.323Z" fill="#E8975B"/>
<path d="M427.219 174.242L423.679 172.198C423.137 171.885 422.847 171.133 423.03 170.519C423.213 169.904 423.801 169.66 424.343 169.972L427.883 172.016C428.425 172.329 428.715 173.081 428.532 173.695C428.349 174.31 427.761 174.554 427.219 174.242Z" fill="#E8975B"/>
<path d="M463.23 173.167L442.265 161.063C441.723 160.75 441.433 159.998 441.616 159.384C441.799 158.769 442.387 158.525 442.929 158.838L463.894 170.942C464.436 171.255 464.726 172.007 464.543 172.621C464.36 173.235 463.772 173.479 463.23 173.167Z" fill="#E8975B"/>
<path d="M410.15 180.786L398.437 174.024C397.895 173.711 397.605 172.959 397.788 172.345C397.971 171.73 398.559 171.486 399.101 171.799L410.814 178.561C411.356 178.874 411.646 179.626 411.463 180.24C411.279 180.854 410.691 181.099 410.15 180.786Z" fill="#F8359E"/>
<path d="M411.916 143.54L403.305 138.569C402.763 138.256 402.473 137.504 402.656 136.89C402.839 136.275 403.427 136.031 403.969 136.344L412.58 141.315C413.122 141.628 413.412 142.38 413.229 142.994C413.045 143.608 412.458 143.853 411.916 143.54Z" fill="#F8359E"/>
<path d="M399.366 190.96L389.393 185.202C388.851 184.889 388.561 184.137 388.744 183.523C388.927 182.908 389.515 182.664 390.057 182.977L400.03 188.735C400.572 189.048 400.862 189.8 400.679 190.414C400.496 191.028 399.908 191.273 399.366 190.96Z" fill="#E8975B"/>
<path d="M463.315 160.474L459.046 158.01C458.65 157.781 458.438 157.232 458.572 156.783C458.706 156.334 459.136 156.155 459.532 156.384L463.801 158.848C464.197 159.077 464.409 159.626 464.275 160.075C464.141 160.524 463.711 160.703 463.315 160.474Z" fill="white"/>
<path d="M471.458 165.175L467.189 162.711C466.793 162.482 466.581 161.933 466.715 161.484C466.849 161.035 467.279 160.856 467.675 161.085L471.943 163.549C472.339 163.778 472.551 164.327 472.417 164.776C472.283 165.225 471.854 165.403 471.458 165.175Z" fill="white"/>
<path d="M479.601 169.876L475.333 167.412C474.937 167.183 474.725 166.634 474.859 166.185C474.993 165.736 475.423 165.557 475.819 165.786L480.088 168.25C480.484 168.479 480.696 169.028 480.562 169.477C480.426 169.925 479.997 170.104 479.601 169.876Z" fill="white"/>
<path d="M483.602 172.189L483.474 172.112C483.078 171.883 482.865 171.334 482.999 170.885C483.133 170.436 483.563 170.257 483.959 170.486L484.087 170.563C484.483 170.792 484.695 171.341 484.561 171.79C484.428 172.239 483.998 172.418 483.602 172.189Z" fill="#F8359E"/>
</g>
<defs>
<radialGradient id="paint0_radial_127_770" cx="0" cy="0" r="1" gradientUnits="userSpaceOnUse" gradientTransform="translate(276.828 191.167) scale(300.174 300.174)">
<stop stop-color="#131060"/>
<stop offset="0.2279" stop-color="#100D58"/>
<stop offset="1" stop-color="#06033E"/>
</radialGradient>
<linearGradient id="paint1_linear_127_770" x1="470.846" y1="361.757" x2="502.895" y2="361.757" gradientUnits="userSpaceOnUse">
<stop stop-color="#E39A65"/>
<stop offset="1" stop-color="#E95F8D"/>
</linearGradient>
<linearGradient id="paint2_linear_127_770" x1="259.789" y1="190.914" x2="314.006" y2="190.914" gradientUnits="userSpaceOnUse">
<stop stop-color="#E39A65"/>
<stop offset="1" stop-color="#E95F8D"/>
</linearGradient>
<linearGradient id="paint3_linear_127_770" x1="223" y1="288.798" x2="514.797" y2="288.798" gradientUnits="userSpaceOnUse">
<stop stop-color="#E39A65"/>
<stop offset="1" stop-color="#E95F8D"/>
</linearGradient>
<radialGradient id="paint4_radial_127_770" cx="0" cy="0" r="1" gradientUnits="userSpaceOnUse" gradientTransform="translate(384.206 72.3433) scale(223.296 223.296)">
<stop stop-color="#E39A65"/>
<stop offset="0.4742" stop-color="#A92FFB"/>
<stop offset="0.5947" stop-color="#891CFB"/>
<stop offset="0.7421" stop-color="#6507FA"/>
<stop offset="0.8016" stop-color="#0D0C6F"/>
</radialGradient>
<radialGradient id="paint5_radial_127_770" cx="0" cy="0" r="1" gradientUnits="userSpaceOnUse" gradientTransform="translate(247.633 251.666) scale(244.172 244.172)">
<stop stop-color="#E39A65"/>
<stop offset="0.4742" stop-color="#A92FFB"/>
<stop offset="0.5679" stop-color="#891CFB"/>
<stop offset="0.6825" stop-color="#6507FA"/>
<stop offset="0.7381" stop-color="#0D0C6F"/>
</radialGradient>
<radialGradient id="paint6_radial_127_770" cx="0" cy="0" r="1" gradientUnits="userSpaceOnUse" gradientTransform="translate(270.091 202.657) scale(218.96 218.96)">
<stop stop-color="#E39A65"/>
<stop offset="0.4742" stop-color="#A92FFB"/>
<stop offset="0.5875" stop-color="#891CFB"/>
<stop offset="0.7262" stop-color="#6507FA"/>
<stop offset="1" stop-color="#3919BB"/>
</radialGradient>
<radialGradient id="paint7_radial_127_770" cx="0" cy="0" r="1" gradientUnits="userSpaceOnUse" gradientTransform="translate(324.638 118.921) scale(223.341 223.341)">
<stop stop-color="#E39A65"/>
<stop offset="0.4742" stop-color="#A92FFB"/>
<stop offset="0.5875" stop-color="#891CFB"/>
<stop offset="0.7262" stop-color="#6507FA"/>
<stop offset="1" stop-color="#3919BB"/>
</radialGradient>
<linearGradient id="paint8_linear_127_770" x1="349.185" y1="177.548" x2="528.152" y2="177.548" gradientUnits="userSpaceOnUse">
<stop stop-color="#3919BB"/>
<stop offset="1" stop-color="#6507FA"/>
</linearGradient>
<radialGradient id="paint9_radial_127_770" cx="0" cy="0" r="1" gradientUnits="userSpaceOnUse" gradientTransform="translate(243.106 71.2274) scale(347.848 347.848)">
<stop stop-color="#E39A65"/>
<stop offset="0.4742" stop-color="#A92FFB"/>
<stop offset="0.5875" stop-color="#891CFB"/>
<stop offset="0.7262" stop-color="#6507FA"/>
<stop offset="1" stop-color="#3919BB"/>
</radialGradient>
</defs>
</svg>
