<svg width="75" height="75" viewBox="0 0 75 75" fill="none" xmlns="http://www.w3.org/2000/svg">
<mask id="mask0_86_8" style="mask-type:alpha" maskUnits="userSpaceOnUse" x="0" y="0" width="75" height="75">
<rect width="75" height="75" fill="#D9D9D9"/>
</mask>
<g mask="url(#mask0_86_8)">
<path d="M19.2708 27.3217C19.0558 26.4616 18.1957 26.0315 17.3355 26.2466C13.3932 27.3217 10.2394 30.4756 9.1642 34.4179C8.94917 35.278 9.45091 36.1382 10.2394 36.3532C10.3827 36.4249 10.5261 36.4249 10.6694 36.4249C11.3862 36.4249 11.9597 35.9948 12.1747 35.278C12.9632 32.4109 15.2569 30.1172 18.124 29.3287C18.9841 28.9703 19.4859 28.1102 19.2708 27.3217Z" fill="#0A175C"/>
<path d="M20.4897 31.479C17.1925 31.479 14.4688 34.2028 14.4688 37.5C14.4688 40.7972 17.1925 43.521 20.4897 43.521C23.7869 43.521 26.5107 40.7972 26.5107 37.5C26.5107 34.2028 23.7869 31.479 20.4897 31.479ZM20.4897 40.3671C18.9128 40.3671 17.6226 39.0769 17.6226 37.5C17.6226 35.9231 18.9128 34.6329 20.4897 34.6329C22.0667 34.6329 23.3569 35.9231 23.3569 37.5C23.3569 39.0769 22.0667 40.3671 20.4897 40.3671Z" fill="#0A175C"/>
<path d="M69.5175 17H30.8112C29.9511 17 29.2343 17.7168 29.2343 18.5769V22.3759C26.6538 20.8706 23.6434 20.0105 20.4895 20.0105C10.8129 20.0105 3 27.8951 3 37.5C3 47.1766 10.8129 54.9895 20.4895 54.9895C23.715 54.9895 26.6538 54.1294 29.2343 52.6241V56.4231C29.2343 57.2832 29.9511 58 30.8112 58H69.5175C70.3776 58 71.0944 57.2832 71.0944 56.4231V18.5769C71.0944 17.7168 70.3776 17 69.5175 17ZM20.4895 51.9073C12.5332 51.9073 6.08217 45.4563 6.08217 37.5C6.08217 29.5437 12.5332 23.0927 20.4895 23.0927C23.7867 23.0927 26.7972 24.2395 29.2343 26.1031V48.8252C26.8689 50.7605 23.7867 51.9073 20.4895 51.9073ZM67.9406 54.9178H32.3881V20.0822H67.9406V54.9178Z" fill="#0A175C"/>
<path d="M42.2798 43.8794C42.5665 44.1661 42.9966 44.3095 43.355 44.3095C43.7851 44.3095 44.1435 44.1661 44.4302 43.8794C45.0753 43.2343 45.0753 42.3025 44.4302 41.6574L39.9144 37.1416L44.4302 32.6259C45.0753 31.9808 45.0753 31.049 44.4302 30.4039C43.7851 29.7588 42.8532 29.7588 42.2081 30.4039L36.6889 36.0665C36.0438 36.7116 36.0438 37.6434 36.6889 38.2885L42.2798 43.8794Z" fill="#0A175C"/>
<path d="M55.827 43.8794C56.1137 44.1661 56.5438 44.3095 56.9022 44.3095C57.3322 44.3095 57.6906 44.1661 57.9773 43.8794L63.6399 38.2168C64.285 37.5717 64.285 36.6399 63.6399 35.9948L57.9773 30.3322C57.3322 29.6871 56.4004 29.6871 55.7553 30.3322C55.1102 30.9773 55.1102 31.9091 55.7553 32.5542L60.271 37.07L55.7553 41.5857C55.1819 42.3025 55.1819 43.306 55.827 43.8794Z" fill="#0A175C"/>
<path d="M47.9426 46.9615C48.086 46.9615 48.1576 47.0332 48.301 47.0332C49.0178 47.0332 49.6629 46.5314 49.8063 45.8146L53.5335 29.9737C53.7486 29.1136 53.2468 28.3251 52.3867 28.1101C51.5265 27.8951 50.7381 28.3968 50.523 29.2569L46.7958 45.0979C46.5807 45.8863 47.0825 46.7465 47.9426 46.9615Z" fill="#0A175C"/>
</g>
</svg>
