<svg width="42" height="42" viewBox="0 0 42 42" fill="none" xmlns="http://www.w3.org/2000/svg">
<mask id="mask0_94_5" style="mask-type:alpha" maskUnits="userSpaceOnUse" x="0" y="0" width="42" height="42">
<rect width="42" height="42" fill="#D9D9D9"/>
</mask>
<g mask="url(#mask0_94_5)">
</g>
<g clip-path="url(#clip0_94_5)">
<path d="M26.2412 34.9784C26.0835 34.8803 25.5905 34.7544 25.4551 34.6514L22.6776 36.4581L20.4194 34.2222L22.3614 31.1591C22.3153 31.0644 22.2745 30.9672 22.2392 30.8681L18.6616 30.237L18.6748 26.7888L21.2856 26.3416L19.9851 25.0868C18.9104 25.9775 17.5564 26.4708 16.1549 26.4822H16.1458C14.8248 26.4724 13.5438 26.0323 12.5005 25.2299L11.1795 26.4822H8.58937C8.0498 26.4602 7.51225 26.5602 7.01763 26.7748C6.52302 26.9895 6.08436 27.313 5.73506 27.7207C3.60733 30.1552 3.96402 35.3945 4.13163 37.0001H26.6292L26.2412 34.9784ZM10.7666 19.9971C10.9158 21.3831 11.5092 22.6855 12.4601 23.7134C12.6457 23.9117 12.8463 24.0956 13.0603 24.2636C13.3275 24.4754 13.6148 24.661 13.9182 24.8178C14.6048 25.1784 15.3702 25.3669 16.1475 25.3669C16.9247 25.3669 17.6901 25.1784 18.3767 24.8178C18.6802 24.661 18.9675 24.4754 19.2346 24.2636C19.4492 24.0931 19.6514 23.9079 19.8398 23.7093C20.7869 22.6889 21.3804 21.3958 21.5341 20.0184C21.5522 20.0184 21.5655 20.0224 21.5836 20.0224C22.0678 19.9866 22.5181 19.7631 22.8369 19.4006C23.1556 19.038 23.317 18.5655 23.2861 18.0858C23.291 17.7888 23.23 17.4943 23.1075 17.2231C22.985 16.9519 22.8038 16.7106 22.5769 16.5162H10.012C9.78504 16.7106 9.60391 16.9519 9.48136 17.2231C9.35882 17.4943 9.29785 17.7888 9.30274 18.0858C9.2795 18.5243 9.41374 18.9567 9.68168 19.3065C9.94962 19.6563 10.334 19.901 10.7666 19.9971ZM36.9995 29.2347V27.7428L33.8694 27.1836C33.7311 26.6167 33.5041 26.0747 33.1965 25.5773L35.013 23.0014L33.9512 21.9476L31.3404 23.7461C30.8387 23.4419 30.2914 23.2184 29.7188 23.0839L29.1632 19.9889H27.6597L27.0949 23.088C26.5226 23.225 25.9754 23.4498 25.4733 23.7543L22.8716 21.9558L21.8057 23.0112L23.6222 25.5961C23.3149 26.0929 23.0891 26.6348 22.9534 27.2016L19.8274 27.7518V29.2413L22.9575 29.8004C23.0959 30.3671 23.323 30.9088 23.6304 31.406L21.8057 33.9819L22.8716 35.0373L25.4824 33.2388C25.9842 33.543 26.5315 33.7665 27.104 33.901L27.6597 36.996H29.164L29.7288 33.8969C30.3011 33.7599 30.8482 33.5351 31.3504 33.2306L33.952 35.0291L35.0179 33.9737L33.2015 31.3888C33.5088 30.892 33.7345 30.3501 33.8703 29.7833L36.9995 29.2347ZM28.4127 30.788C27.9535 30.788 27.5046 30.6531 27.1228 30.4005C26.7409 30.148 26.4434 29.7889 26.2676 29.3689C26.0919 28.9488 26.0459 28.4866 26.1355 28.0407C26.2251 27.5948 26.4462 27.1852 26.7709 26.8637C27.0956 26.5422 27.5093 26.3233 27.9597 26.2346C28.4101 26.1459 28.8769 26.1914 29.3012 26.3654C29.7254 26.5394 30.088 26.834 30.3431 27.212C30.5982 27.5901 30.7344 28.0345 30.7344 28.4892C30.7346 28.7914 30.6746 29.0908 30.5578 29.37C30.441 29.6493 30.2697 29.903 30.0538 30.1166C29.8378 30.3302 29.5814 30.4995 29.2992 30.6149C29.017 30.7302 28.7146 30.7893 28.4094 30.7888L28.4127 30.788ZM13.7654 8.21791C11.8945 9.21874 10.4891 10.8996 9.8452 12.9062L9.71887 13.2994H8.68927V15.5353H23.8996V13.2986H22.8898L22.7635 12.9054C22.1182 10.9044 20.7124 9.23028 18.8432 8.23671V13.1024C18.8316 13.2946 18.7825 13.4828 18.6988 13.6567C18.5815 13.8852 18.4034 14.0777 18.1836 14.2133C17.9639 14.3489 17.7109 14.4224 17.452 14.4259H15.1748C14.8366 14.4234 14.5105 14.3013 14.2553 14.0815C14.0002 13.8617 13.8329 13.5588 13.7836 13.2275C13.7686 13.1629 13.7625 13.0966 13.7654 13.0305V8.21791ZM15.1748 13.8349H17.433C17.5865 13.8354 17.7371 13.7939 17.8682 13.715C17.9994 13.6361 18.1059 13.5228 18.1761 13.3877C18.2474 13.2687 18.2847 13.1328 18.2843 12.9945V7.10857C18.2793 6.97472 18.2548 6.84228 18.2116 6.71536C18.1283 6.5067 17.9842 6.32729 17.7976 6.19992C17.6111 6.07255 17.3905 6.00299 17.1639 6.00006H15.1748C14.9684 5.99761 14.7686 6.07178 14.6147 6.20796C14.4608 6.34414 14.364 6.53246 14.3434 6.7358C14.3434 6.77177 14.3252 6.80774 14.3252 6.84289V12.9961C14.3259 13.1675 14.376 13.3351 14.4697 13.4793C14.5511 13.5889 14.6573 13.6781 14.7797 13.7399C14.9021 13.8016 15.0374 13.8341 15.1748 13.8349Z" fill="#06033E"/>
</g>
<defs>
<clipPath id="clip0_94_5">
<rect width="33" height="31" fill="white" transform="translate(4 6)"/>
</clipPath>
</defs>
</svg>
