<svg width="40" height="40" viewBox="0 0 40 40" fill="none" xmlns="http://www.w3.org/2000/svg">
<circle cx="20" cy="20" r="20" fill="#E9EDF5"/>
<mask id="mask0_107_43" style="mask-type:alpha" maskUnits="userSpaceOnUse" x="9" y="9" width="22" height="22">
<rect x="9" y="9" width="22" height="22" fill="#D9D9D9"/>
</mask>
<g mask="url(#mask0_107_43)">
<path d="M27.2875 28.25C25.3778 28.25 23.491 27.8337 21.6271 27.001C19.7632 26.1684 18.0674 24.9882 16.5396 23.4604C15.0118 21.9326 13.8316 20.2368 12.999 18.3729C12.1663 16.509 11.75 14.6222 11.75 12.7125C11.75 12.4375 11.8417 12.2083 12.025 12.025C12.2083 11.8417 12.4375 11.75 12.7125 11.75H16.425C16.6389 11.75 16.8299 11.8226 16.9979 11.9677C17.166 12.1128 17.2653 12.2847 17.2958 12.4833L17.8917 15.6917C17.9222 15.9361 17.9146 16.1424 17.8688 16.3104C17.8229 16.4785 17.7389 16.6236 17.6167 16.7458L15.3938 18.9917C15.6993 19.5569 16.0622 20.1031 16.4823 20.6302C16.9024 21.1573 17.3646 21.6653 17.8688 22.1542C18.3424 22.6278 18.8389 23.067 19.3583 23.4719C19.8778 23.8767 20.4278 24.2472 21.0083 24.5833L23.1625 22.4292C23.3 22.2917 23.4795 22.1885 23.701 22.1198C23.9226 22.051 24.1403 22.0319 24.3542 22.0625L27.5167 22.7042C27.7306 22.7653 27.9062 22.876 28.0438 23.0365C28.1812 23.1969 28.25 23.3764 28.25 23.575V27.2875C28.25 27.5625 28.1583 27.7917 27.975 27.975C27.7917 28.1583 27.5625 28.25 27.2875 28.25ZM14.5229 17.25L16.0354 15.7375L15.6458 13.5833H13.6063C13.6826 14.2097 13.7896 14.8285 13.9271 15.4396C14.0646 16.0507 14.2632 16.6542 14.5229 17.25ZM22.7271 25.4542C23.3229 25.7139 23.9302 25.9201 24.549 26.0729C25.1677 26.2257 25.7903 26.325 26.4167 26.3708V24.3542L24.2625 23.9188L22.7271 25.4542Z" fill="#0A175C"/>
</g>
</svg>
