<svg width="89" height="89" viewBox="0 0 89 89" fill="none" xmlns="http://www.w3.org/2000/svg">
<g opacity="0.18">
<path d="M66.3438 34.0117C66.1524 34.8047 66.2032 35.6328 66.4962 36.4101C66.8829 37.4335 67.6485 38.2421 68.6446 38.6913L69.6055 36.5546C69.1797 36.3632 68.8516 36.0156 68.6875 35.582C68.5196 35.1445 68.5352 34.6718 68.7305 34.2461C68.9219 33.8203 69.2657 33.4961 69.7032 33.3281C70.1407 33.164 70.6172 33.1758 71.043 33.3672L72.0039 31.2305C71.0078 30.7812 69.8945 30.75 68.8711 31.1367C68.6016 31.2383 68.3477 31.3711 68.1133 31.5234C67.0899 29.289 64.8477 27.7265 62.2383 27.7265V30.0703C64.4492 30.0664 66.2461 31.8203 66.3438 34.0117Z" fill="#0A175C"/>
<path d="M84.6528 69.1137C83.0512 69.1137 81.6997 70.1567 81.2114 71.5942H64.1134V62.9731C68.4806 62.0747 71.7736 58.2036 71.7736 53.5747C71.7736 51.77 71.2502 50.02 70.3088 48.5083C75.1682 45.8989 78.4807 40.77 78.4807 34.8753C78.4807 28.9847 75.1682 23.8523 70.3088 21.2423C71.2502 19.7267 71.7736 17.9806 71.7736 16.1759C71.7736 10.8829 67.4689 6.57823 62.1759 6.57823C61.2111 6.57823 60.2579 6.74229 59.34 7.02354C59.3205 6.83995 59.301 6.65635 59.2658 6.47667C58.6603 3.35947 56.172 0.82827 53.0666 0.17977C50.633 -0.32804 48.1447 0.265708 46.2463 1.80867C46.0198 1.99226 45.8088 2.18758 45.6057 2.3907L45.6096 1.1719C45.6096 0.52346 45.0862 0 44.4377 0H37.7111C37.0627 0 36.5392 0.52344 36.5392 1.1719V5.9649C34.1017 6.62896 31.7658 7.5938 29.5822 8.8438L26.1916 5.4571C25.7346 5.00007 24.9924 5.00007 24.5354 5.4571L15.0198 14.9727C14.8011 15.1915 14.6761 15.4922 14.6761 15.8008C14.6761 16.1094 14.8011 16.4102 15.0198 16.6289L18.4065 20.0156C17.1565 22.2031 16.1917 24.5351 15.5276 26.9765H10.7346C10.0862 26.9765 9.5627 27.5 9.5627 28.1484V41.6054C9.5627 42.2539 10.0861 42.7773 10.7346 42.7773H15.5276C16.1917 45.2148 17.1565 47.5507 18.4065 49.7343L15.0198 53.121C14.8011 53.3398 14.6761 53.6367 14.6761 53.9492C14.6761 54.2617 14.8011 54.5585 15.0198 54.7773L24.1917 63.9492V71.5937H7.0937C6.60151 70.1562 5.2539 69.1132 3.6523 69.1132C1.6406 69.1132 0 70.7499 0 72.7655C0 74.7811 1.6406 76.4178 3.6523 76.4178C5.2539 76.4178 6.6015 75.3748 7.0937 73.9373H25.3597C26.0081 73.9373 26.5316 73.4138 26.5316 72.7654V63.949L29.5746 60.906C31.7621 62.156 34.0941 63.1208 36.5355 63.7849V83.4569H15.0355C14.5433 82.0194 13.1957 80.9764 11.5941 80.9764C9.5785 80.9764 7.9418 82.617 7.9418 84.6287C7.9418 86.6404 9.5785 88.281 11.5941 88.281C13.1957 88.281 14.5433 87.238 15.0355 85.8005H37.7075C38.3559 85.8005 38.8794 85.277 38.8794 84.6286V69.7496H44.4341C45.0825 69.7496 45.606 69.2261 45.606 68.5777V67.3511C46.6372 68.3941 47.9537 69.1363 49.4224 69.4956V84.6286C49.4224 85.277 49.9458 85.8005 50.5943 85.8005H73.2663C73.7624 87.238 75.1101 88.281 76.7116 88.281C78.7272 88.281 80.3639 86.6404 80.3639 84.6287C80.3639 82.6131 78.7233 80.9764 76.7116 80.9764C75.11 80.9764 73.7585 82.0194 73.2702 83.4569H51.7702V69.7069C55.6686 69.4998 58.8132 66.5389 59.3171 62.7225C60.1062 62.9686 60.9304 63.1092 61.7702 63.1444V72.7616C61.7702 73.41 62.2936 73.9335 62.9421 73.9335H81.2081C81.7003 75.371 83.0479 76.414 84.6495 76.414C86.6651 76.414 88.3018 74.7734 88.3018 72.7617C88.3057 70.75 86.6684 69.1137 84.6528 69.1137ZM3.65283 74.0746C2.93017 74.0746 2.34423 73.4887 2.34423 72.766C2.34423 72.0434 2.93017 71.4574 3.65283 71.4574C4.37549 71.4574 4.96143 72.0434 4.96143 72.766C4.96143 73.4887 4.37549 74.0746 3.65283 74.0746ZM11.5942 85.9376C10.8716 85.9376 10.2856 85.3517 10.2856 84.629C10.2856 83.9064 10.8716 83.3204 11.5942 83.3204C12.3169 83.3204 12.9028 83.9064 12.9028 84.629C12.9028 85.3517 12.3169 85.9376 11.5942 85.9376ZM76.7112 83.3204C77.4339 83.3204 78.0198 83.9064 78.0198 84.629C78.0198 85.3517 77.4339 85.9376 76.7112 85.9376C75.9886 85.9376 75.4026 85.3517 75.4026 84.629C75.4026 83.9064 75.9925 83.3204 76.7112 83.3204ZM31.3752 34.8754C31.3752 28.0707 36.6096 22.4694 43.2662 21.8714V47.8754C36.61 47.2817 31.3752 41.6801 31.3752 34.8754ZM43.2662 67.4064H38.8834V62.8791C38.8834 62.3362 38.5123 61.8674 37.985 61.7385C35.1569 61.0628 32.4733 59.9494 30.0084 58.4377C29.5475 58.1565 28.9498 58.2268 28.567 58.6096L25.3678 61.8088L17.5084 53.9494L20.7076 50.7502C21.0904 50.3674 21.1607 49.7697 20.8795 49.3088C19.3639 46.844 18.2545 44.1604 17.5787 41.3322C17.4537 40.8049 16.981 40.4338 16.4381 40.4338H11.9108V29.3208H16.4381C16.981 29.3208 17.4498 28.9497 17.5787 28.4223C18.2545 25.5942 19.3678 22.9106 20.8795 20.4457C21.1646 19.9848 21.0943 19.3871 20.7076 19.0043L17.5084 15.8051L25.3678 7.94573L28.567 11.1449C28.9498 11.5277 29.5475 11.5981 30.0084 11.3168C32.4732 9.80511 35.1568 8.69181 37.985 8.01601C38.5123 7.89101 38.8834 7.41835 38.8834 6.87541L38.8795 2.34421H43.2623V19.5282C35.317 20.1298 29.0283 26.7743 29.0283 34.8762C29.0283 42.9817 35.3291 49.6342 43.2863 50.2242C43.3957 52.3648 44.1809 54.4351 45.5051 56.1109C44.1223 57.5601 43.259 59.5132 43.259 61.6734L43.2662 67.4064ZM51.3443 67.4064C48.1841 67.4064 45.6099 64.8322 45.6099 61.672C45.6099 58.5079 48.1841 55.9376 51.3443 55.9376V53.5938C49.9029 53.5938 48.5709 54.004 47.399 54.668C46.274 53.2618 45.6099 51.5157 45.6099 49.7071V38.6171C45.981 38.6054 46.3521 38.6289 46.7232 38.6953C48.1451 38.9453 49.3834 39.7305 50.2115 40.9101C51.0397 42.0898 51.3599 43.5234 51.11 44.9453C50.9811 45.6757 50.7115 46.3555 50.3131 46.9648L52.274 48.246C52.8482 47.367 53.2349 46.3905 53.4146 45.3476C53.5513 44.578 53.5318 43.8124 53.438 43.0585C57.1372 42.121 59.8052 38.8163 59.8052 34.8827H57.4614C57.4614 37.7382 55.5161 40.1366 52.8247 40.8007C52.6294 40.3749 52.4029 39.9569 52.1255 39.5663C50.938 37.8749 49.1607 36.746 47.1255 36.3866C46.6216 36.2967 46.1138 36.2616 45.606 36.2733L45.6099 18.1013C47.7271 17.7536 49.5747 16.3747 50.4849 14.3865L48.3521 13.4138C47.8248 14.5661 46.8052 15.3982 45.6099 15.7107V8.07792C45.6099 6.34352 46.3834 4.72242 47.731 3.62482C49.0787 2.53102 50.8482 2.10922 52.5943 2.47252C54.7857 2.92955 56.5435 4.71472 56.9693 6.91782C57.3092 8.67172 56.8834 10.3826 55.7701 11.7264L57.5748 13.2186C58.4615 12.1483 59.0318 10.8748 59.2779 9.53502C60.192 9.13268 61.1646 8.91783 62.1802 8.91783C66.1802 8.91783 69.4341 12.1717 69.4341 16.1717C69.4341 17.6561 68.9576 19.0779 68.1216 20.285C66.52 19.7225 64.8091 19.4022 63.02 19.4022C59.5161 19.4022 56.2114 20.5467 53.4614 22.7069L54.9106 24.5467C57.2426 22.7108 60.0473 21.742 63.02 21.742C70.2544 21.742 76.141 27.6287 76.141 34.867C76.141 42.1014 70.2543 47.988 63.02 47.988V50.3318C64.8091 50.3318 66.5239 50.0115 68.1216 49.449C68.9576 50.656 69.4341 52.0818 69.4341 53.5662C69.4341 57.5662 66.1802 60.8201 62.1802 60.8201C59.9966 60.8201 57.9497 59.8474 56.563 58.156L54.7505 59.6404C55.4185 60.4607 56.2075 61.1482 57.0786 61.6951C57.0591 64.8474 54.4967 67.4064 51.3443 67.4064ZM84.6533 74.0744C83.9307 74.0744 83.3447 73.4885 83.3447 72.7658C83.3447 72.0432 83.9307 71.4572 84.6533 71.4572C85.376 71.4572 85.9619 72.0432 85.9619 72.7658C85.9619 73.4885 85.376 74.0744 84.6533 74.0744Z" fill="#0A175C"/>
</g>
</svg>
