<svg width="42" height="42" viewBox="0 0 42 42" fill="none" xmlns="http://www.w3.org/2000/svg">
<mask id="mask0_94_12" style="mask-type:alpha" maskUnits="userSpaceOnUse" x="0" y="0" width="42" height="42">
<rect width="42" height="42" fill="#D9D9D9"/>
</mask>
<g mask="url(#mask0_94_12)">
</g>
<g clip-path="url(#clip0_94_12)">
<path d="M36.8217 16.8075C36.7472 16.7161 36.6534 16.6424 36.547 16.5917C36.4407 16.541 36.3245 16.5145 36.2067 16.5142H33.1891C32.4444 14.5454 31.4745 12.6139 30.3725 11.8875C26.5584 9.36856 16.4425 9.36856 12.6267 11.8875C11.5231 12.6188 10.5572 14.5486 9.80927 16.5142H6.79411C6.67643 16.5143 6.56026 16.5407 6.454 16.5914C6.34773 16.6421 6.25403 16.7158 6.17966 16.8072C6.1053 16.8987 6.05213 17.0056 6.024 17.1202C5.99587 17.2347 5.99349 17.3541 6.01702 17.4698L6.4635 19.6409C6.50043 19.8202 6.59789 19.9812 6.73946 20.0969C6.88102 20.2125 7.05802 20.2756 7.24059 20.2755H8.13193C7.2972 21.254 6.84057 22.5005 6.84516 23.7882C6.82962 24.527 6.96944 25.2607 7.25551 25.9417C7.54157 26.6227 7.96748 27.2356 8.50548 27.7405C8.51764 27.7511 8.52898 27.7584 8.54032 27.7681V30.8063C8.54032 31.1224 8.66526 31.4256 8.88777 31.6494C9.11028 31.8733 9.41222 31.9997 9.72743 32.0007H12.5141C12.8297 32.0005 13.1324 31.8747 13.3555 31.6509C13.5787 31.4271 13.7042 31.1236 13.7044 30.8071V29.5882H29.2948V30.8071C29.295 31.1236 29.4205 31.4271 29.6437 31.6509C29.8668 31.8747 30.1695 32.0005 30.4851 32.0007H33.2677C33.5832 32.0001 33.8856 31.8741 34.1087 31.6504C34.3318 31.4267 34.4574 31.1235 34.4581 30.8071V27.8282C35.4766 26.8575 36.0815 25.5296 36.1463 24.122C36.2111 22.7144 35.7308 21.3362 34.8057 20.2755H35.7586C35.9414 20.276 36.1187 20.2129 36.2604 20.0971C36.4021 19.9812 36.4994 19.8198 36.5357 19.6401L36.983 17.4698C37.0063 17.3543 37.0039 17.2351 36.976 17.1206C36.9481 17.0061 36.8955 16.8993 36.8217 16.8075ZM13.9362 13.8823C16.9765 11.8761 26.0244 11.8761 29.0622 13.8823C29.6529 14.2707 30.4122 15.8414 31.1082 17.7639H11.891C12.5854 15.8406 13.3455 14.2707 13.9362 13.8807V13.8823ZM10.3757 24.0889C10.3757 23.6242 10.5131 23.17 10.7705 22.7837C11.028 22.3974 11.3939 22.0963 11.822 21.9185C12.2501 21.7407 12.7212 21.6942 13.1756 21.7849C13.63 21.8757 14.0474 22.0995 14.375 22.4281C14.7026 22.7567 14.9257 23.1753 15.016 23.6311C15.1063 24.0868 15.0598 24.5592 14.8823 24.9884C14.7049 25.4176 14.4045 25.7844 14.0192 26.0425C13.6338 26.3005 13.1808 26.4381 12.7175 26.438C12.4099 26.438 12.1053 26.3772 11.8211 26.2591C11.5369 26.1411 11.2787 25.968 11.0613 25.7499C10.8438 25.5317 10.6713 25.2728 10.5537 24.9878C10.4361 24.7028 10.3756 24.3973 10.3757 24.0889ZM30.3093 26.438C29.8465 26.4364 29.3946 26.2973 29.0105 26.0383C28.6265 25.7793 28.3276 25.4121 28.1516 24.9829C27.9756 24.5537 27.9303 24.0818 28.0215 23.6269C28.1127 23.1719 28.3363 22.7542 28.6641 22.4266C28.9918 22.099 29.409 21.8761 29.863 21.786C30.317 21.696 30.7874 21.7428 31.2148 21.9207C31.6423 22.0985 32.0076 22.3994 32.2647 22.7853C32.5217 23.1712 32.659 23.6248 32.6592 24.0889C32.6592 24.398 32.5983 24.704 32.4802 24.9895C32.362 25.275 32.1888 25.5343 31.9705 25.7525C31.7522 25.9707 31.4931 26.1436 31.208 26.2612C30.9229 26.3789 30.6175 26.4389 30.3093 26.438Z" fill="#06033E"/>
</g>
<defs>
<clipPath id="clip0_94_12">
<rect width="31" height="22" fill="white" transform="translate(6 10)"/>
</clipPath>
</defs>
</svg>
