<svg width="42" height="42" viewBox="0 0 42 42" fill="none" xmlns="http://www.w3.org/2000/svg">
<mask id="mask0_94_16" style="mask-type:alpha" maskUnits="userSpaceOnUse" x="0" y="0" width="42" height="42">
<rect width="42" height="42" fill="#D9D9D9"/>
</mask>
<g mask="url(#mask0_94_16)">
<path fill-rule="evenodd" clip-rule="evenodd" d="M18.8636 8.97727C18.8636 8.45264 18.6554 7.9504 18.285 7.57868C17.9132 7.20827 17.411 7 16.8864 7C15.4232 7 13.0768 7 11.6136 7C11.089 7 10.5868 7.20827 10.215 7.57868C9.84464 7.9504 9.63636 8.45264 9.63636 8.97727V34.0227C9.63636 34.5474 9.84464 35.0496 10.215 35.4213C10.5868 35.7917 11.089 36 11.6136 36C13.0768 36 15.4232 36 16.8864 36C17.411 36 17.9132 35.7917 18.285 35.4213C18.6554 35.0496 18.8636 34.5474 18.8636 34.0227V8.97727ZM19.5227 9.63636V33.3636H31.4879C34.028 33.3636 36 31.7502 36 29.9034C36 25.5982 36 17.4018 36 13.0966C36 11.2498 34.028 9.63636 31.4879 9.63636H19.5227ZM8.97727 9.92504C7.81727 10.4576 7 11.6716 7 13.0966C7 17.4018 7 25.5982 7 29.9034C7 31.3284 7.81727 32.5424 8.97727 33.075V9.92504ZM27.4318 30.7273H28.75C29.1138 30.7273 29.4091 30.432 29.4091 30.0682C29.4091 29.7044 29.1138 29.4091 28.75 29.4091H27.4318C27.068 29.4091 26.7727 29.7044 26.7727 30.0682C26.7727 30.432 27.068 30.7273 27.4318 30.7273ZM31.3864 30.7273H32.7045C33.0684 30.7273 33.3636 30.432 33.3636 30.0682C33.3636 29.7044 33.0684 29.4091 32.7045 29.4091H31.3864C31.0225 29.4091 30.7273 29.7044 30.7273 30.0682C30.7273 30.432 31.0225 30.7273 31.3864 30.7273ZM23.4773 30.7273H24.7955C25.1593 30.7273 25.4545 30.432 25.4545 30.0682C25.4545 29.7044 25.1593 29.4091 24.7955 29.4091H23.4773C23.1135 29.4091 22.8182 29.7044 22.8182 30.0682C22.8182 30.432 23.1135 30.7273 23.4773 30.7273ZM31.3864 28.0909H32.7045C33.0684 28.0909 33.3636 27.7956 33.3636 27.4318C33.3636 27.068 33.0684 26.7727 32.7045 26.7727H31.3864C31.0225 26.7727 30.7273 27.068 30.7273 27.4318C30.7273 27.7956 31.0225 28.0909 31.3864 28.0909ZM27.4318 28.0909H28.75C29.1138 28.0909 29.4091 27.7956 29.4091 27.4318C29.4091 27.068 29.1138 26.7727 28.75 26.7727H27.4318C27.068 26.7727 26.7727 27.068 26.7727 27.4318C26.7727 27.7956 27.068 28.0909 27.4318 28.0909ZM23.4773 28.0909H24.7955C25.1593 28.0909 25.4545 27.7956 25.4545 27.4318C25.4545 27.068 25.1593 26.7727 24.7955 26.7727H23.4773C23.1135 26.7727 22.8182 27.068 22.8182 27.4318C22.8182 27.7956 23.1135 28.0909 23.4773 28.0909ZM34.6818 12.7895C34.6818 12.4256 34.3865 12.1304 34.0227 12.1304H22.1591C21.7953 12.1304 21.5 12.4256 21.5 12.7895V24.1364C21.5 24.5002 21.7953 24.7955 22.1591 24.7955H34.0227C34.3865 24.7955 34.6818 24.5002 34.6818 24.1364V12.7895ZM24.1364 23.4773H22.8182V13.4485H33.3636V23.4773H32.0455V22.1591C32.0455 21.6345 31.8372 21.1322 31.4668 20.7605C31.095 20.3901 30.5928 20.1818 30.0682 20.1818C28.92 20.1818 27.2618 20.1818 26.1136 20.1818C25.589 20.1818 25.0868 20.3901 24.715 20.7605C24.3446 21.1322 24.1364 21.6345 24.1364 22.1591V23.4773ZM25.4545 23.4773V22.1591C25.4545 21.9838 25.5244 21.8164 25.647 21.6924C25.7709 21.5699 25.9383 21.5 26.1136 21.5H30.0682C30.2435 21.5 30.4109 21.5699 30.5348 21.6924C30.6574 21.8164 30.7273 21.9838 30.7273 22.1591V23.4773H25.4545ZM30.7273 18.2045V16.8864C30.7273 15.7949 29.8415 14.9091 28.75 14.9091H27.4318C26.3404 14.9091 25.4545 15.7949 25.4545 16.8864V18.2045C25.4545 19.296 26.3404 20.1818 27.4318 20.1818H28.75C29.8415 20.1818 30.7273 19.296 30.7273 18.2045ZM29.4091 16.8864V18.2045C29.4091 18.5684 29.1138 18.8636 28.75 18.8636H27.4318C27.068 18.8636 26.7727 18.5684 26.7727 18.2045V16.8864C26.7727 16.5225 27.068 16.2273 27.4318 16.2273H28.75C29.1138 16.2273 29.4091 16.5225 29.4091 16.8864Z" fill="#06033E"/>
</g>
</svg>
