<svg width="40" height="40" viewBox="0 0 40 40" fill="none" xmlns="http://www.w3.org/2000/svg">
<mask id="mask0_94_3" style="mask-type:alpha" maskUnits="userSpaceOnUse" x="0" y="0" width="40" height="40">
<rect width="40" height="40" fill="#D9D9D9"/>
</mask>
<g mask="url(#mask0_94_3)">
</g>
<g clip-path="url(#clip0_94_3)">
<path d="M15.696 7.25487C17.4244 7.25487 18.8255 5.85467 18.8255 4.12743C18.8255 2.4002 17.4244 1 15.696 1C13.9676 1 12.5664 2.4002 12.5664 4.12743C12.5664 5.85467 13.9676 7.25487 15.696 7.25487Z" fill="#06033E"/>
<path d="M31.0942 25.2074H30.4204V21.1972H30.9736C31.0525 21.1958 31.1277 21.164 31.1835 21.1082C31.2393 21.0525 31.2712 20.9773 31.2725 20.8985V19.9032C31.2712 19.8244 31.2393 19.7492 31.1835 19.6935C31.1277 19.6378 31.0525 19.6059 30.9736 19.6046H27.0498C27.1601 19.2844 27.1594 18.9365 27.0479 18.6168C26.9363 18.2971 26.7204 18.0241 26.4348 17.8419L23.3356 15.8677L23.3113 11.8027C23.3046 10.8593 22.9255 9.95667 22.2563 9.29117C21.5871 8.62568 20.6821 8.25113 19.738 8.24902H11.633C10.6889 8.25113 9.78385 8.62568 9.11468 9.29117C8.44551 9.95667 8.06634 10.8593 8.05967 11.8027L8.00394 22.89C8.00261 23.0883 8.04044 23.285 8.11526 23.4687C8.19008 23.6525 8.30042 23.8196 8.43998 23.9607C8.57954 24.1018 8.74557 24.2139 8.92857 24.2908C9.11156 24.3676 9.30792 24.4077 9.50641 24.4086H9.51453C9.91358 24.4084 10.2963 24.2503 10.5792 23.969C10.862 23.6877 11.0219 23.3059 11.0241 22.9072L11.0798 11.8199C11.0798 11.7426 11.1105 11.6684 11.1653 11.6137C11.22 11.559 11.2942 11.5283 11.3716 11.5283C11.449 11.5283 11.5232 11.559 11.5779 11.6137C11.6326 11.6684 11.6634 11.7426 11.6634 11.8199V37.1937C11.6745 37.6666 11.8704 38.1163 12.209 38.4467C12.5476 38.7772 13.0021 38.9622 13.4754 38.9622C13.9486 38.9622 14.4031 38.7772 14.7417 38.4467C15.0803 38.1163 15.2761 37.6666 15.2873 37.1937V22.7158H16.0695V37.1937C16.0806 37.6666 16.2765 38.1163 16.6151 38.4467C16.9536 38.7772 17.4082 38.9622 17.8814 38.9622C18.3547 38.9622 18.8092 38.7772 19.1478 38.4467C19.4864 38.1163 19.6822 37.6666 19.6934 37.1937C19.6934 13.5613 19.661 26.5125 19.661 11.8371C19.6603 11.7956 19.6679 11.7544 19.6831 11.7159C19.6984 11.6773 19.7211 11.6421 19.75 11.6123C19.7789 11.5825 19.8134 11.5586 19.8514 11.5422C19.8895 11.5257 19.9305 11.5168 19.972 11.5162C20.0135 11.5155 20.0548 11.523 20.0934 11.5383C20.132 11.5535 20.1672 11.5763 20.197 11.6051C20.2269 11.634 20.2507 11.6684 20.2672 11.7065C20.2837 11.7446 20.2925 11.7855 20.2932 11.827L20.3226 16.7161C20.324 16.9682 20.3886 17.216 20.5106 17.4367C20.6325 17.6574 20.8079 17.8441 21.0206 17.9796L24.4359 20.1543V20.9056C24.4372 20.9844 24.4691 21.0596 24.5249 21.1153C24.5806 21.1711 24.6559 21.2029 24.7348 21.2042H25.2879V25.2125H24.6142C24.374 25.2125 24.1436 25.3079 23.9737 25.4776C23.8039 25.6473 23.7085 25.8776 23.7085 26.1176V36.5043C23.7085 36.7443 23.8039 36.9745 23.9737 37.1443C24.1436 37.314 24.374 37.4094 24.6142 37.4094H25.2879V38.3874C25.2879 38.4685 25.3039 38.5488 25.335 38.6238C25.366 38.6987 25.4116 38.7668 25.4689 38.8241C25.5263 38.8815 25.5944 38.927 25.6694 38.958C25.7444 38.989 25.8248 39.005 25.9059 39.005C25.9871 39.005 26.0674 38.989 26.1424 38.958C26.2174 38.927 26.2855 38.8815 26.3429 38.8241C26.4003 38.7668 26.4458 38.6987 26.4769 38.6238C26.5079 38.5488 26.5239 38.4685 26.5239 38.3874V37.4094H29.1885V38.3874C29.1885 38.5512 29.2536 38.7083 29.3695 38.8241C29.4854 38.9399 29.6426 39.005 29.8065 39.005C29.9704 39.005 30.1276 38.9399 30.2435 38.8241C30.3594 38.7083 30.4245 38.5512 30.4245 38.3874V37.4094H31.0982C31.3384 37.4094 31.5688 37.314 31.7387 37.1443C31.9085 36.9745 32.004 36.7443 32.004 36.5043V26.1126C32.004 25.9934 31.9804 25.8753 31.9346 25.7652C31.8888 25.6552 31.8218 25.5552 31.7372 25.4711C31.6527 25.387 31.5524 25.3204 31.442 25.2752C31.3317 25.2299 31.2134 25.2069 31.0942 25.2074ZM29.1844 25.2074H26.525V21.1972H29.1895V25.2054L29.1844 25.2074Z" fill="#06033E"/>
</g>
<defs>
<clipPath id="clip0_94_3">
<rect width="24" height="38" fill="white" transform="translate(8 1)"/>
</clipPath>
</defs>
</svg>
