<svg width="122" height="122" viewBox="0 0 122 122" fill="none" xmlns="http://www.w3.org/2000/svg">
<path d="M121.12 18.0394L112.712 26.4489C107.418 31.7551 100.235 34.7355 92.7388 34.741H91.5481L57.795 68.4792C56.6211 69.659 54.7093 69.659 53.5353 68.4792C52.3558 67.305 52.3558 65.3928 53.5353 64.2185L87.2999 30.4918C86.97 22.58 89.9608 14.8923 95.5564 9.2898L103.964 0.880304C104.78 0.0583631 105.999 -0.215608 107.089 0.175781C108.179 0.567185 108.945 1.55686 109.045 2.71423L109.912 12.0911L119.286 12.9578C120.444 13.0584 121.433 13.8244 121.824 14.9148C122.216 16.0051 121.941 17.2231 121.12 18.0394ZM111.415 66.3207C111.41 57.3688 109.258 48.5455 105.143 40.5998C104.377 39.1349 102.577 38.57 101.118 39.3305C99.6539 40.091 99.0892 41.897 99.8495 43.3563C103.556 50.4407 105.479 58.3245 105.456 66.3204C105.451 80.9923 98.9662 94.9198 87.7412 104.37C76.5162 113.82 61.6972 117.828 47.2406 115.329C32.7797 112.83 20.162 104.079 12.7605 91.4089C5.35915 78.7387 3.9225 63.4464 8.84179 49.619C13.7667 35.7914 24.5334 24.8428 38.2731 19.6998C52.0136 14.5614 67.3252 15.7467 80.1089 22.9428C81.5456 23.7703 83.3735 23.2727 84.1953 21.8413C85.0172 20.4099 84.5251 18.5816 83.0941 17.7539C68.7834 9.67435 51.6335 8.32683 36.2381 14.0748C20.8427 19.8171 8.76877 32.0675 3.24485 47.551C-2.28379 63.0274 -0.690585 80.1599 7.58842 94.3565C15.8674 108.553 29.9932 118.371 46.1886 121.178C62.3768 123.991 78.98 119.506 91.5577 108.927C104.135 98.3484 111.402 82.7541 111.414 66.3202L111.415 66.3207ZM94.6447 66.3207C94.6615 60.2988 93.264 54.3606 90.5751 48.9764C89.8427 47.5059 88.0484 46.9075 86.5725 47.6456C85.1024 48.3781 84.5042 50.1729 85.2421 51.6491C87.5172 56.2005 88.6968 61.2272 88.6855 66.321C88.6855 75.0716 85.2084 83.4649 79.0202 89.6543C72.832 95.8384 64.4405 99.3163 55.6924 99.3163C46.9443 99.3163 38.5525 95.8384 32.3646 89.6543C26.1819 83.4646 22.7049 75.0712 22.7049 66.321C22.7049 57.5708 26.1819 49.177 32.3646 42.9877C38.5528 36.798 46.9443 33.3201 55.6924 33.3201C60.8744 33.2977 65.9838 34.5167 70.6012 36.8707C72.0714 37.6144 73.8658 37.0273 74.6094 35.5567C75.3584 34.0862 74.7715 32.2914 73.3013 31.5476C67.8621 28.7743 61.8416 27.3373 55.7378 27.3596C45.4072 27.3484 35.4911 31.4414 28.1783 38.7437C20.8664 46.0462 16.7521 55.9535 16.741 66.2868C16.7354 76.6254 20.8329 86.5383 28.1335 93.8528C35.4398 101.166 45.345 105.276 55.6816 105.282C66.0122 105.282 75.924 101.183 83.2353 93.8751C90.5416 86.5671 94.6447 76.654 94.6447 66.3207ZM62.015 72.639C60.3604 74.4171 58.0572 75.4459 55.6311 75.4851C53.205 75.5298 50.8628 74.5849 49.1467 72.8684C47.4305 71.1518 46.4857 68.809 46.5305 66.3824C46.5697 63.9557 47.5982 61.652 49.3759 59.997L63.7152 45.6544C57.2922 43.1271 50.0585 43.7141 44.1225 47.2424C38.1914 50.7649 34.2168 56.8372 33.356 63.6863C32.5007 70.5415 34.8486 77.402 39.7343 82.2831C44.6145 87.1701 51.4734 89.5185 58.3267 88.6629C65.1746 87.8018 71.2453 83.8263 74.7668 77.8939C78.2941 71.9558 78.8811 64.7205 76.3544 58.2965L62.015 72.639Z" fill="white" fill-opacity="0.2"/>
</svg>
