<svg width="40" height="40" viewBox="0 0 40 40" fill="none" xmlns="http://www.w3.org/2000/svg">
<path fill-rule="evenodd" clip-rule="evenodd" d="M31.6667 35H8.33333C6.4925 35 5 33.5075 5 31.6667V8.33333C5 6.4925 6.4925 5 8.33333 5H31.6667C33.5075 5 35 6.4925 35 8.33333V31.6667C35 33.5075 33.5075 35 31.6667 35Z" fill="#212121"/>
<path d="M28.5477 28.3332H23.1836L11.5244 11.6665H16.8886L28.5477 28.3332ZM23.8227 26.9198H25.9586L16.2494 13.0798H14.1136L23.8227 26.9198Z" fill="white"/>
<path d="M13.222 28.3335L19.2245 21.3802L18.4395 20.3394L11.5195 28.3335H13.222Z" fill="white"/>
<path d="M20.375 18.1007L21.1292 19.1748L27.6133 11.6665H25.9467L20.375 18.1007Z" fill="white"/>
</svg>
